SplineFontDB: 3.2
FontName: OcodoMonoDotZero-Light
FullName: OcodoMonoDotZero Light
FamilyName: OcodoMonoDotZero-Light
Weight: Light
Copyright: Ocodo/Jason Milkins ocodo.github.io
Version: 1.47
ItalicAngle: 0
UnderlinePosition: -124
UnderlineWidth: 25
Ascent: 783
Descent: 217
InvalidEm: 0
sfntRevision: 0x00010000
LayerCount: 2
Layer: 0 1 "Back" 1
Layer: 1 1 "Fore" 0
XUID: [1021 515 1217653088 999156]
StyleMap: 0x0040
FSType: 0
OS2Version: 4
OS2_WeightWidthSlopeOnly: 0
OS2_UseTypoMetrics: 0
CreationTime: 1364125971
ModificationTime: 1752159173
PfmFamily: 17
TTFWeight: 100
TTFWidth: 5
LineGap: 200
VLineGap: 0
Panose: 2 0 4 9 2 2 2 2 2 4
OS2TypoAscent: 783
OS2TypoAOffset: 0
OS2TypoDescent: -217
OS2TypoDOffset: 0
OS2TypoLinegap: 200
OS2WinAscent: 963
OS2WinAOffset: 0
OS2WinDescent: 237
OS2WinDOffset: 0
HheadAscent: 783
HheadAOffset: 0
HheadDescent: -217
HheadDOffset: 0
OS2SubXSize: 700
OS2SubYSize: 650
OS2SubXOff: 0
OS2SubYOff: 140
OS2SupXSize: 700
OS2SupYSize: 650
OS2SupXOff: 0
OS2SupYOff: 477
OS2StrikeYSize: 25
OS2StrikeYPos: 250
OS2CapHeight: 696
OS2XHeight: 495
OS2Vendor: 'OCDO'
OS2CodePages: 00000093.00000000
OS2UnicodeRanges: 800000bf.5000204a.00000000.00000000
MarkAttachClasses: 1
DEI: 91125
TtTable: prep
PUSHW_1
 511
SCANCTRL
PUSHB_1
 1
SCANTYPE
SVTCA[y-axis]
MPPEM
PUSHB_1
 8
LT
IF
PUSHB_2
 1
 1
INSTCTRL
EIF
PUSHB_2
 70
 6
CALL
IF
POP
PUSHB_1
 16
EIF
MPPEM
PUSHB_1
 20
GT
IF
POP
PUSHB_1
 128
EIF
SCVTCI
PUSHB_1
 6
CALL
NOT
IF
EIF
PUSHB_1
 20
CALL
EndTTInstrs
TtTable: fpgm
PUSHB_1
 0
FDEF
PUSHB_1
 0
SZP0
MPPEM
PUSHB_1
 42
LT
IF
PUSHB_1
 74
SROUND
EIF
PUSHB_1
 0
SWAP
MIAP[rnd]
RTG
PUSHB_1
 6
CALL
IF
RTDG
EIF
MPPEM
PUSHB_1
 42
LT
IF
RDTG
EIF
DUP
MDRP[rp0,rnd,grey]
PUSHB_1
 1
SZP0
MDAP[no-rnd]
RTG
ENDF
PUSHB_1
 1
FDEF
DUP
MDRP[rp0,min,white]
PUSHB_1
 12
CALL
ENDF
PUSHB_1
 2
FDEF
MPPEM
GT
IF
RCVT
SWAP
EIF
POP
ENDF
PUSHB_1
 3
FDEF
ROUND[Black]
RTG
DUP
PUSHB_1
 64
LT
IF
POP
PUSHB_1
 64
EIF
ENDF
PUSHB_1
 4
FDEF
PUSHB_1
 6
CALL
IF
POP
SWAP
POP
ROFF
IF

StartChar: .notdef
Encoding: 65536 -1 0
Width: 550
GlyphClass: 1
Flags: W
LayerCount: 2
Fore
SplineSet
51 -10 m 1,0,-1
 51 710 l 1,1,-1
 499 710 l 1,2,-1
 499 -10 l 1,3,-1
 51 -10 l 1,0,-1
459 637.904867219 m 1,4,-1
 301.416915896 350.029624191 l 1,5,-1
 459 65.6757908646 l 1,6,-1
 459 637.904867219 l 1,4,-1
248.554136553 350.007548843 m 1,7,-1
 91 633.428956497 l 1,8,-1
 91 67.4663318972 l 1,9,-1
 248.554136553 350.007548843 l 1,7,-1
121.889300242 669 m 1,10,-1
 275 389.798135736 l 1,11,-1
 428.110699758 669 l 1,12,-1
 121.889300242 669 l 1,10,-1
275 310.201864264 m 1,13,-1
 121.889300242 31 l 1,14,-1
 428.110699758 31 l 1,15,-1
 275 310.201864264 l 1,13,-1
EndSplineSet
Validated: 1
EndChar

StartChar: exclam
Encoding: 33 33 4
Width: 550
GlyphClass: 2
Flags: W
HStem: -10 61<247 303>
VStem: 252 49<-10 51 184 706>
LayerCount: 2
Fore
SplineSet
252 184 m 1,0,-1
 252 706 l 1,1,-1
 301 706 l 1,2,-1
 301 184 l 1,3,-1
 252 184 l 1,0,-1
247 -10 m 1,4,-1
 247 51 l 1,5,-1
 303 51 l 1,6,-1
 303 -10 l 1,7,-1
 247 -10 l 1,4,-1
EndSplineSet
EndChar

StartChar: quotedbl
Encoding: 34 34 5
Width: 550
GlyphClass: 2
Flags: W
HStem: 535 171<201 251 306 356>
VStem: 201 50<535 706> 306 50<535 706>
LayerCount: 2
Fore
SplineSet
251 706 m 1,0,-1
 251 535 l 1,1,-1
 201 535 l 1,2,-1
 201 706 l 1,3,-1
 251 706 l 1,0,-1
356 706 m 1,4,-1
 356 535 l 1,5,-1
 306 535 l 1,6,-1
 306 706 l 1,7,-1
 356 706 l 1,4,-1
EndSplineSet
EndChar

StartChar: numbersign
Encoding: 35 35 6
Width: 550
GlyphClass: 2
Flags: W
HStem: 218 38<45 143 189 326 370 474> 443 39<75 175 219 357 401 504>
LayerCount: 2
Fore
SplineSet
504 482 m 1,0,-1
 504 443 l 1,1,-1
 397 443 l 1,2,-1
 370 256 l 1,3,-1
 474 256 l 1,4,-1
 474 218 l 1,5,-1
 366 218 l 1,6,-1
 338 -10 l 1,7,-1
 295 -10 l 1,8,-1
 326 218 l 1,9,-1
 185 218 l 1,10,-1
 153 -10 l 1,11,-1
 110 -10 l 1,12,-1
 143 218 l 1,13,-1
 45 218 l 1,14,-1
 45 256 l 1,15,-1
 148 256 l 1,16,-1
 175 443 l 1,17,-1
 75 443 l 1,18,-1
 75 482 l 1,19,-1
 180 482 l 1,20,-1
 210 705 l 1,21,-1
 249 705 l 1,22,-1
 219 482 l 1,23,-1
 361 482 l 1,24,-1
 393 705 l 1,25,-1
 431 705 l 1,26,-1
 401 482 l 1,27,-1
 504 482 l 1,0,-1
357 443 m 1,28,-1
 215 443 l 1,29,-1
 189 256 l 1,30,-1
 330 256 l 1,31,-1
 357 443 l 1,28,-1
EndSplineSet
EndChar

StartChar: dollar
Encoding: 36 36 7
Width: 550
GlyphClass: 2
Flags: W
HStem: -3 43<159.978 235 357 423.152> 652 44<357 431.607>
VStem: 90 46<450.487 605.366> 235 45<-88 -0.310059 40 363.616 406 657 691.371 764> 312 45<-88 3.56396 35 325 364.663 652 692.733 764> 479 46<95.6425 264.545>
LayerCount: 2
Fore
SplineSet
280 764 m 1,0,1
 280 338 280 338 280 -88 c 1,2,-1
 235 -88 l 1,3,4
 235 -37 235 -37 235 -3 c 1,5,6
 146 7 146 7 71 59 c 1,7,8
 71 59 71 59 98 95 c 1,9,10
 162 51 162 51 235 40 c 1,11,12
 235 202 235 202 235 357 c 1,13,14
 168 377 168 377 130 412 c 0,15,16
 90 449 90 449 90 519 c 0,17,18
 90 587 90 587 129 636 c 0,19,20
 167 684 167 684 235 696 c 1,21,22
 235 722 235 722 235 764 c 1,23,-1
 280 764 l 1,0,1
312 -88 m 1,24,25
 312 338 312 338 312 764 c 1,26,-1
 357 764 l 1,27,28
 357 721 357 721 357 696 c 1,29,30
 432 686 432 686 489 653 c 1,31,32
 489 653 489 653 467 614 c 1,33,34
 415 642 415 642 357 652 c 1,35,36
 357 507 357 507 357 371 c 1,37,38
 391 362 391 362 420 349 c 0,39,40
 443 339 443 339 472 316 c 0,41,42
 525 274 525 274 525 184 c 0,43,44
 525 109 525 109 479 58 c 0,45,46
 436 10 436 10 357 0 c 1,47,48
 357 -34 357 -34 357 -88 c 1,49,-1
 312 -88 l 1,24,25
445 79 m 0,50,51
 479 117 479 117 479 178 c 0,52,53
 479 247 479 247 446 278 c 0,54,55
 414 308 414 308 357 325 c 1,56,-1
 357 35 l 1,57,58
 414 44 414 44 445 79 c 0,50,51
166 617 m 0,59,60
 136 582 136 582 136 524 c 0,61,62
 136 472 136 472 162 445 c 0,63,64
 186 420 186 420 235 406 c 1,65,-1
 235 657 l 1,66,67
 191 646 191 646 166 617 c 0,59,60
EndSplineSet
EndChar

StartChar: percent
Encoding: 37 37 8
Width: 550
GlyphClass: 2
Flags: W
HStem: -11 44<351.873 469.32> 271 43<351.635 467.67> 381 44<78.4723 196.524> 663 43<79.3845 194.327>
VStem: 14 44<445.566 643.373> 216 47<445.535 643.373> 283 47<54.0215 251.373> 487 44<53.5969 251.403>
LayerCount: 2
Fore
SplineSet
263 599 m 2,0,1
 263 539 263 539 263 489 c 2,2,3
 263 440 263 440 226 410 c 0,4,5
 190 381 190 381 136 381 c 0,6,7
 85 381 85 381 50 409 c 0,8,9
 14 438 14 438 14 489 c 2,10,11
 14 539 14 539 14 599 c 2,12,13
 14 651 14 651 49 678 c 0,14,15
 85 706 85 706 136 706 c 0,16,17
 190 706 190 706 226.5 677.5 c 128,-1,18
 263 649 263 649 263 599 c 2,0,1
196 445 m 0,19,20
 216 462 216 462 216 494 c 2,21,22
 216 538 216 538 216 594 c 2,23,24
 216 624 216 624 194 644 c 0,25,26
 173 663 173 663 136 663 c 0,27,28
 101 663 101 663 80 644 c 0,29,30
 58 624 58 624 58 594 c 2,31,32
 58 538 58 538 58 494 c 2,33,34
 58 463 58 463 79 445 c 0,35,36
 102 425 102 425 138 425 c 0,37,38
 172 425 172 425 196 445 c 0,19,20
44 -17 m 1,39,40
 44 -17 44 -17 -5 -17 c 1,41,42
 249 348 249 348 506 714 c 1,43,-1
 557 714 l 1,44,45
 302 348 302 348 44 -17 c 1,39,40
531 207 m 130,-1,47
 531 157 531 157 531 97 c 2,48,49
 531 47 531 47 497 18 c 128,-1,50
 463 -11 463 -11 411 -11 c 0,51,52
 356 -11 356 -11 320 17 c 0,53,54
 283 46 283 46 283 97 c 2,55,56
 283 157 283 157 283 207 c 2,57,58
 283 259 283 259 320 286 c 0,59,60
 358 314 358 314 411 314 c 0,61,62
 463 314 463 314 497 285.5 c 128,-1,46
 531 257 531 257 531 207 c 130,-1,47
469 53 m 0,63,64
 487 72 487 72 487 104 c 2,65,66
 487 158 487 158 487 202 c 2,67,68
 487 233 487 233 467 252 c 128,-1,69
 447 271 447 271 411 271 c 0,70,71
 373 271 373 271 352 252 c 0,72,73
 330 232 330 232 330 202 c 2,74,75
 330 158 330 158 330 104 c 2,76,77
 330 72 330 72 352 53 c 0,78,79
 375 33 375 33 413 33 c 0,80,81
 450 33 450 33 469 53 c 0,63,64
EndSplineSet
EndChar

StartChar: ampersand
Encoding: 38 38 9
Width: 550
GlyphClass: 2
Flags: W
HStem: -16 43<136.708 311.236> 670 46<177.655 334.14>
VStem: 26 46<85.9258 243.788> 95 48<505.372 634.519> 453 47<171.376 298>
LayerCount: 2
Fore
SplineSet
251 716 m 0,0,1
 343 716 343 716 411 658 c 1,2,-1
 378 621 l 1,3,4
 313 670 313 670 252 670 c 0,5,6
 192 670 192 670 168 639 c 0,7,8
 143 607 143 607 143 572 c 0,9,10
 143 522 143 522 218 425 c 2,11,-1
 424 156 l 1,12,13
 453 208 453 208 453 298 c 1,14,-1
 500 298 l 1,15,16
 500 189 500 189 456 118 c 1,17,-1
 558 -10 l 1,18,-1
 496 -10 l 1,19,-1
 427 79 l 1,20,21
 340 -16 340 -16 217 -16 c 0,22,23
 135 -16 135 -16 80 31 c 0,24,25
 26 77 26 77 26 160 c 0,26,27
 26 290 26 290 180 399 c 1,28,-1
 164 419 l 2,29,30
 95 510 95 510 95 572 c 0,31,32
 95 630 95 630 134.5 673 c 128,-1,33
 174 716 174 716 251 716 c 0,0,1
72 164 m 0,34,35
 72 97 72 97 116 62 c 128,-1,36
 160 27 160 27 218 27 c 0,37,38
 322 27 322 27 395 115 c 1,39,-1
 208 361 l 1,40,41
 72 270 72 270 72 164 c 0,34,35
EndSplineSet
EndChar

StartChar: quotesingle
Encoding: 39 39 10
Width: 550
GlyphClass: 2
Flags: W
HStem: 535 171<241 301>
VStem: 241 60<535 706>
LayerCount: 2
Fore
SplineSet
301 706 m 1,0,-1
 301 535 l 1,1,-1
 241 535 l 1,2,-1
 241 706 l 1,3,-1
 301 706 l 1,0,-1
EndSplineSet
EndChar

StartChar: parenleft
Encoding: 40 40 11
Width: 550
GlyphClass: 2
Flags: W
VStem: 216 46<-20.9473 626.379>
LayerCount: 2
Fore
SplineSet
262 81 m 2,0,1
 262 -12 262 -12 312 -61 c 0,2,3
 329 -77 329 -77 350 -88 c 2,4,5
 350 -88 350 -88 359 -92 c 1,6,-1
 339 -132 l 1,7,-1
 330 -128 l 2,8,9
 301 -114 301 -114 277 -90 c 0,10,11
 216 -29 216 -29 216 86 c 2,12,13
 216 86 216 86 216 527 c 2,14,15
 216 636 216 636 280 696 c 0,16,17
 302 716 302 716 327 731 c 2,18,19
 327 731 327 731 335 735 c 1,20,-1
 360 696 l 1,21,-1
 350 693 l 2,22,23
 330 683 330 683 313 667 c 0,24,25
 262 619 262 619 262 525 c 2,26,27
 262 525 262 525 262 81 c 2,0,1
EndSplineSet
EndChar

StartChar: parenright
Encoding: 41 41 12
Width: 589
GlyphClass: 2
Flags: W
VStem: 313.708 46<-20.5358 626.048>
LayerCount: 2
Fore
SplineSet
313.708007812 81 m 6,0,-1
 313.708007812 525 l 6,1,2
 313.708007812 617.750685114 313.708007812 617.750685114 262.42013203 667.156859721 c 4,3,4
 246.196178648 683.077662898 246.196178648 683.077662898 226.068898389 693.171452272 c 6,5,-1
 215.908954648 698.266643021 l 5,6,-1
 222.23556568 707.683058225 l 5,7,-1
 235.726776617 727.763136349 l 5,8,-1
 240.776426227 735.27894491 l 5,9,-1
 248.738840525 731.020580071 l 6,10,11
 274.60425984 717.187540486 274.60425984 717.187540486 295.596449401 697.262645829 c 4,12,13
 359.708007812 635.236599665 359.708007812 635.236599665 359.708007812 527 c 6,14,-1
 359.708007812 86 l 6,15,16
 359.708007812 -28.1144779337 359.708007812 -28.1144779337 298.23387513 -90.1047008798 c 4,17,18
 275.602150418 -113.274143623 275.602150418 -113.274143623 245.280915106 -127.641884035 c 6,19,-1
 236.441680766 -131.830361949 l 5,20,-1
 232.057630087 -123.061871659 l 5,21,-1
 221.049817587 -101.045270097 l 5,22,-1
 216.618415405 -92.182072598 l 5,23,-1
 225.466080813 -87.6690136632 l 6,24,25
 246.831040055 -76.7710744051 246.831040055 -76.7710744051 263.199325243 -60.8834284997 c 4,26,27
 313.708007812 -11.7778416626 313.708007812 -11.7778416626 313.708007812 81 c 6,0,-1
240.96875 696.428710938 m 1029,28,-1
EndSplineSet
EndChar

StartChar: asterisk
Encoding: 42 42 13
Width: 550
GlyphClass: 2
Flags: W
HStem: 415 289
VStem: 250 49<582 704>
LayerCount: 2
Fore
SplineSet
299 704 m 1,0,-1
 299 582 l 1,1,-1
 410 630 l 1,2,-1
 427 580 l 1,3,-1
 307 544 l 1,4,-1
 386 449 l 1,5,-1
 345 415 l 1,6,-1
 274 523 l 1,7,-1
 206 415 l 1,8,-1
 165 448 l 1,9,-1
 241 544 l 1,10,-1
 122 580 l 1,11,-1
 139 630 l 1,12,-1
 250 582 l 1,13,-1
 250 704 l 1,14,-1
 299 704 l 1,0,-1
EndSplineSet
EndChar

StartChar: plus
Encoding: 43 43 14
Width: 550
GlyphClass: 2
Flags: W
HStem: 251 44<65 253 296 484>
VStem: 253 43<55 251 295 488>
LayerCount: 2
Fore
SplineSet
296 295 m 1,0,-1
 484 295 l 1,1,-1
 484 251 l 1,2,-1
 296 251 l 1,3,-1
 296 55 l 5,4,-1
 253 55 l 5,5,-1
 253 251 l 1,6,-1
 65 251 l 1,7,-1
 65 295 l 1,8,-1
 253 295 l 1,9,-1
 253 488 l 1,10,-1
 296 488 l 1,11,-1
 296 295 l 1,0,-1
EndSplineSet
EndChar

StartChar: comma
Encoding: 44 44 15
Width: 550
GlyphClass: 2
Flags: W
HStem: -112 170<216.251 239.875>
VStem: 208 73<-4.8584 58>
LayerCount: 2
Fore
SplineSet
191.251138821 -112 m 1,0,-1
 216.251138821 -10 l 1,1,-1
 208 -10 l 1,2,-1
 208 58 l 1,3,-1
 281 58 l 1,4,-1
 281 -4.8583984375 l 1,5,-1
 239.875 -112 l 1,6,-1
 191.251138821 -112 l 1,0,-1
EndSplineSet
EndChar

StartChar: hyphen
Encoding: 45 45 16
Width: 550
GlyphClass: 2
Flags: W
HStem: 243 46<139 410>
VStem: 139 271<243 289>
LayerCount: 2
Fore
SplineSet
139 289 m 1,0,-1
 410 289 l 1,1,-1
 410 243 l 1,2,-1
 139 243 l 1,3,-1
 139 289 l 1,0,-1
EndSplineSet
EndChar

StartChar: period
Encoding: 46 46 17
Width: 550
GlyphClass: 2
Flags: W
HStem: -10 77<202 273>
VStem: 202 71<-10 67>
LayerCount: 2
Fore
SplineSet
202 -10 m 5,0,-1
 202 67 l 1,1,-1
 273 67 l 1,2,-1
 273 -10 l 5,3,-1
 202 -10 l 5,0,-1
EndSplineSet
EndChar

StartChar: slash
Encoding: 47 47 18
Width: 550
GlyphClass: 2
Flags: W
LayerCount: 2
Fore
SplineSet
32.6596908181 -27 m 1,0,-1
 467.232878233 724 l 5,1,-1
 517.381367009 724 l 5,2,-1
 80.7534600325 -27 l 1,3,-1
 32.6596908181 -27 l 1,0,-1
EndSplineSet
EndChar

StartChar: zero
Encoding: 48 48 19
Width: 550
GlyphClass: 2
Flags: W
HStem: -7 44<210.381 365.468> 654 47<206.941 365.196>
VStem: 72 47<122.937 565.396> 259 56<240 449> 454 47<125.5 566.417>
LayerCount: 2
Fore
SplineSet
259 449 m 1,0,-1
 315 449 l 1,1,-1
 315 240 l 1,2,-1
 259 240 l 1,3,-1
 259 449 l 1,0,-1
137 640 m 128,-1,5
 202 701 202 701 288 701 c 0,6,7
 369 701 369 701 435 643 c 128,-1,8
 501 585 501 585 501 474 c 2,9,10
 501 350 501 350 501 226 c 2,11,12
 501 112 501 112 435 52 c 0,13,14
 370 -7 370 -7 288 -7 c 0,15,16
 200 -7 200 -7 135 55 c 0,17,18
 72 115 72 115 72 226 c 2,19,20
 72 350 72 350 72 474 c 2,21,4
 72 579 72 579 137 640 c 128,-1,5
402 606 m 0,22,23
 346 654 346 654 289 654 c 0,24,25
 223 654 223 654 171 606 c 128,-1,26
 119 558 119 558 119 466 c 2,27,28
 119 327 119 327 119 208 c 2,29,30
 119 132 119 132 171 86 c 0,31,32
 227 37 227 37 289 37 c 0,33,34
 350 37 350 37 402 86 c 0,35,36
 454 134 454 134 454 214 c 2,37,38
 454 330 454 330 454 466 c 2,39,40
 454 561 454 561 402 606 c 0,22,23
EndSplineSet
EndChar

StartChar: one
Encoding: 49 49 20
Width: 570
GlyphClass: 2
Flags: W
HStem: 0 21G<276 321> 676 20G<241.868 321>
VStem: 276 45<0 640.934>
LayerCount: 2
Fore
SplineSet
286 0 m 1,0,-1
 276 0 l 1,1,2
 276 321.236328125 276 321.236328125 276 640.93359375 c 1,3,4
 198 593.537109375 198 593.537109375 120 560.251953125 c 1,5,6
 120 560.251953125 120 560.251953125 120 611.419921875 c 1,7,8
 201.245117188 645.170898438 201.245117188 645.170898438 282.490234375 696 c 5,9,-1
 321 696 l 5,10,11
 321 348 321 348 321 0 c 1,12,-1
 311 0 l 1,13,-1
 286 0 l 1,0,-1
EndSplineSet
EndChar

StartChar: two
Encoding: 50 50 21
Width: 590
GlyphClass: 2
Flags: W
HStem: 0 44<152.177 500> 655 44<208.723 392.697>
VStem: 98.3467 44.2959<554.071 591.709> 450 47<444.052 599.895>
LayerCount: 2
Fore
SplineSet
171.624023438 662.090820312 m 0,0,1
 225.420977618 699 225.420977618 699 296 699 c 0,2,3
 395.078125 699 395.078125 699 445.994140625 650.62109375 c 128,-1,4
 497 602.158203125 497 602.158203125 497 530.0703125 c 128,-1,5
 497 457.983398438 497 457.983398438 449.961914062 398.137695312 c 2,6,7
 301.754381334 225.526367188 301.754381334 225.526367188 152.176757812 44 c 1,8,-1
 500 44 l 1,9,10
 500 44 500 44 500 0 c 1,11,-1
 92 0 l 5,12,13
 92 0 92 0 92 37.5224609375 c 5,14,15
 246.619404561 232.012695312 246.619404561 232.012695312 412.995117188 420.270507812 c 2,16,17
 450 468.125976562 450 468.125976562 450 527.939453125 c 0,18,19
 450 583.020507812 450 583.020507812 412.018554688 618.959960938 c 0,20,21
 373.112700591 655 373.112700591 655 296 655 c 0,22,23
 241.729676943 655 241.729676943 655 199.284179688 627.34375 c 0,24,25
 160.485351562 599.763671875 160.485351562 599.763671875 145.508789062 553.897460938 c 2,26,27
 145.508789062 553.897460938 145.508789062 553.897460938 142.642578125 545.120117188 c 1,28,29
 142.642578125 545.120117188 142.642578125 545.120117188 98.3466796875 555.750976562 c 1,30,31
 98.3466796875 555.750976562 98.3466796875 555.750976562 101.4296875 565.905273438 c 2,32,33
 119.423828125 625.182617188 119.423828125 625.182617188 171.624023438 662.090820312 c 0,0,1
EndSplineSet
EndChar

StartChar: three
Encoding: 51 51 22
Width: 550
GlyphClass: 2
Flags: W
HStem: -6 41<190.701 376> 339 44<248 385.955> 661 41<200.92 376.112>
VStem: 90 45<84.4263 120.089> 445 46<438.541 594.957> 457 45<106.779 276.894>
LayerCount: 2
Fore
SplineSet
473 300 m 0,0,1
 502 247 502 247 502 193 c 0,2,3
 502 102 502 102 444 48 c 128,-1,4
 386 -6 386 -6 277 -6 c 0,5,6
 129 -6 129 -6 93 108 c 2,7,8
 93 108 93 108 90 119 c 0,9,10
 90 119 90 119 135 126 c 1,11,12
 135 126 135 126 137 118 c 2,13,14
 151 80 151 80 185 58 c 0,15,16
 220 35 220 35 279 35 c 0,17,18
 361 35 361 35 410 77 c 0,19,20
 457 117 457 117 457 190 c 0,21,22
 457 261 457 261 417 300 c 128,-1,23
 377 339 377 339 307 339 c 2,24,-1
 260 339 l 1,25,-1
 248 339 l 1,26,-1
 248 383 l 1,27,-1
 260 383 l 1,28,-1
 298 383 l 2,29,30
 366 383 366 383 406 419 c 0,31,32
 445 454 445 454 445 517 c 0,33,34
 445 578 445 578 404 620 c 0,35,36
 364 661 364 661 284 661 c 0,37,38
 235 661 235 661 194 637 c 0,39,40
 156 615 156 615 142 573 c 2,41,42
 142 573 142 573 140 564 c 0,43,44
 140 564 140 564 96 574 c 1,45,46
 96 574 96 574 99 584 c 2,47,48
 119 640 119 640 166 671 c 128,-1,49
 213 702 213 702 286 702 c 0,50,51
 388 702 388 702 440 648 c 0,52,53
 491 595 491 595 491 518 c 0,54,55
 491 474 491 474 470 429 c 0,56,57
 459 405 459 405 432 383 c 0,58,59
 416 370 416 370 397 362 c 1,60,61
 449 344 449 344 473 300 c 0,0,1
EndSplineSet
EndChar

StartChar: four
Encoding: 52 52 23
Width: 590
GlyphClass: 2
Flags: W
HStem: 0 21G<410 455> 111.788 42.7705<131.629 410 455 518> 676 20G<207.058 398.629>
VStem: 410 45<0 111.788 154.559 368.413>
LayerCount: 2
Fore
SplineSet
455 368.413085938 m 1,0,1
 455 368.413085938 455 368.413085938 455 154.55859375 c 1,2,-1
 518 154.55859375 l 1,3,4
 518 154.55859375 518 154.55859375 518 111.788085938 c 1,5,-1
 455 111.788085938 l 1,6,7
 455 111.788085938 455 111.788085938 455 0 c 1,8,9
 455 0 455 0 410 0 c 1,10,11
 410 0 410 0 410 111.788085938 c 1,12,-1
 162 111.788085938 l 4,13,14
 162 111.788085938 162 111.788085938 72 111.788085938 c 1,15,16
 72 111.788085938 72 111.788085938 72 145.961914062 c 1,17,18
 72 145.961914062 72 145.961914062 342.11639995 696 c 1,19,-1
 398.62890625 696 l 1,20,21
 398.62890625 696 398.62890625 696 131.62890625 154.55859375 c 1,22,-1
 410 154.55859375 l 1,23,24
 410 154.55859375 410 154.55859375 410 368.413085938 c 1,25,-1
 455 368.413085938 l 1,0,1
EndSplineSet
EndChar

StartChar: five
Encoding: 53 53 24
Width: 590
GlyphClass: 2
Flags: W
HStem: -6 41<198.024 383.025> 427 41<211.11 388.265> 652 44<150.999 471.999>
VStem: 107.999 43<418.625 652> 450.999 43<99.3421 366.143>
LayerCount: 2
Fore
SplineSet
471.999023438 652 m 17,0,-1
 150.999023438 652 l 1,1,-1
 150.999023438 418.625 l 1,2,3
 210.686523438 468 210.686523438 468 300.517473368 468 c 0,4,5
 404.657226562 468 404.657226562 468 449.328125 415.918945312 c 128,-1,6
 493.999023438 363.837890625 493.999023438 363.837890625 493.999023438 278.987304688 c 2,7,8
 493.999023438 238.294921875 493.999023438 238.294921875 493.999023438 187.909179688 c 2,9,10
 493.999023438 100.87109375 493.999023438 100.87109375 444.204101562 47.435546875 c 128,-1,11
 394.409179688 -6 394.409179688 -6 287.88783195 -6 c 0,12,13
 145.061188616 -6 145.061188616 -6 102.62890625 107.502929688 c 2,14,15
 102.62890625 107.502929688 102.62890625 107.502929688 99 117.209960938 c 9,16,17
 99 117.209960938 99 117.209960938 139.002929688 130.543945312 c 17,18,19
 142 122 142 122 142.375 121.483398438 c 2,20,21
 157.22525892 81.581660164 157.22525892 81.581660164 193.090820312 58.2919921875 c 0,22,23
 230.43552138 35 230.43552138 35 291.33227961 35 c 0,24,25
 370.31687301 35 370.31687301 35 410.848632812 74.9677734375 c 0,26,27
 450.999023438 115.030273438 450.999023438 115.030273438 450.999023438 178.34375 c 2,28,29
 450.999023438 235.875976562 450.999023438 235.875976562 450.999023438 283.65625 c 2,30,31
 450.999023438 348.116210938 450.999023438 348.116210938 413.805664062 387.55859375 c 128,-1,32
 376.612304688 427 376.612304688 427 291.33227961 427 c 0,33,34
 253.942306921 427 253.942306921 427 208.083007812 405.611328125 c 0,35,36
 166.810546875 384.263671875 166.810546875 384.263671875 148.237304688 357.33203125 c 2,37,-1
 145.249023438 353 l 5,38,-1
 107.999023438 353 l 5,39,-1
 107.999023438 696 l 1,40,-1
 471.999023438 696 l 9,41,42
 471.999023438 696 471.999023438 696 471.999023438 652 c 17,0,-1
EndSplineSet
EndChar

StartChar: six
Encoding: 54 54 25
Width: 590
GlyphClass: 2
Flags: W
HStem: -6 40<207.494 378.493> 353 41<209.07 382.816> 676 20G<325.9 390>
VStem: 94 43<105.254 282.417> 453 43<106.113 285.506>
LayerCount: 2
Fore
SplineSet
203 374 m 1,0,1
 243 394 243 394 297 394 c 0,2,3
 383 394 383 394 440 343 c 0,4,5
 496 293 496 293 496 205 c 0,6,7
 496 101 496 101 438 47 c 0,8,9
 381 -6 381 -6 298 -6 c 0,10,11
 205 -6 205 -6 150 45 c 0,12,13
 94 97 94 97 94 192 c 0,14,15
 94 255 94 255 120 305 c 0,16,-1
 337 696 l 5,17,-1
 390 696 l 5,18,-1
 203 374 l 1,0,1
453 204 m 0,19,20
 453 271 453 271 411 312 c 128,-1,21
 369 353 369 353 295 353 c 0,22,23
 222 353 222 353 179 310 c 0,24,25
 137 268 137 268 137 195 c 128,-1,26
 137 122 137 122 177 78 c 128,-1,27
 217 34 217 34 295 34 c 0,28,29
 366 34 366 34 409.817382812 77.103515625 c 0,30,31
 453 119.582607146 453 119.582607146 453 204 c 0,19,20
EndSplineSet
EndChar

StartChar: seven
Encoding: 55 55 26
Width: 590
GlyphClass: 2
Flags: W
HStem: -0 21G<165.387 354.993> 652 44<93 446.387>
LayerCount: 2
Fore
SplineSet
93 652 m 1,0,1
 93 652 93 652 93 696 c 1,2,-1
 496 696 l 1,3,4
 496 696 496 696 496 660.8671875 c 1,5,6
 496 660.8671875 496 660.8671875 213.985133031 -0 c 1,7,8
 213.985133031 -0 213.985133031 -0 165.38671875 -0 c 1,9,10
 165.38671875 -0 165.38671875 -0 446.38671875 652 c 1,11,-1
 93 652 l 1,0,1
EndSplineSet
EndChar

StartChar: eight
Encoding: 56 56 27
Width: 550
GlyphClass: 2
Flags: W
HStem: -6 43<206.926 382.118> 340 40<206.209 383.044> 661 39<211.024 378.707>
VStem: 80 43<117.172 264.958> 94 43<440.862 596.311> 453 43<439.775 595.963> 467 43<118.205 266.27>
LayerCount: 2
Fore
SplineSet
398 360 m 1,0,1
 450 339 450 339 480 291 c 128,-1,2
 510 243 510 243 510 188 c 0,3,4
 510 105 510 105 450 49 c 0,5,6
 391 -6 391 -6 295 -6 c 0,7,8
 200 -6 200 -6 140 49 c 128,-1,9
 80 104 80 104 80 188 c 0,10,11
 80 239 80 239 110 289 c 0,12,13
 139 337 139 337 189 359 c 1,14,15
 142 381 142 381 118 423 c 128,-1,16
 94 465 94 465 94 515 c 0,17,18
 94 592 94 592 149 646 c 128,-1,19
 204 700 204 700 296 700 c 128,-1,20
 388 700 388 700 442 647 c 128,-1,21
 496 594 496 594 496 515 c 0,22,23
 496 408 496 408 398 360 c 1,0,1
409 622 m 0,24,25
 361 661 361 661 295 661 c 128,-1,26
 229 661 229 661 181 622 c 0,27,28
 137 586 137 586 137 517 c 0,29,30
 137 452 137 452 181 416 c 128,-1,31
 225 380 225 380 295 380 c 0,32,33
 362 380 362 380 409 415 c 0,34,35
 453 448 453 448 453 517 c 128,-1,36
 453 586 453 586 409 622 c 0,24,25
295 37 m 128,-1,38
 368 37 368 37 417.5 84 c 128,-1,39
 467 131 467 131 467 193 c 128,-1,40
 467 255 467 255 418 297.5 c 128,-1,41
 369 340 369 340 294 340 c 128,-1,42
 219 340 219 340 171 296.5 c 128,-1,43
 123 253 123 253 123 191 c 128,-1,44
 123 129 123 129 172.5 83 c 128,-1,37
 222 37 222 37 295 37 c 128,-1,38
EndSplineSet
EndChar

StartChar: nine
Encoding: 57 57 28
Width: 590
GlyphClass: 2
Flags: W
HStem: -0 21G<199.755 361.467> 302 41<209.498 381.811> 663 39<213.285 380.09>
VStem: 94 43<414.31 589.937> 453 43<413.224 590.654>
LayerCount: 2
Fore
SplineSet
385.936523438 319.463867188 m 1,0,1
 342.603543134 302 342.603543134 302 292.718309859 302 c 0,2,3
 207.028320312 302 207.028320312 302 150.514648438 354.043945312 c 128,-1,4
 94 406.087890625 94 406.087890625 94 502.541992188 c 128,-1,5
 94 598.99609375 94 598.99609375 152.068359375 650.498046875 c 128,-1,6
 210.13671875 702 210.13671875 702 299.681152344 702 c 128,-1,7
 389.225585938 702 389.225585938 702 442.672851562 648.500976562 c 128,-1,8
 496 595.123046875 496 595.123046875 496 503.694335938 c 0,9,10
 496 438.240080529 496 438.240080529 469.9453125 391.446289062 c 1,11,12
 469.9453125 391.446289062 469.9453125 391.446289062 252.98815746 0 c 5,13,14
 252.98815746 0 252.98815746 0 199.754882812 -0 c 5,15,-1
 385.936523438 319.463867188 l 1,0,1
137 502.483398438 m 128,-1,17
 137 428.345703125 137 428.345703125 179.22265625 385.58203125 c 0,18,19
 222.291180678 343 222.291180678 343 295.551482724 343 c 128,-1,20
 368.811784771 343 368.811784771 343 411.349609375 385.657226562 c 0,21,22
 453 428.314453125 453 428.314453125 453 501.060546875 c 128,-1,23
 453 573.986328125 453 573.986328125 411.937555018 618.493164062 c 128,-1,24
 370.875110035 663 370.875110035 663 298.257090394 663 c 128,-1,25
 225.639070753 663 225.639070753 663 180.645507812 619.854492188 c 0,26,16
 137 576.622070312 137 576.622070312 137 502.483398438 c 128,-1,17
EndSplineSet
EndChar

StartChar: colon
Encoding: 58 58 29
Width: 550
GlyphClass: 2
Flags: W
HStem: -10 77<202 273> 310 77<202 273>
VStem: 202 71<-10 67 310 387>
LayerCount: 2
Fore
SplineSet
202 310 m 1,0,-1
 202 387 l 1,1,-1
 273 387 l 1,2,-1
 273 310 l 1,3,-1
 202 310 l 1,0,-1
202 -10 m 1,4,-1
 202 67 l 1,5,-1
 273 67 l 1,6,-1
 273 -10 l 1,7,-1
 202 -10 l 1,4,-1
EndSplineSet
EndChar

StartChar: semicolon
Encoding: 59 59 30
Width: 550
GlyphClass: 2
Flags: W
HStem: 315 67<208 269>
VStem: 208 73<-4.8584 58> 208 61<315 382>
LayerCount: 2
Fore
SplineSet
191.251138821 -112 m 1,0,-1
 216.251138821 -10 l 1,1,-1
 208 -10 l 1,2,-1
 208 58 l 1,3,-1
 281 58 l 1,4,-1
 281 -4.8583984375 l 1,5,-1
 239.875 -112 l 1,6,-1
 191.251138821 -112 l 1,0,-1
208 315 m 1,7,-1
 208 382 l 1,8,-1
 269 382 l 1,9,-1
 269 315 l 1,10,-1
 208 315 l 1,7,-1
EndSplineSet
EndChar

StartChar: less
Encoding: 60 60 31
Width: 550
GlyphClass: 2
Flags: W
LayerCount: 2
Fore
SplineSet
482 423.402100122 m 5,0,-1
 128.604156255 272.083554562 l 1,1,-1
 484 122.644870939 l 1,2,-1
 484 72.7630901928 l 1,3,-1
 65 254.434769391 l 1,4,-1
 65 291.582466837 l 1,5,-1
 482 471.197076409 l 5,6,-1
 482 423.402100122 l 5,0,-1
EndSplineSet
EndChar

StartChar: equal
Encoding: 61 61 32
Width: 550
GlyphClass: 2
Flags: W
HStem: 152 44<65 484> 321 43<65 484>
LayerCount: 2
Fore
SplineSet
65 364 m 1,0,-1
 484 364 l 1,1,-1
 484 321 l 1,2,-1
 65 321 l 1,3,-1
 65 364 l 1,0,-1
65 196 m 1,4,-1
 484 196 l 1,5,-1
 484 152 l 1,6,-1
 65 152 l 1,7,-1
 65 196 l 1,4,-1
EndSplineSet
EndChar

StartChar: greater
Encoding: 62 62 33
Width: 550
GlyphClass: 2
Flags: W
LayerCount: 2
Fore
SplineSet
67 471.197076409 m 1,0,-1
 484 291.582466837 l 1,1,-1
 484 254.434769391 l 1,2,-1
 65 72.7630901928 l 1,3,-1
 65 122.644870939 l 1,4,-1
 420.395843745 272.083554562 l 1,5,-1
 67 423.402100122 l 1,6,-1
 67 471.197076409 l 1,0,-1
EndSplineSet
EndChar

StartChar: question
Encoding: 63 63 34
Width: 550
GlyphClass: 2
Flags: W
HStem: -10 63<251 309> 670 42<205.37 360.625>
VStem: 251 58<-10 53> 255 45<139 289.344> 421 44<461.409 606.572>
LayerCount: 2
Fore
SplineSet
281 712 m 0,0,1
 362.078452684 712 362.078452684 712 413.495091997 661.64349758 c 128,-1,2
 465 611.200546443 465 611.200546443 465 534 c 0,3,4
 465 497.896492757 465 497.896492757 449.824346426 463.358798418 c 128,-1,5
 434.648692853 428.821104078 434.648692853 428.821104078 421.14765482 411.68517119 c 128,-1,6
 407.646616787 394.549238302 407.646616787 394.549238302 380.631750879 364.534125989 c 128,-1,7
 353.61688497 334.519013676 353.61688497 334.519013676 341.049241339 319.051144592 c 128,-1,8
 328.481597708 303.583275508 328.481597708 303.583275508 315.202692482 276.55121844 c 128,-1,9
 301.923787256 249.519161373 301.923787256 249.519161373 300 222.643970457 c 1,10,-1
 300 139 l 1,11,-1
 255 139 l 1,12,-1
 255 225 l 2,13,14
 255 268.822034785 255 268.822034785 279.012782155 307.973310038 c 128,-1,15
 303.02556431 347.12458529 303.02556431 347.12458529 344.71525562 390.847920079 c 0,16,17
 421 471.960812838 421 471.960812838 421 529 c 0,18,19
 421 582.501883297 421 582.501883297 386.093836422 626.250941649 c 128,-1,20
 351.187672843 670 351.187672843 670 277 670 c 0,21,22
 219.204634908 670 219.204634908 670 177.321593408 627.175766556 c 128,-1,23
 135.438551908 584.351533112 135.438551908 584.351533112 128.899143288 538.575672772 c 2,24,-1
 127.405372053 528.119274123 l 1,25,-1
 81.7859401644 537.2431605 l 1,26,-1
 84.2900455926 547.398699181 l 2,27,28
 103.087670735 623.63351226 103.087670735 623.63351226 157.186562567 667.752996861 c 128,-1,29
 211.441816417 712 211.441816417 712 281 712 c 0,0,1
251 -10 m 1,30,-1
 251 53 l 1,31,-1
 309 53 l 1,32,-1
 309 -10 l 1,33,-1
 251 -10 l 1,30,-1
EndSplineSet
EndChar

StartChar: at
Encoding: 64 64 35
Width: 738
GlyphClass: 2
Flags: W
HStem: -2 47<355.237 542.981> 457 51<369.56 533.546> 655 51<216.952 528.219>
VStem: 99 51<74.9173 589.555> 253 51<95.1211 389.332> 585.422 51.5781<0.106445 36.1875 81.4234 403.937 462.746 602.427>
LayerCount: 2
Fore
SplineSet
476 457 m 2,0,-1
 437 457 l 2,1,2
 385 457 385 457 344.5 414.149902344 c 0,3,4
 304 371 304 371 304 301 c 2,5,-1
 304 168.5 l 2,6,7
 304 45 304 45 452 45 c 0,8,9
 546 45 546 45 585.020507812 107.13671875 c 1,10,-1
 586 308.049804688 l 2,11,12
 586 386 586 386 550 421.5 c 128,-1,13
 514 457 514 457 476 457 c 2,0,-1
637 0 m 1,14,-1
 585.421875 0.1064453125 l 1,15,16
 585.421875 0.1064453125 585.421875 0.1064453125 585.924804688 36.1875 c 1,17,18
 548 -2 548 -2 490 -2 c 2,19,-1
 414 -2 l 2,20,21
 253 -2 253 -2 253 186 c 2,22,-1
 253 311 l 2,23,24
 253 384 253 384 302.59765625 445.752929688 c 0,25,26
 352 508 352 508 441 508 c 2,27,-1
 477 508 l 2,28,29
 546 508 546 508 585.849609375 462.74609375 c 1,30,31
 587 582 587 582 556.008789062 612.852539062 c 0,32,33
 513 655 513 655 436 655 c 2,34,-1
 306 655 l 2,35,36
 231 655 231 655 189.213867188 612.077148438 c 0,37,38
 150 571 150 571 150 520 c 2,39,-1
 150 161 l 2,40,41
 150 108 150 108 160.068359375 91.7197265625 c 0,42,43
 179 59 179 59 214.879882812 34.5 c 1,44,-1
 176.536132812 -8.888671875 l 1,45,46
 130 34 130 34 114.479492188 63.1650390625 c 0,47,48
 99 93 99 93 99 160 c 2,49,-1
 99 496 l 2,50,51
 99 589 99 589 156.366210938 647.504882812 c 0,52,53
 214 706 214 706 300 706 c 2,54,-1
 449 706 l 2,55,56
 534 706 534 706 595.875 646.259765625 c 0,57,58
 637 607 637 607 637 496 c 2,59,-1
 637 0 l 1,14,-1
EndSplineSet
EndChar

StartChar: A
Encoding: 65 65 36
Width: 590
GlyphClass: 2
Flags: W
HStem: 0 21G<14 93.6914 454.988 532.94 532.94 584.171> 175 35<139.46 456.63> 676 20G<143.182 325.806>
LayerCount: 2
Fore
SplineSet
63.19140625 -0 m 1,0,1
 63.19140625 -0 63.19140625 -0 14 0 c 1,2,3
 14 0 14 0 272.363764066 696 c 1,4,-1
 325.80609484 696 l 1,5,6
 325.80609484 696 325.80609484 696 584.170898438 0 c 5,7,8
 584.170898438 0 584.170898438 0 532.940429688 0 c 5,9,10
 532.940429688 0 532.940429688 0 472.940429688 175 c 1,11,-1
 124.19140625 175 l 1,12,13
 124.19140625 175 124.19140625 175 63.19140625 -0 c 1,0,1
139.459621109 210 m 1,14,-1
 456.630134628 210 l 1,15,-1
 299.013201757 642.252929688 l 1,16,-1
 139.459621109 210 l 1,14,-1
EndSplineSet
EndChar

StartChar: B
Encoding: 66 66 37
Width: 590
GlyphClass: 2
Flags: W
HStem: 0 44<101 431.474> 341 44<101 416.17> 652 44<101 417.519>
VStem: 55 46<44 341 385 652> 487 46<445.68 591.578> 500 49<107.506 270.201>
LayerCount: 2
Fore
SplineSet
493.4296875 51.8046875 m 128,-1,1
 438.026367188 0 438.026367188 0 340.2 0 c 2,2,-1
 55 0 l 1,3,4
 55 348 55 348 55 696 c 1,5,-1
 309 696 l 2,6,7
 421.723828125 696 421.723828125 696 477.96875 646.106445312 c 0,8,9
 533 596.211914062 533 596.211914062 533 519.083984375 c 0,10,11
 533 469.612304688 533 469.612304688 501.4609375 421.071289062 c 0,12,13
 477.33984375 383.9453125 477.33984375 383.9453125 433.286132812 365.264648438 c 1,14,15
 484.516601562 347.770507812 484.516601562 347.770507812 512.956054688 304.099609375 c 0,16,17
 549 248.75 549 248.75 549 187.609375 c 0,18,0
 549 103.764648438 549 103.764648438 493.4296875 51.8046875 c 128,-1,1
101 652 m 1,19,-1
 101 385 l 1,20,-1
 302 385 l 2,21,22
 389.893359375 385 389.893359375 385 441.705078125 421.0078125 c 0,23,24
 487 457.015625 487 457.015625 487 518.081054688 c 128,-1,25
 487 579.147460938 487 579.147460938 443.14453125 615.573242188 c 0,26,27
 393.345703125 652 393.345703125 652 302 652 c 2,28,-1
 101 652 l 1,19,-1
101 341 m 1,29,-1
 101 44 l 1,30,-1
 318.6 44 l 2,31,32
 414.512109375 44 414.512109375 44 458.51171875 83.326171875 c 0,33,34
 500 122.560546875 500 122.560546875 500 188.25390625 c 128,-1,35
 500 253.947265625 500 253.947265625 457.3515625 297.473632812 c 0,36,37
 411.84375 341 411.84375 341 316.2 341 c 2,38,-1
 101 341 l 1,29,-1
EndSplineSet
EndChar

StartChar: C
Encoding: 67 67 38
Width: 590
GlyphClass: 2
Flags: W
HStem: -7 43<200.57 421.672> 658 43<200.124 419.952>
VStem: 60 46<122.541 569.938>
LayerCount: 2
Fore
SplineSet
122.400390625 54.23046875 m 0,0,1
 60 115.426757812 60 115.426757812 60 226.40625 c 2,2,3
 60 350.310546875 60 350.310546875 60 474.401367188 c 2,4,5
 60 579.6640625 60 579.6640625 124.548828125 640.3984375 c 0,6,7
 189.700130522 701 189.700130522 701 317.536259712 701 c 0,8,9
 399.639425084 701 399.639425084 701 459.204101562 666.5390625 c 0,10,11
 515.73046875 631.995117188 515.73046875 631.995117188 544.013671875 573.333984375 c 2,12,13
 544.013671875 573.333984375 544.013671875 573.333984375 547.91796875 565.236328125 c 4,14,15
 547.91796875 565.236328125 547.91796875 565.236328125 509.642578125 541.541992188 c 5,16,17
 509.642578125 541.541992188 509.642578125 541.541992188 504.91015625 551.829101562 c 2,18,19
 483.150390625 599.133789062 483.150390625 599.133789062 436.298346177 628.54296875 c 0,20,21
 385.873954208 658 385.873954208 658 318.619222387 658 c 0,22,23
 211.438702575 658 211.438702575 658 157.435546875 609.846679688 c 0,24,25
 106 561.842773438 106 561.842773438 106 471.981445312 c 2,26,27
 106 347 106 347 106 222.018554688 c 2,28,29
 106 132.130859375 106 132.130859375 156.96875 84.1220703125 c 0,30,31
 210.38429458 36 210.38429458 36 321.868110412 36 c 0,32,33
 390.078895219 36 390.078895219 36 442.084960938 67.9072265625 c 0,34,35
 490.184570312 99.8154296875 490.184570312 99.8154296875 516.989257812 155.337890625 c 2,36,37
 516.989257812 155.337890625 516.989257812 155.337890625 521.08203125 163.817382812 c 0,38,39
 521.08203125 163.817382812 521.08203125 163.817382812 561.072265625 147.458007812 c 1,40,41
 561.072265625 147.458007812 561.072265625 147.458007812 557.248046875 138.19140625 c 2,42,43
 530.067382812 72.3310546875 530.067382812 72.3310546875 469.469726562 32.62890625 c 0,44,45
 406.321220181 -7 406.321220181 -7 321.868110412 -7 c 0,46,47
 185.237139811 -7 185.237139811 -7 122.400390625 54.23046875 c 0,0,1
EndSplineSet
EndChar

StartChar: D
Encoding: 68 68 39
Width: 590
GlyphClass: 2
Flags: W
HStem: -0 44<104 395.828> 652 44<104 396.718>
VStem: 57 47<44 652> 505 46<149.783 548.153>
LayerCount: 2
Fore
SplineSet
57 -0 m 1,0,1
 57 -0 57 -0 57 696 c 1,2,-1
 279 696 l 2,3,4
 465.36328125 696 465.36328125 696 526.053710938 569.873046875 c 0,5,6
 551 518.342773438 551 518.342773438 551 353.943359375 c 128,-1,7
 551 189.54296875 551 189.54296875 527.215820312 134.256835938 c 0,8,9
 495.844726562 62.0859375 495.844726562 62.0859375 436.686523438 31.04296875 c 0,10,11
 369.426550663 -0 369.426550663 -0 267 -0 c 2,12,-1
 57 -0 l 1,0,1
462.653320312 113.801757812 m 0,13,14
 505 170.310546875 505 170.310546875 505 273.452148438 c 2,15,16
 505 345.188476562 505 345.188476562 505 416.739257812 c 2,17,18
 505 545.41796875 505 545.41796875 450.868164062 598.744140625 c 0,19,20
 391.629202178 652 391.629202178 652 271 652 c 2,21,-1
 104 652 l 1,22,23
 104 652 104 652 104 44 c 1,24,-1
 271 44 l 2,25,26
 407.217388731 44 407.217388731 44 462.653320312 113.801757812 c 0,13,14
EndSplineSet
EndChar

StartChar: E
Encoding: 69 69 40
Width: 590
GlyphClass: 2
Flags: W
HStem: 0 44<131 549> 344 44<131 485> 652 44<131 521>
VStem: 84 47<44 344 388 652>
LayerCount: 2
Fore
SplineSet
549 0 m 5,0,-1
 84 0 l 1,1,2
 84 0 84 0 84 696 c 1,3,-1
 521 696 l 1,4,5
 521 696 521 696 521 652 c 1,6,-1
 131 652 l 1,7,-1
 131 388 l 1,8,-1
 485 388 l 1,9,-1
 485 344 l 1,10,-1
 131 344 l 1,11,-1
 131 44 l 1,12,-1
 549 44 l 5,13,14
 549 44 549 44 549 0 c 5,0,-1
EndSplineSet
EndChar

StartChar: F
Encoding: 70 70 41
Width: 590
GlyphClass: 2
Flags: W
HStem: 0 21G<88 135> 332 43<135 487> 652 44<135 533>
VStem: 88 47<0 332 375 652>
LayerCount: 2
Fore
SplineSet
487 332 m 1,0,-1
 135 332 l 1,1,-1
 135 0 l 1,2,-1
 88 0 l 1,3,4
 88 0 88 0 88 696 c 1,5,-1
 533 696 l 5,6,7
 533 696 533 696 533 652 c 5,8,-1
 135 652 l 1,9,-1
 135 375 l 1,10,-1
 487 375 l 1,11,-1
 487 332 l 1,0,-1
EndSplineSet
EndChar

StartChar: G
Encoding: 71 71 42
Width: 590
GlyphClass: 2
Flags: W
HStem: -7 32<194.675 392.813> 308 44<335.992 506> 658 43<177.996 395.697>
VStem: 38 46<117.939 569.631> 506 46<118.312 308>
LayerCount: 2
Fore
SplineSet
102.548828125 640.3984375 m 0,0,1
 167.662309301 701 167.662309301 701 295 701 c 0,2,3
 376.783041646 701 376.783041646 701 437.204101562 666.5390625 c 0,4,5
 493.73046875 631.995117188 493.73046875 631.995117188 522.013671875 573.333984375 c 2,6,7
 522.013671875 573.333984375 522.013671875 573.333984375 525.580078125 565.936523438 c 0,8,9
 525.580078125 565.936523438 525.580078125 565.936523438 486.805664062 541.186523438 c 1,10,11
 486.805664062 541.186523438 486.805664062 541.186523438 481.91015625 551.829101562 c 2,12,13
 460.150390625 599.133789062 460.150390625 599.133789062 412.220287894 628.54296875 c 0,14,15
 361.992502768 658 361.992502768 658 296.078740157 658 c 0,16,17
 189.31612174 658 189.31612174 658 135.435546875 609.678710938 c 0,18,19
 84 561.5078125 84 561.5078125 84 471.333007812 c 2,20,-1
 84 218 l 2,21,22
 84 126.220703125 84 126.220703125 135.970703125 75.6669921875 c 0,23,24
 190.425412156 25 190.425412156 25 296.078740157 25 c 0,25,26
 394.34838675 25 394.34838675 25 451.548828125 75.1904296875 c 0,27,28
 506 125.379882812 506 125.379882812 506 209 c 2,29,-1
 506 308 l 1,30,-1
 335.992125984 308 l 1,31,-1
 335.992125984 352 l 1,32,-1
 552 352 l 1,33,-1
 552 225.5234375 l 2,34,35
 552 117.280273438 552 117.280273438 485.424804688 55.0595703125 c 0,36,37
 418.000607468 -7 418.000607468 -7 295 -7 c 0,38,39
 164.295460138 -7 164.295460138 -7 100.900390625 54.716796875 c 0,40,41
 38 116.399414062 38 116.399414062 38 226.40625 c 2,42,43
 38 350.310546875 38 350.310546875 38 474.401367188 c 2,44,45
 38 579.6640625 38 579.6640625 102.548828125 640.3984375 c 0,0,1
EndSplineSet
EndChar

StartChar: H
Encoding: 72 72 43
Width: 590
GlyphClass: 2
Flags: W
HStem: 0 21G<46 92 499 545> 344 44<92 499> 676 20G<46 92 499 545>
VStem: 46 46<0 344 388 696> 499 46<0 344 388 696>
LayerCount: 2
Fore
SplineSet
92 388 m 1,0,-1
 499 388 l 1,1,-1
 499 696 l 1,2,-1
 545 696 l 1,3,4
 545 696 545 696 545 0 c 5,5,-1
 499 0 l 5,6,-1
 499 344 l 1,7,-1
 92 344 l 1,8,-1
 92 0 l 1,9,-1
 46 0 l 1,10,11
 46 0 46 0 46 696 c 1,12,-1
 92 696 l 1,13,-1
 92 388 l 1,0,-1
EndSplineSet
EndChar

StartChar: I
Encoding: 73 73 44
Width: 550
GlyphClass: 2
Flags: W
HStem: 0 33<222 262 308 348> 663 33<222 262 308 348>
VStem: 222 126<0 33 663 696>
LayerCount: 2
Fore
SplineSet
222 663 m 1,0,1
 222 663 222 663 222 696 c 1,2,-1
 348 696 l 1,3,4
 348 696 348 696 348 663 c 1,5,-1
 308 663 l 1,6,7
 308 663 308 663 308 33 c 1,8,-1
 348 33 l 1,9,10
 348 33 348 33 348 0 c 1,11,-1
 222 0 l 1,12,13
 222 0 222 0 222 33 c 1,14,-1
 262 33 l 1,15,16
 262 33 262 33 262 663 c 1,17,-1
 222 663 l 1,0,1
EndSplineSet
EndChar

StartChar: J
Encoding: 74 74 45
Width: 550
GlyphClass: 2
Flags: W
HStem: -6 45<136.77 338.063> 651 45<69 406>
VStem: 406 46<105.753 651>
LayerCount: 2
Fore
SplineSet
69 651 m 1,0,1
 69 652 69 652 69 696 c 1,2,-1
 452 696 l 1,3,4
 452 696 452 696 452 175 c 0,5,6
 452 -6 452 -6 230 -6 c 0,7,8
 133 -6 133 -6 72 47 c 2,9,10
 72 47 72 47 64 54 c 0,11,12
 64 54 64 54 92 89 c 1,13,14
 92 89 92 89 100 83 c 2,15,16
 159 39 159 39 234 39 c 0,17,18
 406 39 406 39 406 194 c 0,19,20
 406 194 406 194 406 651 c 1,21,-1
 69 651 l 1,0,1
EndSplineSet
EndChar

StartChar: K
Encoding: 75 75 46
Width: 590
GlyphClass: 2
Flags: W
HStem: 0 21G<82 128 462.431 533.145 533.145 590.068> 676 20G<82 128 313.551 558.391>
VStem: 82 46<0 166.576 238.205 696>
LayerCount: 2
Fore
SplineSet
499.102539062 696 m 1,0,-1
 558.390625 696 l 1,1,2
 558.390625 696 558.390625 696 334.79296875 404.848632812 c 1,3,4
 334.79296875 404.848632812 334.79296875 404.848632812 590.068359375 -0 c 1,5,6
 590.068359375 -0 590.068359375 -0 533.14453125 0 c 1,7,8
 533.14453125 0 533.14453125 0 295.522460938 365.481445312 c 1,9,10
 295.522460938 365.481445312 295.522460938 365.481445312 128 166.576171875 c 1,11,12
 128 166.576171875 128 166.576171875 128 0 c 1,13,-1
 82 0 l 1,14,15
 82 0 82 0 82 696 c 1,16,-1
 128 696 l 1,17,18
 128 696 128 696 128 238.205078125 c 1,19,20
 128 238.205078125 128 238.205078125 499.102539062 696 c 1,0,-1
EndSplineSet
EndChar

StartChar: L
Encoding: 76 76 47
Width: 590
GlyphClass: 2
Flags: W
HStem: 0 44<129.5 506.5> 676 20G<83.5 129.5>
VStem: 83.5 46<44 696>
LayerCount: 2
Fore
SplineSet
506.5 0 m 1,0,-1
 83.5 0 l 1,1,2
 83.5 0 83.5 0 83.5 696 c 1,3,-1
 129.5 696 l 1,4,5
 129.5 696 129.5 696 129.5 44 c 1,6,-1
 506.5 44 l 1,7,8
 506.5 44 506.5 44 506.5 0 c 1,0,-1
EndSplineSet
EndChar

StartChar: M
Encoding: 77 77 48
Width: 550
GlyphClass: 2
Flags: W
HStem: 0 21G<41 86 464 509> 676 20G<41 86 370 509>
VStem: 41 45<0 577> 464 45<0 576>
LayerCount: 2
Fore
SplineSet
86 577 m 1,0,1
 86 577 86 577 86 0 c 1,2,-1
 41 0 l 1,3,4
 41 0 41 0 41 696 c 5,5,-1
 86 696 l 5,6,7
 86 696 86 696 276 274 c 1,8,9
 276 274 276 274 464 696 c 1,10,11
 464 696 464 696 509 696 c 1,12,13
 509 696 509 696 509 0 c 1,14,-1
 464 0 l 1,15,16
 464 0 464 0 464 576 c 1,17,18
 464 576 464 576 294 208 c 1,19,20
 294 208 294 208 257 208 c 1,21,22
 257 208 257 208 86 577 c 1,0,1
EndSplineSet
EndChar

StartChar: N
Encoding: 78 78 49
Width: 590
GlyphClass: 2
Flags: W
HStem: 0 21G<67 113 477.094 522> 676 20G<67 124.911 476 522>
VStem: 67 46<0 624.147> 476 46<90.9043 696>
LayerCount: 2
Fore
SplineSet
476.5 90.904296875 m 1,0,1
 476.5 90.904296875 476.5 90.904296875 476.5 696 c 1,2,3
 476.5 696 476.5 696 522.5 696 c 1,4,5
 522.5 696 522.5 696 522.5 0 c 1,6,7
 522.5 0 522.5 0 477.59375 0 c 1,8,9
 477.59375 0 477.59375 0 113.5 624.147460938 c 1,10,11
 113.5 624.147460938 113.5 624.147460938 113.5 0 c 1,12,-1
 67.5 0 l 1,13,14
 67.5 0 67.5 0 67.5 696 c 1,15,16
 67.5 696 67.5 696 125.411132812 696 c 1,17,18
 125.411132812 696 125.411132812 696 476.5 90.904296875 c 1,0,1
EndSplineSet
EndChar

StartChar: O
Encoding: 79 79 50
Width: 590
GlyphClass: 2
Flags: W
HStem: -7 44<182.892 409.861> 656 45<181.771 409.39>
VStem: 40 47<125.81 565.927> 503 47<127.409 566.346>
LayerCount: 2
Fore
SplineSet
104.548828125 640.3984375 m 0,0,1
 169.67359375 701 169.67359375 701 297.16 701 c 0,2,3
 417.981835938 701 417.981835938 701 484.436523438 642.848632812 c 0,4,5
 550 584.697265625 550 584.697265625 550 474.401367188 c 2,6,7
 550 350.310546875 550 350.310546875 550 226.40625 c 2,8,9
 550 110.30078125 550 110.30078125 484.448242188 51.650390625 c 0,10,11
 418.009257812 -7 418.009257812 -7 297.16 -7 c 0,12,13
 166.3028125 -7 166.3028125 -7 102.900390625 54.716796875 c 0,14,15
 40 116.399414062 40 116.399414062 40 226.40625 c 2,16,17
 40 350.310546875 40 350.310546875 40 474.401367188 c 2,18,19
 40 579.6640625 40 579.6640625 104.548828125 640.3984375 c 0,0,1
451.01171875 606.84765625 m 0,20,21
 397 656 397 656 298.24 656 c 0,22,23
 191 656 191 656 138.98828125 606.84765625 c 0,24,25
 87 558 87 558 87 466 c 2,26,27
 87 327 87 327 87 208 c 2,28,29
 87 136 87 136 138.970703125 87.6669921875 c 0,30,31
 194 37 194 37 298.240234375 37 c 0,32,33
 399 37 399 37 451.063476562 87.2001953125 c 0,34,35
 503 137 503 137 503 214 c 2,36,37
 503 330 503 330 503 466 c 2,38,39
 503 560 503 560 451.01171875 606.84765625 c 0,20,21
EndSplineSet
EndChar

StartChar: P
Encoding: 80 80 51
Width: 590
GlyphClass: 2
Flags: W
HStem: 0 21G<63 110> 297 45<110 403.862> 652 44<110 399.424>
VStem: 63 47<0 297 342 652> 478 49<413.962 581.504>
LayerCount: 2
Fore
SplineSet
63 0 m 1,0,1
 63 0 63 0 63 696 c 1,2,-1
 288 696 l 2,3,4
 401.653320312 696 401.653320312 696 464.775390625 646.614257812 c 0,5,6
 527 597.229492188 527 597.229492188 527 493.0859375 c 0,7,8
 527 416.215820312 527 416.215820312 472.74609375 356.608398438 c 128,-1,9
 418.491210938 297 418.491210938 297 297.616210938 297 c 2,10,-1
 110 297 l 1,11,-1
 110 0 l 1,12,13
 110 0 110 0 63 0 c 1,0,1
110 652 m 1,14,-1
 110 342 l 1,15,-1
 291.606445312 342 l 2,16,17
 393.190429688 342 393.190429688 342 436.755859375 386.94921875 c 0,18,19
 478 431.899414062 478 431.899414062 478 496.03125 c 0,20,21
 478 572.002929688 478 572.002929688 430.142578125 612.001953125 c 0,22,23
 377.291992188 652 377.291992188 652 287 652 c 2,24,-1
 110 652 l 1,14,-1
EndSplineSet
EndChar

StartChar: Q
Encoding: 81 81 52
Width: 590
GlyphClass: 2
Flags: W
HStem: -7 44<182.817 410.263> 656 45<180.37 409.395>
VStem: 40 47<125.61 226.406 466 566.095> 503 47<126.098 226.406 466 566.497>
LayerCount: 2
Fore
SplineSet
375.026367188 134.442382812 m 4,0,-1
 437 76.5701023599 l 1,1,2
 437.909179688 75.720703125 437.909179688 75.720703125 437.909179688 75.720703125 c 1,3,4
 388 37 388 37 298.240234375 37 c 0,5,6
 194 37 194 37 138.970703125 87.6669921875 c 0,7,8
 87 136 87 136 87 208 c 0,9,10
 87 327 87 327 87 466 c 0,11,12
 87 558 87 558 138.98828125 606.84765625 c 0,13,14
 191 656 191 656 298.24 656 c 0,15,16
 397 656 397 656 451.01171875 606.84765625 c 0,17,18
 503 560 503 560 503 466 c 0,19,20
 503 330 503 330 503 214 c 0,21,22
 503 153 503 153 470.352539062 109 c 1,23,24
 406.352539062 168.877929688 406.352539062 168.877929688 406.352539062 168.877929688 c 129,-1,25
 406.352539062 168.877929688 406.352539062 168.877929688 375.026367188 134.442382812 c 4,0,-1
473.194815801 42.770622873 m 1025,26,-1
506 75.82421875 m 1,27,28
 550 133 550 133 550 226.40625 c 0,29,30
 550 350 550 350 550 474.401367188 c 0,31,32
 550 585 550 585 484.436523438 642.848632812 c 0,33,34
 418 701 418 701 297.16 701 c 0,35,36
 170 701 170 701 104.548828125 640.3984375 c 0,37,38
 40 580 40 580 40 474.401367188 c 0,39,40
 40 350 40 350 40 226.40625 c 0,41,42
 40 116 40 116 102.900390625 54.716796875 c 0,43,44
 166 -7 166 -7 297.16 -7 c 0,45,46
 408 -7 408 -7 473.194335938 42.7705078125 c 1,47,48
 526.146484375 -6.6767578125 526.146484375 -6.6767578125 526.146484375 -6.6767578125 c 1,49,50
 557.46875 27.7607421875 557.46875 27.7607421875 557.46875 27.7607421875 c 1,51,52
 506 75.82421875 506 75.82421875 506 75.82421875 c 1,27,28
506.761068165 75.7104427266 m 1025,53,-1
EndSplineSet
EndChar

StartChar: R
Encoding: 82 82 53
Width: 590
GlyphClass: 2
Flags: W
HStem: 0 21G<76 122 449.301 540.312> 321 45<122 300.86> 652 44<122 422.639>
VStem: 76 46<0 321 366 652> 495 48<433.779 591.932>
LayerCount: 2
Fore
SplineSet
540.3125 0 m 1,0,1
 540.3125 0 540.3125 0 488.860351562 0 c 1,2,-1
 300.860351562 321 l 1,3,-1
 122 321 l 1,4,-1
 122 0 l 1,5,6
 122 0 122 0 76 0 c 1,7,8
 76 0 76 0 76 696 c 1,9,-1
 316 696 l 2,10,11
 428.6796875 696 428.6796875 696 485.83984375 648.66796875 c 128,-1,12
 543 601.3359375 543 601.3359375 543 516.16796875 c 0,13,14
 543 437.520507812 543 437.520507812 492.348632812 384.180664062 c 0,15,16
 446.1328125 335.512695312 446.1328125 335.512695312 358.289309447 324.497070312 c 1,17,18
 358.289309447 324.497070312 358.289309447 324.497070312 540.3125 0 c 1,0,1
122 652 m 1,19,-1
 122 366 l 1,20,-1
 304 366 l 2,21,22
 395.108993355 366 395.108993355 366 447.661132812 404.946289062 c 0,23,24
 495 443.893554688 495 443.893554688 495 514.073242188 c 128,-1,25
 495 584.252929688 495 584.252929688 446.385742188 618.125976562 c 0,26,27
 391.97302667 652 391.97302667 652 307 652 c 2,28,-1
 122 652 l 1,19,-1
EndSplineSet
EndChar

StartChar: S
Encoding: 83 83 54
Width: 590
GlyphClass: 2
Flags: W
HStem: -6 42.791<151.447 410.6> 658 44<195.861 432.203>
VStem: 74.0205 47<450.239 593.365> 496.021 47<106.4 257.855>
LayerCount: 2
Fore
SplineSet
477.258789062 44.5595703125 m 0,0,1
 410.572624223 -6 410.572624223 -6 286.900859346 -6 c 0,2,3
 145.056640625 -6 145.056640625 -6 42.5810546875 58.779296875 c 2,4,5
 42.5810546875 58.779296875 42.5810546875 58.779296875 34 64.2041015625 c 1,6,7
 34 64.2041015625 34 64.2041015625 60.2158203125 101.59765625 c 1,8,9
 60.2158203125 101.59765625 60.2158203125 101.59765625 68.37890625 96.5458984375 c 2,10,11
 165.809611738 36.791015625 165.809611738 36.791015625 289.061488687 36.791015625 c 0,12,13
 383.939280616 36.791015625 383.939280616 36.791015625 441.432617188 74.3193359375 c 0,14,15
 496.020507812 111.846679688 496.020507812 111.846679688 496.020507812 180.725585938 c 0,16,17
 496.020507812 214.553710938 496.020507812 214.553710938 483.388671875 240.94140625 c 128,-1,18
 470.7578125 267.330078125 470.7578125 267.330078125 454.157226562 282.578125 c 128,-1,19
 437.3828125 297.985351562 437.3828125 297.985351562 406.230265646 311.119140625 c 0,20,21
 373.924215024 324.252929688 373.924215024 324.252929688 351.792534209 329.9453125 c 128,-1,22
 329.660853394 335.637695312 329.660853394 335.637695312 291.306517611 342.932617188 c 128,-1,23
 252.951126834 350.2265625 252.951126834 350.2265625 228.10494441 356.688476562 c 128,-1,24
 203.258761987 363.150390625 203.258761987 363.150390625 169.093810536 376.763671875 c 0,25,26
 136.346679688 390.376953125 136.346679688 390.376953125 118.057617188 407.639648438 c 128,-1,27
 99.6630859375 425.002929688 99.6630859375 425.002929688 86.876953125 452.981445312 c 128,-1,28
 74.0205078125 481.114257812 74.0205078125 481.114257812 74.0205078125 518.192382812 c 0,29,30
 74.0205078125 601.3515625 74.0205078125 601.3515625 132.629882812 651.67578125 c 0,31,32
 194.231171523 702 194.231171523 702 306.767466336 702 c 128,-1,33
 419.303761149 702 419.303761149 702 505.8125 654.77734375 c 2,34,35
 505.8125 654.77734375 505.8125 654.77734375 514.420898438 650.063476562 c 0,36,37
 514.420898438 650.063476562 514.420898438 650.063476562 499.778409717 622 c 4,38,39
 499.778409717 622 499.778409717 622 493.232421875 609.454101562 c 1,40,41
 493.232421875 609.454101562 493.232421875 609.454101562 484.3515625 614.15625 c 2,42,43
 399.809567322 658 399.809567322 658 304.185894072 658 c 0,44,45
 226.606851801 658 226.606851801 658 172.488783787 623.459960938 c 0,46,47
 121.020507812 588.918945312 121.020507812 588.918945312 121.020507812 515.297851562 c 0,48,49
 121.020507812 489.439453125 121.020507812 489.439453125 131.610351562 468.87890625 c 128,-1,50
 142.200195312 448.319335938 142.200195312 448.319335938 154.49057258 436.86328125 c 0,51,52
 167.582002994 425.53515625 167.582002994 425.53515625 199.293036551 413.857421875 c 128,-1,53
 231.003015113 402.178710938 231.003015113 402.178710938 247.872381889 397.916015625 c 128,-1,54
 264.741748666 393.65234375 264.741748666 393.65234375 308.602102285 384.40625 c 128,-1,55
 352.462455904 375.16015625 352.462455904 375.16015625 380.027359915 367.234375 c 128,-1,56
 407.591208932 359.30859375 407.591208932 359.30859375 442.877929688 343.240234375 c 0,57,58
 477.017578125 327.170898438 477.017578125 327.170898438 496.280273438 307.43359375 c 128,-1,59
 515.581054688 287.65625 515.581054688 287.65625 529.2890625 254.899414062 c 128,-1,60
 543.020507812 222.087890625 543.020507812 222.087890625 543.020507812 180.385742188 c 0,61,62
 543.020507812 95.1201171875 543.020507812 95.1201171875 477.258789062 44.5595703125 c 0,0,1
EndSplineSet
EndChar

StartChar: T
Encoding: 84 84 55
Width: 590
GlyphClass: 2
Flags: W
HStem: 0 21G<272.19 321.069> 652 44<49 272.19 321.069 541>
VStem: 272.19 48.8793<0 652>
LayerCount: 2
Fore
SplineSet
272.189655172 0 m 5,0,1
 272.189655172 0 272.189655172 0 272.189655172 652 c 1,2,-1
 49 652 l 1,3,4
 49 652 49 652 49 696 c 1,5,-1
 541 696 l 1,6,7
 541 696 541 696 541 652 c 1,8,-1
 321.068965517 652 l 1,9,10
 321.068965517 652 321.068965517 652 321.068965517 0 c 5,11,-1
 272.189655172 0 l 5,0,1
EndSplineSet
EndChar

StartChar: U
Encoding: 85 85 56
Width: 590
GlyphClass: 2
Flags: W
HStem: -7 44<188.947 401.697> 676 20G<51 97 492 539>
VStem: 51 46<131.993 696> 492 47<125.674 696>
LayerCount: 2
Fore
SplineSet
539 217.610351562 m 2,0,1
 539 114.359375 539 114.359375 475.509765625 53.6455078125 c 0,2,3
 411.484751919 -7 411.484751919 -7 295.530050713 -7 c 128,-1,4
 179.576411732 -7 179.576411732 -7 114.959960938 54.6474609375 c 0,5,6
 51 116.487304688 51 116.487304688 51 227.333007812 c 2,7,8
 51 458.42578125 51 458.42578125 51 696 c 5,9,-1
 97 696 l 5,10,11
 97 464.934570312 97 464.934570312 97 239.84375 c 2,12,13
 97 143.5625 97 143.5625 145.74609375 90.28125 c 0,14,15
 196.551843476 37 196.551843476 37 294.042934485 37 c 128,-1,16
 391.535087719 37 391.535087719 37 442.796875 86.43359375 c 0,17,18
 492 136.024414062 492 136.024414062 492 229.16796875 c 2,19,20
 492 459.75390625 492 459.75390625 492 696 c 1,21,-1
 539 696 l 1,22,23
 539 453.698242188 539 453.698242188 539 217.610351562 c 2,0,1
EndSplineSet
EndChar

StartChar: V
Encoding: 86 86 57
Width: 590
GlyphClass: 2
Flags: W
HStem: -0 21G<275.565 326.172> 676 20G<43 88.9658 88.9658 159.283 403.69 554.227>
LayerCount: 2
Fore
SplineSet
321.66146626 0 m 1,0,1
 321.66146626 0 321.66146626 0 275.56509624 -0 c 1,2,3
 275.56509624 -0 275.56509624 -0 43 696 c 1,4,5
 43 696 43 696 88.9658203125 696 c 1,6,7
 88.9658203125 696 88.9658203125 696 299.129891225 55.9853515625 c 1,8,9
 299.129891225 55.9853515625 299.129891225 55.9853515625 508.25 696 c 1,10,-1
 554.2265625 696 l 1,11,12
 554.2265625 696 554.2265625 696 330.683388097 27 c 0,13,14
 330.683388097 27 330.683388097 27 321.66146626 0 c 1,0,1
EndSplineSet
EndChar

StartChar: W
Encoding: 87 87 58
Width: 550
GlyphClass: 2
Flags: W
HStem: 0 21G<86.5 202 422.5 505> 676 20G<3.5 48.5 467 546.5>
LayerCount: 2
Fore
SplineSet
501.5 696 m 1,0,-1
 546.5 696 l 1,1,2
 546.5 696 546.5 696 463.5 0 c 1,3,4
 463.5 0 463.5 0 422.5 0 c 1,5,6
 422.5 0 422.5 0 275.5 419 c 1,7,8
 275.5 419 275.5 419 128.5 0 c 1,9,10
 128.5 0 128.5 0 86.5 0 c 1,11,12
 86.5 0 86.5 0 3.5 696 c 1,13,-1
 48.5 696 l 1,14,15
 48.5 696 48.5 696 117.5 93 c 1,16,17
 117.5 93 117.5 93 254.5 481 c 1,18,19
 254.5 481 254.5 481 297.5 481 c 1,20,21
 297.5 481 297.5 481 431.5 96 c 1,22,23
 431.5 102 431.5 102 432.5 102 c 0,24,25
 432.5 102 432.5 102 501.5 696 c 1,0,-1
EndSplineSet
EndChar

StartChar: X
Encoding: 88 88 59
Width: 590
GlyphClass: 2
Flags: W
HStem: -0 21G<48 201.455 443.75 504.923 504.923 557.222> 676 20G<63.1895 115.357 115.357 169.067 396.238 542.032>
LayerCount: 2
Fore
SplineSet
557.221679688 -0 m 1,0,1
 557.221679688 -0 557.221679688 -0 504.922851562 -0 c 1,2,3
 504.922851562 -0 504.922851562 -0 302.611367309 323.43359375 c 1,4,5
 302.611367309 323.43359375 302.611367309 323.43359375 100.298828125 0 c 1,6,7
 100.298828125 0 100.298828125 0 48 -0 c 1,8,9
 48 -0 48 -0 274.943679261 356.80078125 c 1,10,11
 274.943679261 356.80078125 274.943679261 356.80078125 63.189453125 696 c 1,12,-1
 115.357421875 696 l 1,13,14
 115.357421875 696 115.357421875 696 302.611367309 391.860351562 c 1,15,16
 302.611367309 391.860351562 302.611367309 391.860351562 489.864257812 696 c 1,17,18
 489.864257812 696 489.864257812 696 542.032226562 696 c 1,19,20
 542.032226562 696 542.032226562 696 330.279055358 356.80078125 c 1,21,22
 330.279055358 356.80078125 330.279055358 356.80078125 557.221679688 -0 c 1,0,1
EndSplineSet
EndChar

StartChar: Y
Encoding: 89 89 60
Width: 590
GlyphClass: 2
Flags: W
HStem: 0 21G<271.128 319.997> 676 20G<48.6758 98.1484 98.1484 159.902 394.476 541.324>
VStem: 271.128 48.8691<0 288.307>
LayerCount: 2
Fore
SplineSet
492.872070312 696 m 5,0,1
 492.872070312 696 492.872070312 696 541.32421875 696 c 5,2,3
 541.32421875 696 541.32421875 696 319.997070312 288.31640625 c 5,4,5
 319.997070312 288.31640625 319.997070312 288.31640625 319.997070312 0 c 5,6,-1
 271.127929688 0 l 5,7,8
 271.127929688 0 271.127929688 0 271.127929688 288.306640625 c 5,9,10
 271.127929688 288.306640625 271.127929688 288.306640625 48.67578125 696 c 5,11,-1
 98.1484375 696 l 5,12,13
 98.1484375 696 98.1484375 696 296.080078125 327.0859375 c 5,14,15
 296.080078125 327.0859375 296.080078125 327.0859375 492.872070312 696 c 5,0,1
EndSplineSet
EndChar

StartChar: Z
Encoding: 90 90 61
Width: 590
GlyphClass: 2
Flags: W
HStem: 0 44<122.61 522> 652 44<88 465.366>
LayerCount: 2
Fore
SplineSet
66 0 m 1,0,1
 66 0 66 0 66 36.923828125 c 1,2,3
 66 36.923828125 66 36.923828125 465.366210938 652 c 1,4,-1
 88 652 l 1,5,6
 88 652 88 652 88 696 c 1,7,-1
 521 696 l 1,8,9
 521 696 521 696 521 659.08203125 c 1,10,11
 521 659.08203125 521 659.08203125 122.610351562 44 c 1,12,-1
 522 44 l 1,13,14
 522 44 522 44 522 0 c 1,15,-1
 66 0 l 1,0,1
EndSplineSet
EndChar

StartChar: bracketleft
Encoding: 91 91 62
Width: 550
GlyphClass: 2
Flags: W
HStem: -131 43<248 349> 692 44<248 349>
VStem: 201 148<-131 -88 692 736> 201 47<-88 692>
LayerCount: 2
Fore
SplineSet
201 -131 m 5,0,-1
 201 736 l 5,1,-1
 349 736 l 5,2,-1
 349 692 l 5,3,-1
 248 692 l 5,4,-1
 248 -88 l 5,5,-1
 349 -88 l 5,6,-1
 349 -98 l 5,7,-1
 349 -121 l 5,8,-1
 349 -131 l 5,9,-1
 201 -131 l 5,0,-1
EndSplineSet
EndChar

StartChar: backslash
Encoding: 92 92 63
Width: 550
GlyphClass: 2
Flags: W
LayerCount: 2
Fore
SplineSet
469.246539967 -27 m 5,0,-1
 32.6186329907 724 l 5,1,-1
 82.7671217674 724 l 5,2,-1
 517.340309182 -27 l 5,3,-1
 469.246539967 -27 l 5,0,-1
EndSplineSet
EndChar

StartChar: bracketright
Encoding: 93 93 64
Width: 550
GlyphClass: 2
Flags: W
HStem: -131 43<201 302> 692 44<201 302>
VStem: 201 147<-131 -88 692 736> 302 46<-88 692>
LayerCount: 2
Fore
SplineSet
201 -88 m 5,0,-1
 302 -88 l 1,1,-1
 302 692 l 1,2,-1
 201 692 l 1,3,-1
 201 736 l 1,4,-1
 348 736 l 1,5,-1
 348 -131 l 1,6,-1
 201 -131 l 5,7,-1
 201 -88 l 5,0,-1
EndSplineSet
EndChar

StartChar: asciicircum
Encoding: 94 94 65
Width: 550
GlyphClass: 2
Flags: W
HStem: 682 20G<248.755 303.201>
LayerCount: 2
Fore
SplineSet
408.401798228 327 m 1,0,-1
 275.094356508 638.368096019 l 1,1,-1
 143.651203771 325 l 1,2,-1
 93.7548502934 325 l 1,3,-1
 257.438323683 702 l 1,4,-1
 294.580921338 702 l 1,5,-1
 456.200639648 327 l 1,6,-1
 408.401798228 327 l 1,0,-1
EndSplineSet
EndChar

StartChar: underscore
Encoding: 95 95 66
Width: 550
GlyphClass: 2
Flags: W
HStem: -106 46<20 530>
LayerCount: 2
Fore
SplineSet
20 -60 m 5,0,-1
 530 -60 l 5,1,-1
 530 -106 l 5,2,-1
 20 -106 l 5,3,-1
 20 -60 l 5,0,-1
EndSplineSet
EndChar

StartChar: grave
Encoding: 96 96 67
Width: 550
GlyphClass: 2
Flags: W
HStem: 566.113 176.043
VStem: 202.889 142.943
LayerCount: 2
Fore
SplineSet
314.088941103 566.113463518 m 1,0,-1
 202.889378496 716.626002805 l 5,1,-1
 253.950342985 742.156485049 l 5,2,-1
 345.832552909 583.043389815 l 1,3,-1
 314.088941103 566.113463518 l 1,0,-1
EndSplineSet
EndChar

StartChar: a
Encoding: 97 97 68
Width: 590
GlyphClass: 2
Flags: W
HStem: -7 44<149.371 272.131> 0 21G<435 445 445 480> 236 44<141.639 435> 459 42<168.698 373>
VStem: 60 45<81.802 202.118> 435 45<0 43.9688 80.458 236 280 416.845>
LayerCount: 2
Fore
SplineSet
96.30078125 442.421875 m 17,0,1
 161 501 161 501 281.25 501 c 0,2,3
 377 501 377 501 428.533203125 467.490234375 c 128,-1,4
 480 434 480 434 480 347.141601562 c 2,5,6
 480 347.141601562 480 347.141601562 480 0 c 1,7,8
 480 0 480 0 435 0 c 1,9,10
 435 0 435 0 435 43.96875 c 1,11,12
 384 -7 384 -7 252 -7 c 0,13,14
 169 -7 169 -7 114.5 29 c 128,-1,15
 60 65 60 65 60 134 c 128,-1,16
 60 203 60 203 107 241.5 c 128,-1,17
 154 280 154 280 236.25 280 c 2,18,-1
 435 280 l 1,19,-1
 435 342.439453125 l 2,20,21
 435 401 435 401 402.03515625 429.930664062 c 128,-1,22
 369 459 369 459 274.886086048 459 c 0,23,24
 181 459 181 459 125.598632812 410.48828125 c 9,25,26
 125.598632812 410.48828125 125.598632812 410.48828125 96.30078125 442.421875 c 17,0,1
435 122.109375 m 2,27,-1
 435 236 l 1,28,-1
 241.875 236 l 2,29,30
 176 236 176 236 143.624023438 216.25390625 c 0,31,32
 105 192 105 192 105 137.881835938 c 0,33,34
 105 100 105 100 142.71875 63.701171875 c 0,35,36
 167 41 167 41 222.5 37 c 0,37,38
 288 32 288 32 338.352539062 42 c 0,39,40
 345.92580755 43.4905272435 345.92580755 43.4905272435 353 45.5112846409 c 4,41,42
 383.894613449 54.3363935296 383.894613449 54.3363935296 405.270507812 73.2744140625 c 0,43,44
 435 99 435 99 435 122.109375 c 2,27,-1
EndSplineSet
EndChar

StartChar: b
Encoding: 98 98 69
Width: 590
GlyphClass: 2
Flags: W
HStem: -7 41<211.888 386.736> 0 21G<92 137> 460 40<214.592 385.865> 701 20G<92 137>
VStem: 92 45<0 73.3662 119.56 370.299 417.477 721> 463 47<117.828 377.359>
LayerCount: 2
Fore
SplineSet
137 417.4765625 m 1,0,1
 190 500 190 500 298.808917197 500 c 0,2,3
 421 500 421 500 471.010742188 421.446289062 c 0,4,5
 510 360 510 360 510 247.73046875 c 0,6,7
 510 135 510 135 463.435546875 65.279296875 c 0,8,9
 415 -7 415 -7 302.203193422 -7 c 0,10,11
 190 -7 190 -7 137 73.3662109375 c 1,12,13
 137 47 137 47 137 0 c 1,14,-1
 92 0 l 1,15,16
 92 360 92 360 92 721 c 5,17,-1
 137 721 l 5,18,19
 137 559 137 559 137 417.4765625 c 1,0,1
431.884765625 396.186523438 m 0,20,21
 394 460 394 460 297.681528662 460 c 0,22,23
 212 460 212 460 175.051757812 402.516601562 c 0,24,25
 137 343 137 343 137 244.134765625 c 0,26,27
 137 215 137 215 140.403320312 189.123046875 c 0,28,29
 144 163 144 163 153.930664062 133.185546875 c 0,30,31
 164 103 164 103 179.413085938 82.3603515625 c 0,32,33
 195 61 195 61 223.927858778 47.7451171875 c 0,34,35
 255 34 255 34 297.681528662 34 c 0,36,37
 394 34 394 34 431.884765625 97.8134765625 c 0,38,39
 463 151 463 151 463 247 c 128,-1,40
 463 343 463 343 431.884765625 396.186523438 c 0,20,21
EndSplineSet
EndChar

StartChar: c
Encoding: 99 99 70
Width: 590
GlyphClass: 2
Flags: W
HStem: -7 40<236.897 454.053> 460 41<230.177 450.699>
VStem: 93.5 45<131.688 366.041>
LayerCount: 2
Fore
SplineSet
491.5 466 m 16,0,-1
 483.5 471 l 2,1,2
 435.5 501 435.5 501 333.5 501 c 0,3,4
 221.5 501 221.5 501 157.5 439 c 128,-1,5
 93.5 377 93.5 377 93.5 246 c 128,-1,6
 93.5 115 93.5 115 155.5 54 c 128,-1,7
 217.5 -7 217.5 -7 334.5 -7 c 0,8,9
 438.5 -7 438.5 -7 488.5 23 c 4,10,11
 488.5 23 488.5 23 496.5 28 c 12,12,13
 496.5 28 496.5 28 472.5 63 c 21,14,15
 472.5 63 472.5 63 463.5 57 c 4,16,17
 447.5 48 447.5 48 401.5 38 c 0,18,19
 381.5 34 381.5 34 337.5 33 c 0,20,21
 228.5 30 228.5 30 175.5 104 c 0,22,23
 138.5 157 138.5 157 138.5 247 c 0,24,25
 138.5 351 138.5 351 184.5 405 c 0,26,27
 230.5 460 230.5 460 336.5 460 c 0,28,29
 424.5 460 424.5 460 456.5 436 c 2,30,31
 456.5 436 456.5 436 464.5 430 c 1,32,33
 464.5 430 464.5 430 491.5 466 c 16,0,-1
EndSplineSet
EndChar

StartChar: d
Encoding: 100 100 71
Width: 590
GlyphClass: 2
Flags: W
HStem: -7 41<204.312 382.317> 0 21G<459 503> 459 41<208.736 382.104> 701 20G<459 503>
VStem: 87 46<111.133 376.486> 459 44<0 74.9385 125.293 369.221 419.774 721>
LayerCount: 2
Fore
SplineSet
503 0 m 1,0,-1
 459 0 l 1,1,2
 459 47.46875 459 47.46875 459 74.9384765625 c 1,3,4
 428.584960938 27.7421875 428.584960938 27.7421875 387.83984375 10.7646484375 c 0,5,6
 360.280273438 0.357421875 360.280273438 0.357421875 337.668945312 -3.333984375 c 128,-1,7
 315.219726562 -7 315.219726562 -7 287.102539062 -7 c 0,8,9
 171.588867188 -7 171.588867188 -7 124.026367188 74.43359375 c 0,10,11
 87 137.827148438 87 137.827148438 87 250.525390625 c 0,12,13
 87 288.721679688 87 288.721679688 92.13671875 321.791992188 c 128,-1,14
 97.2734375 354.862304688 97.2734375 354.862304688 110.80078125 388.360351562 c 128,-1,15
 124.329101562 421.857421875 124.329101562 421.857421875 146.681640625 445.893554688 c 128,-1,16
 169.034179688 469.9296875 169.034179688 469.9296875 205.083984375 484.703125 c 0,17,18
 245.305664062 500 245.305664062 500 297.256835938 500 c 0,19,20
 373.39453125 500 373.39453125 500 413.713867188 468.833007812 c 0,21,22
 439.302734375 448.501953125 439.302734375 448.501953125 459 419.774414062 c 1,23,24
 459 419.774414062 459 419.774414062 459 721 c 1,25,-1
 503 721 l 1,26,27
 503 721 503 721 503 0 c 1,0,-1
429.732421875 107.440429688 m 0,28,29
 459 170.120117188 459 170.120117188 459 244.112304688 c 0,30,31
 459 341.690429688 459 341.690429688 420.477539062 401.4765625 c 0,32,33
 383.412109375 459 383.412109375 459 298.384765625 459 c 0,34,35
 202.149414062 459 202.149414062 459 164.291015625 395.451171875 c 0,36,37
 133 342.926757812 133 342.926757812 133 246.977539062 c 0,38,39
 133 214.944335938 133 214.944335938 135.438476562 189.331054688 c 128,-1,40
 137.875976562 163.716796875 137.875976562 163.716796875 147.010742188 132.494140625 c 128,-1,41
 156.145507812 101.271484375 156.145507812 101.271484375 171.387695312 81.419921875 c 128,-1,42
 186.630859375 61.568359375 186.630859375 61.568359375 216.547851562 47.80078125 c 0,43,44
 249.15234375 34 249.15234375 34 297.4765625 34 c 128,-1,45
 345.80078125 34 345.80078125 34 381.92578125 53.943359375 c 0,46,47
 414.065429688 73.88671875 414.065429688 73.88671875 429.732421875 107.440429688 c 0,28,29
EndSplineSet
EndChar

StartChar: e
Encoding: 101 101 72
Width: 590
GlyphClass: 2
Flags: W
HStem: -7 40<212.904 402.014> 241 41<125.634 462.501> 460 41<206.737 387.268>
VStem: 80 43.0039<123.09 241 282 364.992>
LayerCount: 2
Fore
SplineSet
509 241 m 1,0,-1
 123.00390625 241 l 1,1,2
 123.237304688 183.536132812 123.237304688 183.536132812 137.923828125 139.234375 c 128,-1,3
 152.610351562 94.93359375 152.610351562 94.93359375 193.061523438 63.966796875 c 0,4,5
 237.47978689 33 237.47978689 33 308.715190459 33 c 0,6,7
 380.915222211 33 380.915222211 33 442.858398438 75.3876953125 c 1,8,9
 442.858398438 75.3876953125 442.858398438 75.3876953125 470.66796875 42.0166015625 c 1,10,11
 470.66796875 42.0166015625 470.66796875 42.0166015625 461.697265625 35.7822265625 c 2,12,13
 400.131835938 -7 400.131835938 -7 312.952662722 -7 c 0,14,15
 178.440429688 -7 178.440429688 -7 123.365234375 72.0322265625 c 0,16,17
 80 134.258789062 80 134.258789062 80 244.833007812 c 0,18,19
 80 316.565429688 80 316.565429688 98.171875 368.965820312 c 128,-1,20
 116.34375 421.366210938 116.34375 421.366210938 148.043945312 448.790039062 c 128,-1,21
 179.745117188 476.212890625 179.745117188 476.212890625 215.701582147 488.384765625 c 0,22,23
 253.913097494 501 253.913097494 501 297.295857988 501 c 0,24,25
 411.1171875 501 411.1171875 501 460.05859375 435.627929688 c 128,-1,26
 509 370.255859375 509 370.255859375 509 269.888671875 c 0,27,28
 509 269.888671875 509 269.888671875 509 241 c 1,0,-1
125.633789062 282 m 1,29,-1
 462.500976562 282 l 1,30,31
 456.999023438 369.943359375 456.999023438 369.943359375 418.129882812 414.971679688 c 0,32,33
 378.107075166 460 378.107075166 460 296.722488674 460 c 128,-1,34
 215.337902182 460 215.337902182 460 172.94140625 413.153320312 c 0,35,36
 132.166992188 366.305664062 132.166992188 366.305664062 125.633789062 282 c 1,29,-1
EndSplineSet
EndChar

StartChar: f
Encoding: 102 102 73
Width: 590
GlyphClass: 2
Flags: W
HStem: 0 21G<248.182 297.202> 452 44<65 248.182 297.202 531> 690 46<338.924 537.822>
VStem: 248.182 49.0202<0 452 496 648.265>
LayerCount: 2
Fore
SplineSet
65 452 m 1,0,1
 65 452 65 452 65 496 c 1,2,-1
 248.181598485 496 l 1,3,4
 248.181598485 496 248.181598485 496 248.181598485 565 c 2,5,6
 248.181598485 657.51953125 248.181598485 657.51953125 296.782664427 696.759765625 c 128,-1,7
 345.383730369 736 345.383730369 736 432 736 c 0,8,9
 484.825852129 736 484.825852129 736 548.869140625 711.833984375 c 1,10,11
 548.869140625 711.833984375 548.869140625 711.833984375 532.899414062 669.24609375 c 1,12,13
 532.899414062 669.24609375 532.899414062 669.24609375 523.616210938 672.587890625 c 2,14,15
 475.249023438 690 475.249023438 690 425.743676988 690 c 0,16,17
 353.564402721 690 353.564402721 690 322.412955583 653.696289062 c 0,18,19
 297.201804207 624.314453125 297.201804207 624.314453125 297.201804207 570 c 2,20,21
 297.201804207 570 297.201804207 570 297.201804207 496 c 1,22,-1
 531 496 l 1,23,24
 531 496 531 496 531 452 c 1,25,-1
 297.201804207 452 l 1,26,27
 297.201804207 452 297.201804207 452 297.201804207 0 c 1,28,-1
 248.181598485 0 l 1,29,30
 248.181598485 0 248.181598485 0 248.181598485 452 c 1,31,-1
 65 452 l 1,0,1
EndSplineSet
EndChar

StartChar: g
Encoding: 103 103 74
Width: 590
GlyphClass: 2
Flags: W
HStem: -204 42<180.961 371.633> -5 43<198.164 369.905> 459 42<199.606 372.974>
VStem: 76 46<123.464 371.513> 449 44<-89.9941 79.4697 132.061 367.07 422.939 495>
LayerCount: 2
Fore
SplineSet
493 495 m 1,0,1
 493 495 493 495 493 464 c 0,2,3
 493 464 493 464 493 8.0693359375 c 2,4,5
 493 -100.111328125 493 -100.111328125 432.880859375 -151.263671875 c 0,6,7
 372.731364451 -204 372.731364451 -204 267.025477707 -204 c 0,8,9
 183.634081791 -204 183.634081791 -204 118.838867188 -154.801757812 c 1,10,11
 118.838867188 -154.801757812 118.838867188 -154.801757812 146.015625 -120.376953125 c 1,12,13
 146.015625 -120.376953125 146.015625 -120.376953125 153.745117188 -125.81640625 c 2,14,15
 206.331458997 -162 206.331458997 -162 267.025477707 -162 c 0,16,17
 356.177249204 -162 356.177249204 -162 403.5390625 -119.819335938 c 0,18,19
 449 -77.6396484375 449 -77.6396484375 449 0 c 2,20,21
 449 49.734375 449 49.734375 449 79.4697265625 c 1,22,23
 394.583984375 -5 394.583984375 -5 283.936305732 -5 c 0,24,25
 163.877929688 -5 163.877929688 -5 114.54296875 74.5205078125 c 0,26,27
 76 136.64453125 76 136.64453125 76 247.623046875 c 128,-1,28
 76 358.6015625 76 358.6015625 124.29296875 429.80078125 c 128,-1,29
 172.584960938 501 172.584960938 501 285.063694268 501 c 0,30,31
 347.681099473 501 347.681099473 501 393.262695312 477.793945312 c 0,32,33
 424.536132812 460.805664062 424.536132812 460.805664062 449 422.939453125 c 1,34,35
 449 448.969726562 449 448.969726562 449 495 c 1,36,-1
 493 495 l 1,0,1
409.970703125 99.2197265625 m 0,37,38
 449 163 449 163 449 242 c 0,39,40
 449 323 449 323 419.404296875 384.841796875 c 0,41,42
 402 421 402 421 372.524382962 438.598632812 c 0,43,44
 337 459 337 459 288.445859873 459 c 0,45,46
 192 459 192 459 153.475585938 392.4375 c 0,47,48
 122 337 122 337 122 242.227050781 c 0,49,50
 122 159 122 159 153.465820312 104.26953125 c 0,51,52
 192 38 192 38 288.446289062 38 c 0,53,54
 372 38 372 38 409.970703125 99.2197265625 c 0,37,38
EndSplineSet
EndChar

StartChar: h
Encoding: 104 104 75
Width: 590
GlyphClass: 2
Flags: W
HStem: 0 21G<89 133 458 503> 458 42<214.501 402.11> 701 20G<89 133>
VStem: 89 44<0 380.849 422.139 721> 458 45<0 405.899>
LayerCount: 2
Fore
SplineSet
458 0 m 1,0,1
 458 164 458 164 458 322.899414062 c 2,2,3
 458 390 458 390 420.50390625 423.846679688 c 0,4,5
 383 458 383 458 305.776954402 458 c 0,6,7
 228 458 228 458 179.60546875 412.934570312 c 0,8,9
 133 368 133 368 133 298.9453125 c 2,10,11
 133 153 133 153 133 0 c 1,12,-1
 89 0 l 1,13,14
 89 360 89 360 89 721 c 1,15,-1
 133 721 l 1,16,17
 133 721 133 721 133 703 c 4,18,19
 133 703 133 703 133 422.138671875 c 1,20,21
 158.225651378 457.083139515 158.225651378 457.083139515 191.856445312 473.357421875 c 0,22,23
 247 500 247 500 307.37254902 500 c 0,24,25
 398.059873705 500 398.059873705 500 446 463.035077292 c 0,26,27
 450.726027426 459.391005989 450.726027426 459.391005989 455.036621094 455.387695312 c 0,28,29
 503 411 503 411 503 330.76953125 c 2,30,31
 503 169 503 169 503 0 c 1,32,-1
 458 0 l 1,0,1
EndSplineSet
EndChar

StartChar: i
Encoding: 105 105 76
Width: 570
GlyphClass: 2
Flags: W
HStem: 0 44<198 260 305 364> 471 44<197 260> 645 52<253 306>
VStem: 197 108<471 515> 253 53<645 697> 260 45<44 471>
LayerCount: 2
Fore
SplineSet
198 0 m 1,0,1
 198 0 198 0 198 44 c 1,2,-1
 260 44 l 1,3,4
 260 44 260 44 260 471 c 1,5,-1
 197 471 l 1,6,7
 197 471 197 471 197 515 c 1,8,-1
 305 515 l 1,9,10
 305 515 305 515 305 44 c 1,11,-1
 364 44 l 1,12,13
 364 44 364 44 364 0 c 1,14,-1
 198 0 l 1,0,1
253 645 m 1,15,16
 253 645 253 645 253 697 c 1,17,-1
 306 697 l 1,18,19
 306 697 306 697 306 645 c 1,20,-1
 253 645 l 1,15,16
EndSplineSet
EndChar

StartChar: j
Encoding: 106 106 77
Width: 570
GlyphClass: 2
Flags: W
HStem: -204 43<130 245.416> 452 43<200 280> 646 51<275 329>
VStem: 280 45<-126.977 452 646 697>
LayerCount: 2
Fore
SplineSet
200 495 m 1,0,-1
 325 495 l 1,1,2
 325 222 325 222 325 -51 c 0,3,4
 325 -115.563476562 325 -115.563476562 288.870117188 -159.78125 c 128,-1,5
 252.741210938 -204 252.741210938 -204 173 -204 c 1,6,-1
 130 -204 l 1,7,8
 130 -204 130 -204 130 -161 c 1,9,-1
 173 -161 l 1,10,11
 232.997070312 -161 232.997070312 -161 258.879882812 -126.434570312 c 0,12,13
 280 -98.228515625 280 -98.228515625 280 -46 c 0,14,15
 280 203 280 203 280 452 c 1,16,-1
 200 452 l 1,17,18
 200 452 200 452 200 495 c 1,0,-1
275 646 m 1,19,20
 275 646 275 646 275 697 c 1,21,-1
 329 697 l 1,22,23
 329 697 329 697 329 646 c 1,24,-1
 300 646 l 4,25,26
 300 646 300 646 275 646 c 1,19,20
EndSplineSet
EndChar

StartChar: k
Encoding: 107 107 78
Width: 590
GlyphClass: 2
Flags: W
HStem: 0 21G<118 168 441.146 551.584> 476 20G<309.5 519.685> 701 20G<118 168>
VStem: 118 50<0 160.116 228.64 721>
LayerCount: 2
Fore
SplineSet
551.583984375 0 m 5,0,1
 551.583984375 0 551.583984375 0 499 0.308080616913 c 4,2,3
 499 0.308080616913 499 0.308080616913 496.149414062 0.5 c 5,4,5
 496.149414062 0.5 496.149414062 0.5 293 275 c 5,6,7
 293 275 293 275 168 160.116210938 c 5,8,9
 168 160.116210938 168 160.116210938 168 0 c 5,10,-1
 118 0 l 5,11,12
 118 0 118 0 118 721 c 5,13,14
 118 721 118 721 168 721 c 5,15,16
 168 721 168 721 168 228.639648438 c 5,17,18
 168 228.639648438 168 228.639648438 451 496 c 12,19,-1
 519.684570312 495 l 5,20,21
 519.684570312 495 519.684570312 495 330.708007812 305.657226562 c 5,22,23
 330.708007812 305.657226562 330.708007812 305.657226562 551.583984375 0 c 5,0,1
EndSplineSet
EndChar

StartChar: l
Encoding: 108 108 79
Width: 570
GlyphClass: 2
Flags: W
HStem: 0 43.0703<315.138 394> 678 44<203 240>
VStem: 203 82<678 722> 240 45<69.2724 678>
LayerCount: 2
Fore
SplineSet
281.651367188 26.4443359375 m 0,0,1
 240 58 240 58 240 128.245117188 c 2,2,3
 240 128.245117188 240 128.245117188 240 678 c 1,4,-1
 203 678 l 5,5,6
 203 678 203 678 203 722 c 5,7,-1
 285 722 l 1,8,9
 285 722 285 722 285 130.612304688 c 2,10,11
 285 130.612304688 285 130.612304688 284.991210938 129.357421875 c 0,12,13
 285 86 285 86 314.502929688 60.6611328125 c 0,14,15
 334.579628447 43.5046811451 334.579628447 43.5046811451 384.092773438 43.0703125 c 2,16,17
 384.092773438 43.0703125 384.092773438 43.0703125 394 42.9833984375 c 1,18,19
 394 42.9833984375 394 42.9833984375 394 0 c 1,20,21
 394 0 394 0 374 0 c 0,22,23
 374 0 374 0 372.587890625 0 c 1,24,25
 316 -0 316 -0 281.651367188 26.4443359375 c 0,0,1
EndSplineSet
EndChar

StartChar: m
Encoding: 109 109 80
Width: 590
GlyphClass: 2
Flags: W
HStem: 0 21G<50 94 271.017 318.81 497 542> 458 42<133.688 242.925 361.845 474.194>
VStem: 50 44<0 416.6 453.287 495> 271.017 47.7931<0 413.539> 497 45<0 433.969>
LayerCount: 2
Fore
SplineSet
341.422329607 475.727539062 m 0,0,1
 379.505337419 500 379.505337419 500 422 500 c 0,2,3
 486.370117188 500 486.370117188 500 514.185546875 459.620117188 c 128,-1,4
 542 419.240234375 542 419.240234375 542 359.615234375 c 2,5,6
 542 359.615234375 542 359.615234375 542 0 c 1,7,-1
 497 0 l 1,8,9
 497 0 497 0 497 361.225585938 c 2,10,11
 497 411.40625 497 411.40625 476.665039062 434.703125 c 128,-1,12
 456.329101562 458 456.329101562 458 423 458 c 0,13,14
 377.435816272 458 377.435816272 458 348.12308055 423.815429688 c 128,-1,15
 318.810344828 389.631835938 318.810344828 389.631835938 318.810344828 321.94140625 c 2,16,17
 318.810344828 321.94140625 318.810344828 321.94140625 318.810344828 0 c 1,18,-1
 271.017241379 0 l 1,19,20
 271.017241379 0 271.017241379 0 271.017241379 342.0625 c 2,21,22
 271.017241379 395.412109375 271.017241379 395.412109375 253.232724946 424.275390625 c 0,23,24
 232.453714305 458 232.453714305 458 185.206896552 458 c 0,25,26
 147.0625 458 147.0625 458 120.53125 423.375 c 128,-1,27
 94 388.749023438 94 388.749023438 94 321.94140625 c 2,28,29
 94 321.94140625 94 321.94140625 94 0 c 1,30,-1
 50 0 l 1,31,32
 50 0 50 0 50 495 c 1,33,-1
 94 495 l 1,34,35
 94 495 94 495 94 453.287109375 c 1,36,37
 105.47265625 468.2265625 105.47265625 468.2265625 120.682617188 479.131835938 c 0,38,39
 149.787109375 500 149.787109375 500 186.293103448 500 c 0,40,41
 244.062550512 500 244.062550512 500 275.573158001 469.409179688 c 0,42,43
 291.589405981 453.860351562 291.589405981 453.860351562 300.329977101 430.73046875 c 1,44,45
 314.879209321 458.810546875 314.879209321 458.810546875 341.422329607 475.727539062 c 0,0,1
EndSplineSet
EndChar

StartChar: n
Encoding: 110 110 81
Width: 590
GlyphClass: 2
Flags: W
HStem: 0 21G<88 132 457 501> 458 42<213.578 400.49>
VStem: 88 44<0 380.774 422.139 495> 457 44<0 405.799>
LayerCount: 2
Fore
SplineSet
457 0 m 1,0,1
 457 0 457 0 457 322.899414062 c 2,2,3
 457 389.694335938 457 389.694335938 419.50390625 423.846679688 c 128,-1,4
 382.0078125 458 382.0078125 458 304.776954402 458 c 128,-1,5
 227.413251889 458 227.413251889 458 178.60546875 412.934570312 c 0,6,7
 132 367.828125 132 367.828125 132 298.9453125 c 2,8,9
 132 298.9453125 132 298.9453125 132 0 c 1,10,-1
 88 0 l 1,11,12
 88 0 88 0 88 495 c 1,13,-1
 132 495 l 1,14,15
 132 448.569335938 132 448.569335938 132 422.138671875 c 1,16,17
 154.918945312 454.461914062 154.918945312 454.461914062 190.856445312 473.357421875 c 0,18,19
 245.913315717 500 245.913315717 500 306.37254902 500 c 0,20,21
 406.073242188 500 406.073242188 500 453.48828125 455.432617188 c 128,-1,22
 501 410.775390625 501 410.775390625 501 330.76953125 c 6,23,24
 501 330.76953125 501 330.76953125 501 0 c 5,25,-1
 457 0 l 1,0,1
EndSplineSet
EndChar

StartChar: o
Encoding: 111 111 82
Width: 590
GlyphClass: 2
Flags: W
HStem: -6 41<202.455 386.622> 459 42<204.974 388.741>
VStem: 77 45<121.151 369.828> 467 45<117.65 380.299>
LayerCount: 2
Fore
SplineSet
150.450195312 454.392578125 m 0,0,1
 207.32781808 501 207.32781808 501 297.285714286 501 c 0,2,3
 420.446289062 501 420.446289062 501 474.4609375 420.504882812 c 0,4,5
 512 363.32421875 512 363.32421875 512 244.1328125 c 0,6,7
 512 112.432617188 512 112.432617188 452.400390625 50.0654296875 c 0,8,9
 399.420898438 -6 399.420898438 -6 291.714285714 -6 c 0,10,11
 192.860351562 -6 192.860351562 -6 142.930664062 42.03515625 c 0,12,13
 77 105.463867188 77 105.463867188 77 249.139648438 c 128,-1,14
 77 392.815429688 77 392.815429688 150.450195312 454.392578125 c 0,0,1
434.833984375 398.1015625 m 0,15,16
 390.615848214 459 390.615848214 459 296.171428571 459 c 0,17,18
 219.580608259 459 219.580608259 459 174.219726562 416.106445312 c 0,19,20
 122 364.42578125 122 364.42578125 122 247.955078125 c 0,21,22
 122 124.8984375 122 124.8984375 175.069335938 74.2197265625 c 0,23,24
 218.32703683 35 218.32703683 35 296.101785714 35 c 128,-1,25
 373.876534598 35 373.876534598 35 418.780273438 77.8935546875 c 0,26,27
 467 126.649414062 467 126.649414062 467 245.08984375 c 0,28,29
 467 354.737304688 467 354.737304688 434.833984375 398.1015625 c 0,15,16
EndSplineSet
EndChar

StartChar: p
Encoding: 112 112 83
Width: 590
GlyphClass: 2
Flags: W
HStem: -200 21G<89 134> -4 41<211.651 382.674> 462 41<213.9 387.729> 475 20G<89 134>
VStem: 89 45<-200 75.3252 129.79 366.427 423.466 495> 460 45<122.769 381.744>
LayerCount: 2
Fore
SplineSet
89 495 m 1,0,-1
 134 495 l 1,1,2
 134 449.232421875 134 449.232421875 134 423.465820312 c 1,3,4
 188.704101562 503 188.704101562 503 301.512820513 503 c 0,5,6
 417.655273438 503 417.655273438 503 462.076171875 431.946289062 c 0,7,8
 505 363.287109375 505 363.287109375 505 245.170898438 c 0,9,10
 505 148.68359375 505 148.68359375 464.25390625 77.9326171875 c 0,11,12
 442.365234375 39.9267578125 442.365234375 39.9267578125 401.484375 17.962890625 c 0,13,14
 357.475761218 -4 357.475761218 -4 294.743589744 -4 c 0,15,16
 187.904296875 -4 187.904296875 -4 134 75.3251953125 c 1,17,18
 134 -52.3369140625 134 -52.3369140625 134 -200 c 5,19,-1
 89 -200 l 5,20,21
 89 147.5 89 147.5 89 495 c 1,0,-1
140.794921875 314.971679688 m 0,22,23
 134 280 134 280 134 242 c 0,24,25
 134 160 134 160 172.051757812 97.1826171875 c 0,26,27
 209 37 209 37 294.743164062 37 c 0,28,29
 391 37 391 37 428.708984375 103.5390625 c 0,30,31
 460 159 460 159 460 239 c 0,32,33
 460 273 460 273 457.561523438 299.359375 c 0,34,35
 455 326 455 326 445.989257812 358.87109375 c 0,36,37
 437 392 437 392 421.590820312 412.376953125 c 0,38,39
 404 435 404 435 377.576322115 447.609375 c 0,40,41
 346 462 346 462 297.848357372 462 c 0,42,43
 246 462 246 462 212.833032853 441.08203125 c 0,44,45
 180 420 180 420 163.728515625 385.04296875 c 0,46,47
 148 350 148 350 140.794921875 314.971679688 c 0,22,23
EndSplineSet
EndChar

StartChar: q
Encoding: 113 113 84
Width: 550
GlyphClass: 2
Flags: W
HStem: -200 21G<451 496> -4 42<198.509 371.933> 462 38<203.92 371.246>
VStem: 80 45<124.186 373.397> 451 45<-200 79 128.438 369.756 424 494>
LayerCount: 2
Fore
SplineSet
451 424 m 1,0,1
 451 424 451 424 451 494 c 1,2,-1
 496 494 l 1,3,4
 496 494 496 494 496 -200 c 1,5,-1
 451 -200 l 1,6,7
 451 -200 451 -200 451 79 c 1,8,9
 401 -4 401 -4 286 -4 c 0,10,11
 224 -4 224 -4 178 19 c 0,12,13
 137 40 137 40 117 79 c 0,14,15
 98 117 98 117 89 158 c 128,-1,16
 80 199 80 199 80 245 c 0,17,18
 80 363 80 363 126 430 c 0,19,20
 174 500 174 500 290.5 500 c 128,-1,21
 407 500 407 500 451 424 c 1,0,1
412 97 m 0,22,23
 451 155 451 155 451 252 c 0,24,25
 451 326 451 326 421 390 c 0,26,27
 406 421 406 421 374 442 c 0,28,29
 343 462 343 462 288 462 c 0,30,31
 240 462 240 462 201 442 c 0,32,33
 170 426 170 426 153 389 c 128,-1,34
 136 352 136 352 131 321 c 0,35,36
 125 285 125 285 125 248 c 0,37,38
 125 210 125 210 132 175 c 0,39,40
 139 138 139 138 154 108 c 0,41,42
 170 76 170 76 201 57 c 0,43,44
 233 38 233 38 289 38 c 0,45,46
 372 38 372 38 412 97 c 0,22,23
EndSplineSet
EndChar

StartChar: r
Encoding: 114 114 85
Width: 590
GlyphClass: 2
Flags: W
HStem: 0 21G<178 222> 442.985 32.9385<464.792 508.626> 456 44<290.929 510.291>
VStem: 178 44<0 389.26 426.983 495>
LayerCount: 2
Fore
SplineSet
487.6953125 442.985351562 m 1,0,1
 439.27170807 456 439.27170807 456 387.129713529 456 c 0,2,3
 306 456 306 456 263.2265625 414.893554688 c 0,4,5
 222 374 222 374 222 299.848632812 c 2,6,7
 222 153 222 153 222 0 c 1,8,-1
 178 0 l 1,9,10
 178 248 178 248 178 495 c 1,11,-1
 222 495 l 1,12,13
 222 451 222 451 222 426.983398438 c 1,14,15
 272 500 272 500 389.605538905 500 c 0,16,17
 455.801641987 500 455.801641987 500 522.064453125 475.923828125 c 5,18,19
 522.064453125 475.923828125 522.064453125 475.923828125 505 438 c 1,20,21
 505 438 505 438 487.6953125 442.985351562 c 1,0,1
EndSplineSet
EndChar

StartChar: s
Encoding: 115 115 86
Width: 590
GlyphClass: 2
Flags: W
HStem: -7 40.4092<166.563 399.867> 459 42<197.668 418.724>
VStem: 107.836 46<315.385 422.93> 451.836 46<74.7992 186.445>
LayerCount: 2
Fore
SplineSet
481.969726562 196.32421875 m 128,-1,1
 497.8359375 169.044921875 497.8359375 169.044921875 497.8359375 132.033203125 c 0,2,3
 497.8359375 70.7939453125 497.8359375 70.7939453125 445.8359375 31.8974609375 c 128,-1,4
 393.8359375 -7 393.8359375 -7 287.949381864 -7 c 0,5,6
 162.599609375 -7 162.599609375 -7 83.982421875 47.73828125 c 2,7,8
 83.982421875 47.73828125 83.982421875 47.73828125 76 53.296875 c 1,9,10
 76 53.296875 76 53.296875 101.596679688 88.478515625 c 1,11,12
 101.596679688 88.478515625 101.596679688 88.478515625 109.864257812 82.455078125 c 2,13,14
 177.192382812 33.4091796875 177.192382812 33.4091796875 298.061619373 33.4091796875 c 0,15,16
 357.204383476 33.4091796875 357.204383476 33.4091796875 403.374023438 54.52734375 c 0,17,18
 424.848632812 64.8583984375 424.848632812 64.8583984375 438.349609375 85.6416015625 c 128,-1,19
 451.8359375 106.40234375 451.8359375 106.40234375 451.8359375 135.393554688 c 0,20,21
 451.8359375 213.788085938 451.8359375 213.788085938 302.945470193 235.5859375 c 0,22,23
 255.172389799 242.403320312 255.172389799 242.403320312 224.011644029 249.815429688 c 0,24,25
 193.197265625 257.227539062 193.197265625 257.227539062 164.952148438 271.071289062 c 0,26,27
 107.8359375 299.06640625 107.8359375 299.06640625 107.8359375 363.931640625 c 128,-1,28
 107.8359375 428.797851562 107.8359375 428.797851562 157.151367188 464.8984375 c 0,29,30
 207.760303995 501 207.760303995 501 310.700819011 501 c 0,31,32
 409.703125 501 409.703125 501 476.125976562 459.486328125 c 2,33,34
 476.125976562 459.486328125 476.125976562 459.486328125 484.868164062 454.021484375 c 4,35,36
 484.868164062 454.021484375 484.868164062 454.021484375 459.79296875 416.409179688 c 5,37,38
 459.79296875 416.409179688 459.79296875 416.409179688 451.583007812 421.491210938 c 2,39,40
 390.9921875 459 390.9921875 459 313.272768308 459 c 0,41,42
 233.927474147 459 233.927474147 459 191.795898438 435.7578125 c 0,43,44
 153.8359375 412.516601562 153.8359375 412.516601562 153.8359375 365.9921875 c 0,45,46
 153.8359375 348.181640625 153.8359375 348.181640625 161.3125 334.265625 c 128,-1,47
 168.790039062 320.348632812 168.790039062 320.348632812 178.8671875 312.366210938 c 128,-1,48
 188.9453125 304.384765625 188.9453125 304.384765625 211.511794886 296.65625 c 0,49,50
 234.951206525 288.927734375 234.951206525 288.927734375 253.152356243 285.729492188 c 2,51,52
 278.911350141 278.918945312 278.911350141 278.918945312 304.671441287 276.650390625 c 2,53,54
 350.250025693 269.836914062 350.250025693 269.836914062 378.8828125 261.982421875 c 0,55,56
 404.677734375 254.067382812 404.677734375 254.067382812 435.390625 238.834960938 c 128,-1,0
 466.103515625 223.603515625 466.103515625 223.603515625 481.969726562 196.32421875 c 128,-1,1
EndSplineSet
EndChar

StartChar: t
Encoding: 116 116 87
Width: 590
GlyphClass: 2
Flags: W
HStem: 0 45<254.47 459.716> 453 42<139 176 221 464>
VStem: 176 45<79.3519 453 495 635>
LayerCount: 2
Fore
SplineSet
468.758789062 21.9970703125 m 17,0,1
 443 10 443 10 417.28515625 5.6650390625 c 0,2,3
 381 0 381 0 347.815216895 0 c 0,4,5
 258 0 258 0 217.049804688 36.2099609375 c 0,6,7
 176 72 176 72 176 159.938476562 c 2,8,9
 176 159.938476562 176 159.938476562 176 453 c 1,10,-1
 139 453 l 1,11,12
 139 453 139 453 139 495 c 1,13,-1
 176 495 l 1,14,15
 176 495 176 495 176 635 c 1,16,-1
 221 635 l 1,17,18
 221 635 221 635 221 495 c 1,19,-1
 464 495 l 1,20,21
 464 495 464 495 464 453 c 1,22,-1
 221 453 l 1,23,24
 221 453 221 453 221 163.206054688 c 2,25,26
 221 103 221 103 244.985351562 75.1982421875 c 0,27,28
 271 45 271 45 345.79263729 45 c 0,29,30
 419 45 419 45 452.536364852 66.1381055236 c 9,31,32
 452.536364852 66.1381055236 452.536364852 66.1381055236 468.758789062 21.9970703125 c 17,0,1
EndSplineSet
EndChar

StartChar: u
Encoding: 117 117 88
Width: 590
GlyphClass: 2
Flags: W
HStem: 0 37<198.996 371.081> 475 20G<89 134 459 502>
VStem: 89 45<92.8901 495> 459 43<0 68.2832 113.139 495>
LayerCount: 2
Fore
SplineSet
502 0 m 5,0,-1
 458 0 l 5,1,2
 458 44 458 44 458 68.283203125 c 1,3,4
 436 38 436 38 399.390625 20.5146484375 c 0,5,6
 343 -5 343 -5 283.62745098 -5 c 0,7,8
 187 -5 187 -5 137.854492188 43.083984375 c 0,9,10
 89 91 89 91 89 170 c 2,11,12
 89 329 89 329 89 495 c 1,13,-1
 134 495 l 1,14,15
 134 317 134 317 134 159 c 2,16,17
 134 110 134 110 172.98046875 73.66015625 c 0,18,19
 212 37 212 37 284.7578125 37 c 0,20,21
 363 37 363 37 412.040039062 82.677734375 c 0,22,23
 459 128 459 128 459 180 c 2,24,25
 459 328 459 328 459 495 c 1,26,-1
 502 495 l 1,27,28
 502 248 502 248 502 0 c 5,0,-1
EndSplineSet
EndChar

StartChar: v
Encoding: 118 118 89
Width: 590
GlyphClass: 2
Flags: W
HStem: -0 21G<277.202 421.191> 474 20G<79 128.366 128.366 178.101 385.386 519.714>
LayerCount: 2
Fore
SplineSet
322.668576279 0 m 5,0,1
 322.668576279 0 322.668576279 0 277.201518016 -0 c 5,2,3
 277.201518016 -0 277.201518016 -0 79 494 c 5,4,-1
 128.366210938 494 l 5,5,6
 128.366210938 494 128.366210938 494 300.426931756 50.5546875 c 5,7,8
 300.426931756 50.5546875 300.426931756 50.5546875 470.345703125 494 c 5,9,-1
 519.713867188 494 l 5,10,11
 519.713867188 494 519.713867188 494 322.668576279 0 c 5,0,1
EndSplineSet
EndChar

StartChar: w
Encoding: 119 119 90
Width: 590
GlyphClass: 2
Flags: W
HStem: 0 21G<139.161 241.932 416.687 509.469> 475 20G<32 79.4785 79.4785 85.5806 472.683 557.328>
LayerCount: 2
Fore
SplineSet
461.610351562 -0 m 5,0,1
 461.610351562 -0 461.610351562 -0 416.68695142 0 c 5,2,3
 416.68695142 0 416.68695142 0 300.183778009 318.41796875 c 5,4,5
 300.183778009 318.41796875 300.183778009 318.41796875 183.679554424 -0 c 5,6,7
 183.679554424 -0 183.679554424 -0 139.161132812 -0 c 5,8,9
 139.161132812 -0 139.161132812 -0 32 495 c 5,10,-1
 79.478515625 495 l 5,11,12
 79.478515625 495 79.478515625 495 166.497654605 69.7080078125 c 5,13,14
 166.497654605 69.7080078125 166.497654605 69.7080078125 277.949490193 376 c 5,15,-1
 323.499745235 376 l 5,16,17
 323.499745235 376 323.499745235 376 434.434895124 70.20703125 c 5,18,19
 434.434895124 70.20703125 434.434895124 70.20703125 510.931640625 495 c 5,20,-1
 557.328125 495 l 5,21,22
 557.328125 495 557.328125 495 461.610351562 -0 c 5,0,1
EndSplineSet
EndChar

StartChar: x
Encoding: 120 120 91
Width: 550
GlyphClass: 2
Flags: W
HStem: -0 21G<96 163.352 444.648 512> 474 20G<105 158 433.714 503>
LayerCount: 2
Fore
SplineSet
158 494 m 17,0,1
 158 494 158 494 303 291 c 1,2,-1
 448 494 l 1,3,-1
 503 494 l 1,4,5
 503 494 503 494 330 253 c 1,6,-1
 512 0 l 1,7,-1
 459 0 l 1,8,-1
 304 216 l 1,9,-1
 149 -0 l 1,10,-1
 96 -0 l 1,11,-1
 277 254 l 1,12,-1
 105 494 l 8,13,14
 105 494 105 494 158 494 c 17,0,1
EndSplineSet
EndChar

StartChar: y
Encoding: 121 121 92
Width: 590
GlyphClass: 2
Flags: W
HStem: -201 43<103.312 201.992> 474 20G<74 165.066 428.375 517.516>
LayerCount: 2
Fore
SplineSet
230.784864404 -178.10546875 m 128,-1,1
 196.931656007 -201 196.931656007 -201 142.3125 -201 c 1,2,-1
 103.3125 -201 l 1,3,4
 103.3125 -201 103.3125 -201 103.3125 -158 c 1,5,-1
 140.3125 -158 l 1,6,7
 180.850585938 -158 180.850585938 -158 202.67908801 -141.48828125 c 0,8,9
 225.939563711 -124.975585938 225.939563711 -124.975585938 240.393158492 -86.806640625 c 0,10,11
 240.406154381 -86.7734375 240.406154381 -86.7734375 271.308212936 -4.13671875 c 1,12,13
 168.85546875 244.931640625 168.85546875 244.931640625 74 494 c 1,14,15
 74 494 74 494 123.337890625 494 c 1,16,17
 206.793369935 256.153320312 206.793369935 256.153320312 297.948702822 38.306640625 c 1,18,19
 387.505541337 256.153320312 387.505541337 256.153320312 469.245117188 494 c 1,20,-1
 517.515625 494 l 1,21,22
 406.114257812 192.79296875 406.114257812 192.79296875 283.510269912 -108.4140625 c 2,23,0
 264.639155791 -155.209960938 264.639155791 -155.209960938 230.784864404 -178.10546875 c 128,-1,1
EndSplineSet
EndChar

StartChar: z
Encoding: 122 122 93
Width: 550
GlyphClass: 2
Flags: W
HStem: 0 41<156 484> 454 40<113 423>
LayerCount: 2
Fore
SplineSet
97 0 m 1,0,1
 97 0 97 0 97 32 c 1,2,3
 97 32 97 32 423 454 c 1,4,-1
 113 454 l 1,5,6
 113 454 113 454 113 494 c 1,7,-1
 481 494 l 1,8,9
 481 494 481 494 481 463 c 1,10,11
 481 463 481 463 156 41 c 1,12,-1
 484 41 l 1,13,14
 484 41 484 41 484 0 c 1,15,-1
 97 0 l 1,0,1
EndSplineSet
EndChar

StartChar: braceleft
Encoding: 123 123 94
Width: 550
GlyphClass: 2
Flags: W
HStem: -132 37<297.471 403> 290 27<147 211.642> 702 34<299.531 403>
VStem: 243 40<-70.3079 260.19 348.62 675.246>
LayerCount: 2
Fore
SplineSet
243 138 m 6,0,1
 243 290 243 290 182 290 c 5,2,3
 182 290 182 290 147 290 c 5,4,-1
 147 317 l 5,5,-1
 184 317 l 5,6,7
 244 317 244 317 244 471 c 6,8,9
 244 471 244 471 244 626 c 6,10,11
 244 675 244 675 265 706 c 4,12,13
 287 736 287 736 327 736 c 6,14,15
 327 736 327 736 403 736 c 5,16,-1
 403 702 l 5,17,-1
 332 702 l 5,18,19
 306 702 306 702 294 676 c 4,20,21
 283 652 283 652 283 612 c 6,22,23
 283 612 283 612 283 453 c 6,24,25
 283 391 283 391 264 350 c 4,26,27
 250 320 250 320 231 305 c 5,28,29
 283 273 283 273 283 164 c 6,30,31
 283 164 283 164 283 -8 c 6,32,33
 283 -49 283 -49 294 -71 c 4,34,35
 305 -95 305 -95 332 -95 c 6,36,37
 332 -95 332 -95 403 -95 c 5,38,-1
 403 -132 l 5,39,-1
 327 -132 l 6,40,41
 287 -132 287 -132 265 -100 c 132,-1,42
 243 -68 243 -68 243 -20 c 6,43,44
 243 -20 243 -20 243 138 c 6,0,1
EndSplineSet
EndChar

StartChar: bar
Encoding: 124 124 95
Width: 550
GlyphClass: 2
Flags: W
VStem: 255 39<-172 726>
LayerCount: 2
Fore
SplineSet
255 -172 m 5,0,-1
 255 726 l 1,1,-1
 294 726 l 1,2,-1
 294 -172 l 5,3,-1
 255 -172 l 5,0,-1
EndSplineSet
EndChar

StartChar: braceright
Encoding: 125 125 96
Width: 550
GlyphClass: 2
Flags: W
HStem: -132 37<147 252.529> 290 27<338.358 403> 702 34<147 250.469>
VStem: 267 40<-70.3079 260.19 348.62 675.246>
LayerCount: 2
Fore
SplineSet
307 138 m 6,0,1
 307 -20 307 -20 307 -20 c 6,2,3
 307 -68 307 -68 285 -100 c 132,-1,4
 263 -132 263 -132 223 -132 c 6,5,6
 223 -132 223 -132 147 -132 c 5,7,-1
 147 -95 l 5,8,-1
 218 -95 l 6,9,10
 245 -95 245 -95 256 -71 c 4,11,12
 267 -49 267 -49 267 -8 c 6,13,14
 267 164 267 164 267 164 c 6,15,16
 267 273 267 273 319 305 c 5,17,18
 300 320 300 320 286 350 c 4,19,20
 267 391 267 391 267 453 c 6,21,22
 267 612 267 612 267 612 c 6,23,24
 267 652 267 652 256 676 c 4,25,26
 244 702 244 702 218 702 c 5,27,28
 218 702 218 702 147 702 c 5,29,-1
 147 736 l 5,30,-1
 223 736 l 6,31,32
 263 736 263 736 285 706 c 4,33,34
 306 675 306 675 306 626 c 6,35,36
 306 471 306 471 306 471 c 6,37,38
 306 317 306 317 366 317 c 5,39,40
 366 317 366 317 403 317 c 5,41,-1
 403 290 l 5,42,-1
 368 290 l 5,43,44
 307 290 307 290 307 138 c 6,0,1
EndSplineSet
EndChar

StartChar: asciitilde
Encoding: 126 126 97
Width: 550
GlyphClass: 2
Flags: W
HStem: 217 48<285.15 396.462> 259 48<151.954 280.399>
LayerCount: 2
Fore
SplineSet
209 307 m 0,0,1
 234.964712939 307 234.964712939 307 286.464712939 286 c 128,-1,2
 337.964712939 265 337.964712939 265 355 265 c 0,3,4
 381.247687748 265 381.247687748 265 413.240966538 304.306028228 c 2,5,-1
 418.926112853 311.290636557 l 1,6,-1
 457.992555372 285.81252187 l 1,7,-1
 452.280596685 277.394898542 l 2,8,9
 411.298344103 217 411.298344103 217 354 217 c 0,10,11
 331.052659872 217 331.052659872 217 279.052659872 238 c 128,-1,12
 227.052659872 259 227.052659872 259 206 259 c 0,13,14
 170.283037803 259 170.283037803 259 133.241260388 220.106133714 c 2,15,-1
 127.110408108 213.66873882 l 5,16,-1
 91.5662883454 240.326828642 l 5,17,-1
 98.3263474687 248.409508029 l 2,18,19
 147.32930439 307 147.32930439 307 209 307 c 0,0,1
EndSplineSet
EndChar

StartChar: exclamdown
Encoding: 161 161 98
Width: 550
GlyphClass: 2
Flags: W
HStem: 437 61<247 303>
VStem: 247 56<437 498> 249.88 48.2405<-218 304>
LayerCount: 2
Fore
SplineSet
266 304 m 1,0,-1
 282 304 l 1,1,-1
 291.881205777 304 l 1,2,-1
 298.120249602 -218 l 1,3,-1
 288 -218 l 1,4,-1
 260 -218 l 1,5,-1
 249.879750398 -218 l 1,6,-1
 256.118794223 304 l 1,7,-1
 266 304 l 1,0,-1
257 498 m 1,8,-1
 293 498 l 1,9,-1
 303 498 l 1,10,-1
 303 488 l 1,11,-1
 303 447 l 1,12,-1
 303 437 l 1,13,-1
 293 437 l 1,14,-1
 257 437 l 1,15,-1
 247 437 l 1,16,-1
 247 447 l 1,17,-1
 247 488 l 1,18,-1
 247 498 l 1,19,-1
 257 498 l 1,8,-1
EndSplineSet
Validated: 1
EndChar

StartChar: cent
Encoding: 162 162 99
Width: 550
GlyphClass: 2
Flags: W
HStem: -15.8589 39.0346<230.937 276 315 397.993> 468.805 42.0377<227.03 276 315 398.523>
VStem: 88 45<125.786 367.146> 276 39<-122 -15.8589 26.7903 465.213 510.843 621>
LayerCount: 2
Fore
SplineSet
315 -122 m 1,0,-1
 305 -122 l 1,1,-1
 286 -122 l 1,2,-1
 276 -122 l 1,3,-1
 276 -13.8011535911 l 1,4,5
 196.047814462 -2.08798732389 196.047814462 -2.08798732389 143.422594609 58.9771262794 c 0,6,7
 88 123.288250213 88 123.288250213 88 246.501817132 c 128,-1,8
 88 369.715384051 88 369.715384051 143.926797342 434.527747326 c 0,9,10
 196.99019119 496.021773841 196.99019119 496.021773841 276 507.784793408 c 1,11,-1
 276 621 l 1,12,-1
 286 621 l 1,13,-1
 305 621 l 1,14,-1
 315 621 l 1,15,-1
 315 510.842506933 l 1,16,17
 398.014285823 508.206464788 398.014285823 508.206464788 457.159085656 461.876371585 c 2,18,-1
 464.808512884 455.884320257 l 1,19,-1
 459.055549669 448.076727323 l 1,20,-1
 445.055549669 429.076727323 l 1,21,-1
 438.878173401 420.693145244 l 1,22,-1
 430.760126874 427.187582466 l 2,23,24
 382.044987702 466.159693803 382.044987702 466.159693803 315 468.804852369 c 1,25,-1
 315 23.1757031212 l 1,26,27
 386.765642511 25.7268059356 386.765642511 25.7268059356 435.67418783 65.7428884689 c 2,28,-1
 443.382269968 72.0495011275 l 1,29,-1
 449.722492593 64.3506593684 l 1,30,-1
 463.722492593 47.3506593684 l 1,31,-1
 470.231422412 39.4469588737 l 1,32,-1
 462.159085656 33.1236284148 l 2,33,34
 402.820827491 -13.3580071481 402.820827491 -13.3580071481 315 -15.8588592914 c 1,35,-1
 315 -122 l 1,0,-1
173.175163876 400.742570114 m 0,36,37
 133 343.827754622 133 343.827754622 133 246.489205701 c 128,-1,38
 133 149.15065678 133 149.15065678 173.197887445 91.7251032878 c 0,39,40
 209.690931056 39.5921838425 209.690931056 39.5921838425 276 26.7903006658 c 1,41,-1
 276 465.212537857 l 1,42,43
 209.667433849 452.439952575 209.667433849 452.439952575 173.175163876 400.742570114 c 0,36,37
EndSplineSet
Validated: 1
EndChar

StartChar: sterling
Encoding: 163 163 100
Width: 550
GlyphClass: 2
Flags: W
HStem: -10 44<122.688 481> 298 38<68 150.426 195.934 341> 670 39<202.631 362.734>
VStem: 99 43<444.26 615.664> 154.174 41.7599<151.674 298 336 401.212>
LayerCount: 2
Fore
SplineSet
70 0 m 1,0,-1
 70 24 l 1,1,-1
 70 27.338846813 l 1,2,-1
 72.0034896853 30.0025774173 l 2,3,4
 154.173913043 139.251890291 154.173913043 139.251890291 154.173913043 293.572778828 c 0,5,6
 154.173913043 295.781547776 154.173913043 295.781547776 154.157098961 298 c 1,7,-1
 68 298 l 1,8,-1
 68 308 l 1,9,-1
 68 326 l 1,10,-1
 68 336 l 1,11,-1
 150.42645568 336 l 1,12,13
 147.024300507 356.714841126 147.024300507 356.714841126 141.241567141 376.842968885 c 128,-1,14
 135.458833774 396.971096644 135.458833774 396.971096644 123.445016772 430.009093399 c 128,-1,15
 111.43119977 463.047090155 111.43119977 463.047090155 105.215599885 487.391523039 c 128,-1,16
 99 511.735955922 99 511.735955922 99 535 c 0,17,18
 99 607.851223865 99 607.851223865 144.78313025 658.425611933 c 128,-1,19
 190.566260501 709 190.566260501 709 278 709 c 0,20,21
 393.022992474 709 393.022992474 709 457.028287962 622.96009459 c 2,22,-1
 463.718818765 613.966266298 l 1,23,-1
 453.999645544 608.339376538 l 1,24,-1
 434.999645544 597.339376538 l 1,25,-1
 427.156168902 592.798416377 l 1,26,-1
 421.864764335 600.186415208 l 2,27,28
 371.863142794 670 371.863142794 670 275 670 c 0,29,30
 228.432211068 670 228.432211068 670 188.163320996 642.259209062 c 0,31,32
 167.914631558 628.310111893 167.914631558 628.310111893 154.957315779 600.544435224 c 128,-1,33
 142 572.778758555 142 572.778758555 142 537.279403489 c 128,-1,34
 142 501.780048423 142 501.780048423 162.596112506 446.209601749 c 128,-1,35
 183.192225011 390.639155075 183.192225011 390.639155075 193.367580489 336 c 1,36,-1
 341 336 l 1,37,-1
 341 326 l 1,38,-1
 341 308 l 1,39,-1
 341 298 l 1,40,-1
 195.933839041 298 l 1,41,42
 193.796392408 137.348159044 193.796392408 137.348159044 122.688473786 34 c 1,43,-1
 481 34 l 1,44,-1
 481 24 l 1,45,-1
 481 0 l 1,46,-1
 481 -10 l 1,47,-1
 70 -10 l 1,48,-1
 70 0 l 1,0,-1
EndSplineSet
Validated: 33
EndChar

StartChar: currency
Encoding: 164 164 101
Width: 550
GlyphClass: 2
Flags: W
HStem: 154.006 47.9942<204.543 346.726> 450 45<205.96 346.673>
VStem: 106.975 46.0249<254.628 397.192> 399 47<254.587 397.028>
LayerCount: 2
Fore
SplineSet
137.914047401 227.053409901 m 1,0,1
 106.975258272 272.034096676 106.975258272 272.034096676 106.975129136 326.857531042 c 128,-1,2
 106.975 381.680965407 106.975 381.680965407 141.743373946 429.117263554 c 1,3,-1
 87.8606375 483 l 1,4,-1
 94.93031875 490.06968125 l 1,5,-1
 111.93031875 507.06968125 l 1,6,-1
 119 514.1393625 l 1,7,-1
 172.845194759 460.294167741 l 1,8,9
 219.757524331 495 219.757524331 495 272.634067386 495 c 128,-1,10
 325.510610442 495 325.510610442 495 373.815941224 462.955303724 c 1,11,-1
 428 517.1393625 l 1,12,-1
 435.06968125 510.06968125 l 1,13,-1
 452.06968125 493.06968125 l 1,14,-1
 459.073601819 486.065760681 l 1,15,-1
 405.696259262 431.681298452 l 1,16,17
 446 384.4715732 446 384.4715732 446 328.519613655 c 128,-1,18
 446 272.567654111 446 272.567654111 411.12787506 223.01148744 c 1,19,-1
 465.1393625 169 l 1,20,-1
 458.06968125 161.93031875 l 1,21,-1
 440.06968125 143.93031875 l 1,22,-1
 433 136.8606375 l 1,23,-1
 379.275105834 190.585531666 l 1,24,25
 334.090810495 155.963337076 334.090810495 155.963337076 276.344237334 154.005826121 c 1,26,-1
 275.830378201 154.005826121 l 2,27,28
 216.64930929 154.99217727 216.64930929 154.99217727 168.525545726 194.386183226 c 1,29,-1
 113.445103483 139.305740983 l 1,30,-1
 106.673530171 149.463100949 l 2,31,32
 105.330101901 151.478243356 105.330101901 151.478243356 98.0962672414 158.195375539 c 128,-1,33
 90.8624325821 164.912507723 90.8624325821 164.912507723 89.0498966685 168.53757955 c 2,34,-1
 85.832670129 174.972032629 l 1,35,-1
 137.914047401 227.053409901 l 1,0,1
188.522968809 413.883910621 m 128,-1,37
 153 378.822279069 153 378.822279069 153 326.442872602 c 128,-1,38
 153 274.063466135 153 274.063466135 188.161590103 237.97657103 c 128,-1,39
 223.215684952 202 223.215684952 202 275.519229824 202 c 128,-1,40
 327.822774695 202 327.822774695 202 363.38450747 238.02357346 c 128,-1,41
 399 274.101604854 399 274.101604854 399 326 c 128,-1,42
 399 377.898395146 399 377.898395146 363.38450747 413.97642654 c 128,-1,43
 327.852881796 449.969501898 327.852881796 449.969501898 276.090500957 449.999970014 c 0,44,36
 224.144589531 449.042917895 224.144589531 449.042917895 188.522968809 413.883910621 c 128,-1,37
EndSplineSet
Validated: 33
EndChar

StartChar: yen
Encoding: 165 165 102
Width: 550
GlyphClass: 2
Flags: W
HStem: 182 43<73 253 298 480> 277 43<73 236.631 314.332 480>
VStem: 253 45<-10 182>
LayerCount: 2
Fore
SplineSet
480 277 m 1,0,-1
 73 277 l 1,1,-1
 73 287 l 1,2,-1
 73 310 l 1,3,-1
 73 320 l 1,4,-1
 236.630754089 320 l 1,5,-1
 38.6307540885 706 l 1,6,-1
 55 706 l 1,7,-1
 82 706 l 1,8,-1
 88.130743247 706 l 1,9,-1
 275.976945886 337.085550488 l 1,10,-1
 462.85486913 706 l 1,11,-1
 469 706 l 1,12,-1
 495 706 l 1,13,-1
 511.331564577 706 l 1,14,-1
 314.331564577 320 l 1,15,-1
 480 320 l 1,16,-1
 480 310 l 1,17,-1
 480 287 l 1,18,-1
 480 277 l 1,0,-1
73 225 m 1,19,-1
 480 225 l 1,20,-1
 480 215 l 1,21,-1
 480 192 l 1,22,-1
 480 182 l 1,23,-1
 298 182 l 1,24,-1
 298 -10 l 1,25,-1
 288 -10 l 1,26,-1
 263 -10 l 1,27,-1
 253 -10 l 1,28,-1
 253 182 l 1,29,-1
 73 182 l 1,30,-1
 73 192 l 1,31,-1
 73 215 l 1,32,-1
 73 225 l 1,19,-1
EndSplineSet
Validated: 1
EndChar

StartChar: brokenbar
Encoding: 166 166 103
Width: 550
GlyphClass: 2
Flags: W
VStem: 255 39<-172 261 295 726>
LayerCount: 2
Fore
SplineSet
284 295 m 1,0,-1
 265 295 l 1,1,-1
 255 295 l 1,2,-1
 255 726 l 1,3,-1
 265 726 l 1,4,-1
 284 726 l 1,5,-1
 294 726 l 1,6,-1
 294 295 l 1,7,-1
 284 295 l 1,0,-1
265 261 m 1,8,-1
 284 261 l 1,9,-1
 294 261 l 1,10,-1
 294 -172 l 1,11,-1
 284 -172 l 1,12,-1
 265 -172 l 1,13,-1
 255 -172 l 1,14,-1
 255 261 l 1,15,-1
 265 261 l 1,8,-1
EndSplineSet
Validated: 1
EndChar

StartChar: section
Encoding: 167 167 104
Width: 550
GlyphClass: 2
Flags: W
HStem: -90 43<171.164 349.17> 669 44<189.253 355.207>
VStem: 91 44<294.862 415.569> 106 45<510.896 631.301> 397 44<-3.35877 128.378> 413 45<209.785 341.91>
LayerCount: 2
Fore
SplineSet
129.285171431 1.77596368056 m 2,0,1
 189.537832448 -47 189.537832448 -47 255.151836276 -47 c 128,-1,2
 320.765840104 -47 320.765840104 -47 358.882920052 -19.4454843751 c 128,-1,3
 397 8.10903124981 397 8.10903124981 397 67 c 0,4,5
 397 113.205562473 397 113.205562473 361.540905254 141.666151677 c 0,6,7
 327.328414765 169.126176939 327.328414765 169.126176939 253.561325601 195.607879174 c 0,8,9
 161.609756253 229.323454601 161.609756253 229.323454601 126.304878127 263.02356554 c 128,-1,10
 91 296.723676479 91 296.723676479 91 358.374372783 c 128,-1,11
 91 420.025069088 91 420.025069088 147.952780512 468.652422284 c 1,12,13
 106 512 106 512 106 564 c 0,14,15
 106 631.327246767 106 631.327246767 149.522980341 672.163623383 c 128,-1,16
 193.045960683 713 193.045960683 713 265 713 c 0,17,18
 355.551507306 713 355.551507306 713 417.304177759 662.760539292 c 2,19,-1
 424.873927699 656.602098663 l 1,20,-1
 418.917161286 648.893342129 l 1,21,-1
 401.917161286 626.893342129 l 1,22,-1
 395.557424634 618.663094697 l 1,23,-1
 387.590491971 625.326347469 l 2,24,25
 335.371994379 669 335.371994379 669 265 669 c 0,26,27
 212.825258744 669 212.825258744 669 181.912629372 641.269553064 c 128,-1,28
 151 613.539106127 151 613.539106127 151 569 c 0,29,30
 151 552.718551607 151 552.718551607 159.432944169 528.825209794 c 0,31,32
 161.729550929 522.318157308 161.729550929 522.318157308 169.532775101 514.055919949 c 128,-1,33
 177.335999272 505.793682591 177.335999272 505.793682591 181.839841105 500.839456576 c 128,-1,34
 186.343682937 495.88523056 186.343682937 495.88523056 198.759229378 488.722415306 c 128,-1,35
 211.174775818 481.559600052 211.174775818 481.559600052 216.417008405 478.22363386 c 128,-1,36
 221.659240991 474.887667669 221.659240991 474.887667669 237.597095007 468.126153844 c 128,-1,37
 253.534949023 461.364640019 253.534949023 461.364640019 257.941861972 459.895669036 c 128,-1,38
 262.348774921 458.426698053 262.348774921 458.426698053 280.848774921 451.426698053 c 0,39,40
 298.023620635 444.928107783 298.023620635 444.928107783 302.402890043 443.405163912 c 0,41,42
 373.197804668 417.754832526 373.197804668 417.754832526 415.598902334 380.123858347 c 128,-1,43
 458 342.492884169 458 342.492884169 458 279 c 0,44,45
 458 208.492879617 458 208.492879617 406.961100254 162.725194177 c 1,46,47
 441 118.795605596 441 118.795605596 441 65 c 0,48,49
 441 -4.48821223157 441 -4.48821223157 392.89961938 -47.2441061158 c 128,-1,50
 344.799238761 -90 344.799238761 -90 258 -90 c 0,51,52
 216.101543597 -90 216.101543597 -90 172.348901845 -72.811462169 c 128,-1,53
 128.597312316 -55.623337711 128.597312316 -55.623337711 100.209356479 -29.3381934176 c 2,54,-1
 92.5834596577 -22.2771778423 l 1,55,-1
 99.93031875 -14.93031875 l 1,56,-1
 115.93031875 1.06968125 l 1,57,-1
 122.295172082 7.43453458188 l 1,58,-1
 129.285171431 1.77596368056 l 2,0,1
413 278 m 0,59,60
 413 327.093689046 413 327.093689046 379.390324734 353.085171251 c 0,61,62
 343.125522503 381.129951644 343.125522503 381.129951644 267.586250702 408.598777753 c 0,63,64
 230.34688357 421.966755698 230.34688357 421.966755698 186.076175782 445.125460659 c 1,65,66
 135.000000071 403.862333783 135.000000071 403.862333783 135 357 c 0,67,68
 135 309.655789637 135 309.655789637 165.454666155 287.03232335 c 0,69,70
 182.191676157 274.59911592 182.191676157 274.59911592 196.1179578 267.876083403 c 128,-1,71
 210.044239442 261.153050886 210.044239442 261.153050886 233.394811325 251.713457997 c 0,72,73
 332.859320166 211.504401232 332.859320166 211.504401232 372.125771253 189.970771583 c 1,74,75
 413 223 413 223 413 278 c 0,59,60
EndSplineSet
Validated: 1
EndChar

StartChar: dieresis
Encoding: 168 168 105
Width: 550
GlyphClass: 2
Flags: W
HStem: 614 56<169 227 323 381>
VStem: 169 58<614 670> 323 58<614 670>
LayerCount: 2
Fore
SplineSet
323 624 m 1,0,-1
 323 660 l 1,1,-1
 323 670 l 1,2,-1
 333 670 l 1,3,-1
 371 670 l 1,4,-1
 381 670 l 1,5,-1
 381 660 l 1,6,-1
 381 624 l 1,7,-1
 381 614 l 1,8,-1
 371 614 l 1,9,-1
 333 614 l 1,10,-1
 323 614 l 1,11,-1
 323 624 l 1,0,-1
169 624 m 1,12,-1
 169 660 l 1,13,-1
 169 670 l 1,14,-1
 179 670 l 1,15,-1
 217 670 l 1,16,-1
 227 670 l 1,17,-1
 227 660 l 1,18,-1
 227 624 l 1,19,-1
 227 614 l 1,20,-1
 217 614 l 1,21,-1
 179 614 l 1,22,-1
 169 614 l 1,23,-1
 169 624 l 1,12,-1
EndSplineSet
Validated: 1
EndChar

StartChar: copyright
Encoding: 169 169 106
Width: 550
GlyphClass: 2
Flags: W
HStem: -17 40<171.276 381.462> 121 43<212.873 347.331> 519 43<213.327 347.432> 672 41<170.676 383.018>
VStem: 11 42<140.532 554.619> 129 44<205.83 477.728> 499 42<139.578 558.866>
LayerCount: 2
Fore
SplineSet
82.8792535405 640.018247344 m 128,-1,1
 154.81840973 713 154.81840973 713 276.968081763 713 c 128,-1,2
 399.117753796 713 399.117753796 713 470.043345529 642.59591997 c 128,-1,3
 541 572.161005606 541 572.161005606 541 460 c 2,4,-1
 541 243 l 2,5,6
 541 124.796554585 541 124.796554585 468.491547275 53.8530324944 c 128,-1,7
 396.07558024 -17 396.07558024 -17 278 -17 c 0,8,9
 149.667526816 -17 149.667526816 -17 80.3337634081 57.0255218342 c 128,-1,10
 11 131.051043668 11 131.051043668 11 243 c 2,11,-1
 11 460 l 2,12,0
 11 567.097265491 11 567.097265491 82.8792535405 640.018247344 c 128,-1,1
440.401535732 612.959218534 m 128,-1,14
 381.836889601 672 381.836889601 672 277.011422016 672 c 128,-1,15
 172.185954432 672 172.185954432 672 112.625993765 611.487079963 c 128,-1,16
 53 550.907070297 53 550.907070297 53 458 c 2,17,-1
 53 238 l 2,18,19
 53 145.976927918 53 145.976927918 111.151880644 84.4884639592 c 128,-1,20
 169.303761287 23 169.303761287 23 279 23 c 0,21,22
 382.742454985 23 382.742454985 23 440.788735982 83.4252269396 c 128,-1,23
 499 144.022198499 499 144.022198499 499 244 c 2,24,-1
 499 458 l 2,25,13
 499 553.884343988 499 553.884343988 440.401535732 612.959218534 c 128,-1,14
283 121 m 0,26,27
 207.408813208 121 207.408813208 121 168.204406604 166.648966594 c 128,-1,28
 129 212.297933187 129 212.297933187 129 281 c 2,29,-1
 129 405 l 2,30,31
 129 470.853176831 129 470.853176831 170.284149318 516.426588415 c 128,-1,32
 211.568298636 562 211.568298636 562 283 562 c 0,33,34
 327.733788836 562 327.733788836 562 363.076565091 541.115632213 c 128,-1,35
 398.518229947 520.172830253 398.518229947 520.172830253 417.844005252 483.668588009 c 2,36,-1
 422.303241719 475.245585794 l 1,37,-1
 414.076565091 470.384367787 l 1,38,-1
 392.076565091 457.384367787 l 1,39,-1
 382.85195541 451.933462067 l 1,40,-1
 378.049896668 461.53757955 l 2,41,42
 365.292675537 487.052021813 365.292675537 487.052021813 340.141728972 503.057169627 c 128,-1,43
 315.088709815 519 315.088709815 519 284 519 c 0,44,45
 229.498902889 519 229.498902889 519 201.249451444 487.105458047 c 128,-1,46
 173 455.210916093 173 455.210916093 173 404 c 2,47,-1
 173 279 l 2,48,49
 173 228.748938857 173 228.748938857 201.270663445 196.374469428 c 128,-1,50
 229.541326889 164 229.541326889 164 284 164 c 0,51,52
 347.859813653 164 347.859813653 164 379.076589172 225.515410583 c 2,53,-1
 383.346271036 233.929195431 l 1,54,-1
 391.979744174 230.175511458 l 1,55,-1
 414.979744174 220.175511458 l 1,56,-1
 424.350236418 216.101384396 l 1,57,-1
 420.092019348 206.833500185 l 2,58,59
 401.851613676 167.133793722 401.851613676 167.133793722 365.334083297 144.041825983 c 128,-1,60
 328.89584686 121 328.89584686 121 283 121 c 0,26,27
EndSplineSet
Validated: 1
EndChar

StartChar: ordfeminine
Encoding: 170 170 107
Width: 570
GlyphClass: 2
Flags: W
HStem: 261 39<207.754 353.417> 429 30.1074<208.56 387> 565 39<214.486 361.508>
VStem: 142 41<321.16 410.386> 387 41<265.786 294.55 329.627 429 459.107 540.318>
LayerCount: 2
Fore
SplineSet
264 459.107421875 m 2,0,-1
 387 459.107421875 l 1,1,2
 387 464.586914062 387 464.586914062 387 484.233398438 c 2,3,4
 387 529.112304688 387 529.112304688 358.276367188 548.4140625 c 0,5,6
 334.421875 565 334.421875 565 290 565 c 0,7,8
 233.643554688 565 233.643554688 565 192.4296875 530.34375 c 2,9,10
 188.663085938 517.17578125 188.663085938 517.17578125 184.895507812 524.0078125 c 1,11,12
 181.66796875 517.731445312 181.66796875 517.731445312 178.44140625 531.456054688 c 1,13,14
 171.94140625 528.956054688 171.94140625 528.956054688 165.44140625 546.456054688 c 1,15,16
 162.1796875 540.219726562 162.1796875 540.219726562 158.916992188 553.983398438 c 1,17,18
 162.674804688 547.260742188 162.674804688 547.260742188 166.431640625 560.538085938 c 2,19,20
 216.25390625 604 216.25390625 604 292 604 c 0,21,22
 351.12109375 604 351.12109375 604 384.791992188 580.697265625 c 0,23,24
 428 550.794921875 428 550.794921875 428 485 c 2,25,26
 428 370.504882812 428 370.504882812 428 265.786132812 c 1,27,-1
 418 265.786132812 l 1,28,-1
 397 265.786132812 l 1,29,-1
 387 265.786132812 l 1,30,31
 387 270.163085938 387 270.163085938 387 275.359375 c 1,32,33
 387 283.930664062 387 283.930664062 387 294.549804688 c 1,34,35
 348.990234375 261 348.990234375 261 274 261 c 0,36,37
 219.009765625 261 219.009765625 261 180.504882812 285.452148438 c 128,-1,38
 142 309.904296875 142 309.904296875 142 360.537109375 c 0,39,40
 142 406.575195312 142 406.575195312 174.171875 432.841796875 c 128,-1,41
 206.34375 459.107421875 206.34375 459.107421875 264 459.107421875 c 2,0,-1
387 380 m 2,42,-1
 387 429 l 1,43,-1
 268 429 l 2,44,45
 227.3828125 429 227.3828125 429 205.19140625 412.030273438 c 128,-1,46
 183 395.059570312 183 395.059570312 183 364.692382812 c 128,-1,47
 183 334.325195312 183 334.325195312 208.524414062 317.163085938 c 128,-1,48
 234.047851562 300 234.047851562 300 279.96484375 300 c 128,-1,49
 325.881835938 300 325.881835938 300 356.44140625 321.122070312 c 128,-1,50
 387 342.243164062 387 342.243164062 387 380 c 2,42,-1
EndSplineSet
EndChar

StartChar: guillemotleft
Encoding: 171 171 108
Width: 550
GlyphClass: 2
Flags: W
VStem: 133.926 287.758
LayerCount: 2
Fore
SplineSet
286 36 m 1,0,-1
 257 36 l 1,1,-1
 251.657881221 36 l 1,2,-1
 133.926430974 212.066853523 l 1,3,-1
 253.729131288 387 l 1,4,-1
 259 387 l 1,5,-1
 286 387 l 1,6,-1
 304.684402529 387 l 1,7,-1
 188.006607402 211.983307309 l 1,8,-1
 304.622052004 36 l 1,9,-1
 286 36 l 1,0,-1
403 36 m 1,10,-1
 374 36 l 1,11,-1
 368.657881221 36 l 1,12,-1
 250.926430974 212.066853523 l 1,13,-1
 370.729131288 387 l 1,14,-1
 376 387 l 1,15,-1
 403 387 l 1,16,-1
 421.684402529 387 l 1,17,-1
 305.006607402 211.983307309 l 1,18,-1
 421.622052004 36 l 1,19,-1
 403 36 l 1,10,-1
EndSplineSet
Validated: 1
EndChar

StartChar: logicalnot
Encoding: 172 172 109
Width: 550
GlyphClass: 2
Flags: W
HStem: 251 44<65 441>
VStem: 441 43<55 251>
LayerCount: 2
Fore
SplineSet
484 295 m 1,0,-1
 484 55 l 1,1,-1
 474 55 l 1,2,-1
 451 55 l 1,3,-1
 441 55 l 1,4,-1
 441 251 l 1,5,-1
 65 251 l 1,6,-1
 65 261 l 1,7,-1
 65 285 l 1,8,-1
 65 295 l 1,9,-1
 484 295 l 1,0,-1
EndSplineSet
Validated: 1
EndChar

StartChar: sfthyphen
Encoding: 173 173 110
Width: 550
GlyphClass: 2
Flags: W
HStem: 243 46<139 410>
VStem: 139 271<243 289>
LayerCount: 2
Fore
SplineSet
139 253 m 1,0,-1
 139 279 l 1,1,-1
 139 289 l 1,2,-1
 410 289 l 1,3,-1
 410 279 l 1,4,-1
 410 253 l 1,5,-1
 410 243 l 1,6,-1
 139 243 l 1,7,-1
 139 253 l 1,0,-1
EndSplineSet
Validated: 1
EndChar

StartChar: registered
Encoding: 174 174 111
Width: 550
GlyphClass: 2
Flags: W
HStem: 270 36<199.861 350.683> 473 36<231 285.939> 588 36<231 329.463> 678 36<199.936 351.057>
VStem: 64 41<400.883 583.117> 193 38<360 473 509 588> 343 39<518.004 579.918> 446 40<403.152 581.281>
LayerCount: 2
Fore
SplineSet
125.282877359 649.919123081 m 128,-1,1
 186.737488831 714 186.737488831 714 276.013323038 714 c 128,-1,2
 365.289157246 714 365.289157246 714 425.644578623 650.495600116 c 128,-1,3
 486 586.991200233 486 586.991200233 486 492.49938104 c 128,-1,4
 486 398.007561847 486 398.007561847 425.143946007 334.003780924 c 128,-1,5
 364.287892014 270 364.287892014 270 275.512690422 270 c 128,-1,6
 186.737488831 270 186.737488831 270 125.282877359 334.080876919 c 128,-1,7
 64 397.982680661 64 397.982680661 64 492 c 128,-1,0
 64 586.017319339 64 586.017319339 125.282877359 649.919123081 c 128,-1,1
275 678 m 128,-1,9
 202.413267573 678 202.413267573 678 153.706633786 624.564566817 c 128,-1,10
 105 571.129133634 105 571.129133634 105 492 c 128,-1,11
 105 412.870866366 105 412.870866366 153.706633786 359.435433183 c 128,-1,12
 202.413267573 306 202.413267573 306 275 306 c 128,-1,13
 347.615488655 306 347.615488655 306 396.807744328 359.449277798 c 128,-1,14
 446 412.898555596 446 412.898555596 446 492 c 128,-1,15
 446 571.101444404 446 571.101444404 396.807744328 624.550722202 c 128,-1,8
 347.615488655 678 347.615488655 678 275 678 c 128,-1,9
231 473 m 1,16,-1
 231 360 l 1,17,-1
 221 360 l 1,18,-1
 203 360 l 1,19,-1
 193 360 l 1,20,-1
 193 624 l 1,21,-1
 299 624 l 2,22,23
 334.604345031 624 334.604345031 624 358.302172515 604.348143061 c 128,-1,24
 382 584.696286123 382 584.696286123 382 552.987256757 c 128,-1,25
 382 521.278227391 382 521.278227391 363.565809689 499.963694844 c 0,26,27
 349.34983852 483.52647818 349.34983852 483.52647818 326.983876325 477.002895767 c 1,28,-1
 388.564347782 360 l 1,29,-1
 372 360 l 1,30,-1
 351 360 l 1,31,-1
 344.939468885 360 l 1,32,-1
 285.939468885 473 l 1,33,-1
 231 473 l 1,16,-1
231 509 m 1,34,-1
 294 509 l 2,35,36
 317.347498193 509 317.347498193 509 330.173749097 519.8221492 c 128,-1,37
 343 530.644298399 343 530.644298399 343 549.776700133 c 128,-1,38
 343 568.909101866 343 568.909101866 329.875007533 578.454550933 c 128,-1,39
 316.750015065 588 316.750015065 588 295 588 c 2,40,-1
 231 588 l 1,41,-1
 231 509 l 1,34,-1
EndSplineSet
Validated: 1
EndChar

StartChar: macron
Encoding: 175 175 112
Width: 550
GlyphClass: 2
Flags: W
HStem: 590 44<141 409>
VStem: 141 268<590 634>
LayerCount: 2
Fore
SplineSet
141 600 m 1,0,-1
 141 624 l 1,1,-1
 141 634 l 1,2,-1
 409 634 l 1,3,-1
 409 624 l 1,4,-1
 409 600 l 1,5,-1
 409 590 l 1,6,-1
 141 590 l 1,7,-1
 141 600 l 1,0,-1
EndSplineSet
Validated: 1
EndChar

StartChar: degree
Encoding: 176 176 113
Width: 550
GlyphClass: 2
Flags: W
HStem: 455 41<220.078 331.094> 668 40<220.962 328.703>
VStem: 148 43<524.325 639.873> 359 43<522.945 639.087>
LayerCount: 2
Fore
SplineSet
275 455 m 128,-1,1
 221.8606375 455 221.8606375 455 184.93031875 491.93031875 c 128,-1,2
 148 528.8606375 148 528.8606375 148 581.521422594 c 128,-1,3
 148 634.182207688 148 634.182207688 185.482506203 671.121489164 c 128,-1,4
 222.903348081 708 222.903348081 708 276.5434232 708 c 128,-1,5
 330.183498319 708 330.183498319 708 366.123041323 671.515918466 c 128,-1,6
 402 635.095369506 402 635.095369506 402 582 c 128,-1,7
 402 528.8606375 402 528.8606375 365.06968125 491.93031875 c 128,-1,0
 328.1393625 455 328.1393625 455 275 455 c 128,-1,1
334.366431481 642.994784171 m 128,-1,9
 309.807737364 668 309.807737364 668 274.527033424 668 c 128,-1,10
 239.246329484 668 239.246329484 668 215.198005982 643.06099785 c 128,-1,11
 191 617.966769424 191 617.966769424 191 582 c 128,-1,12
 191 546.033230576 191 546.033230576 215.198005982 520.93900215 c 128,-1,13
 239.246329484 496 239.246329484 496 275 496 c 128,-1,14
 310.91529845 496 310.91529845 496 334.997205078 519.635945394 c 128,-1,15
 359 543.194244114 359 543.194244114 359 580.553788351 c 128,-1,8
 359 617.913332588 359 617.913332588 334.366431481 642.994784171 c 128,-1,9
EndSplineSet
Validated: 1
EndChar

StartChar: plusminus
Encoding: 177 177 114
Width: 550
GlyphClass: 2
Flags: W
HStem: -10 44<64 485> 251 44<64 252 295 483>
VStem: 252 43<55 251 295 488>
LayerCount: 2
Fore
SplineSet
64 0 m 1,0,-1
 64 24 l 1,1,-1
 64 34 l 1,2,-1
 485 34 l 1,3,-1
 485 24 l 1,4,-1
 485 0 l 1,5,-1
 485 -10 l 1,6,-1
 64 -10 l 1,7,-1
 64 0 l 1,0,-1
295 295 m 1,8,-1
 483 295 l 1,9,-1
 483 285 l 1,10,-1
 483 261 l 1,11,-1
 483 251 l 1,12,-1
 295 251 l 1,13,-1
 295 55 l 1,14,-1
 285 55 l 1,15,-1
 262 55 l 1,16,-1
 252 55 l 1,17,-1
 252 251 l 1,18,-1
 64 251 l 1,19,-1
 64 261 l 1,20,-1
 64 285 l 1,21,-1
 64 295 l 1,22,-1
 252 295 l 1,23,-1
 252 488 l 1,24,-1
 262 488 l 1,25,-1
 285 488 l 1,26,-1
 295 488 l 1,27,-1
 295 295 l 1,8,-1
EndSplineSet
Validated: 1
EndChar

StartChar: twosuperior
Encoding: 178 178 115
Width: 550
GlyphClass: 2
Flags: W
HStem: 356 41<203.524 406> 756 39<218.923 339.549>
VStem: 364 43<626.534 734.478>
LayerCount: 2
Fore
SplineSet
278 795 m 0,0,1
 338.895438887 795 338.895438887 795 372.947719443 763.693871101 c 128,-1,2
 407 732.387742202 407 732.387742202 407 685.377469935 c 128,-1,3
 407 638.367197667 407 638.367197667 373.644531913 598.555832531 c 2,4,-1
 203.524006578 397 l 1,5,-1
 406 397 l 1,6,-1
 406 387 l 1,7,-1
 406 366 l 1,8,-1
 406 356 l 1,9,-1
 143 356 l 1,10,-1
 143 366 l 1,11,-1
 143 386 l 1,12,-1
 142.999997899 389.658265923 l 1,13,-1
 342.405061693 625.502473874 l 2,14,15
 364 650.696568565 364 650.696568565 364 683.096977578 c 128,-1,16
 364 715.497386591 364 715.497386591 341.107218508 735.748693295 c 128,-1,17
 318.214437015 756 318.214437015 756 277 756 c 0,18,19
 247.050687153 756 247.050687153 756 223.707840287 740.288468456 c 128,-1,20
 200.364993421 724.576936912 200.364993421 724.576936912 191.456582367 698.742544854 c 2,21,-1
 188.558765743 690.338876644 l 1,22,-1
 179.86905648 692.227943875 l 1,23,-1
 156.86905648 697.227943875 l 1,24,-1
 145.894146088 699.613793961 l 1,25,-1
 149.537733737 710.240924605 l 2,26,27
 162.654116666 748.497041481 162.654116666 748.497041481 198.342433669 771.74852074 c 128,-1,28
 234.030750673 795 234.030750673 795 278 795 c 0,0,1
EndSplineSet
Validated: 1
EndChar

StartChar: threesuperior
Encoding: 179 179 116
Width: 550
GlyphClass: 2
Flags: W
HStem: 352 40<200.979 330.515> 570 40<228 334.158> 701.173 21G<174.679 186.453> 759 39<208.998 333.755>
VStem: 358 44<631.293 737.572> 366 43<424.542 543.245>
LayerCount: 2
Fore
SplineSet
270 392 m 0,0,1
 309.200761239 392 309.200761239 392 337.60038062 417.244106116 c 128,-1,2
 366 442.488212232 366 442.488212232 366 482.646984059 c 128,-1,3
 366 522.805755886 366 522.805755886 341.997205078 546.364054606 c 128,-1,4
 317.91529845 570 317.91529845 570 281 570 c 2,5,-1
 238 570 l 1,6,-1
 228 570 l 1,7,-1
 228 580 l 1,8,-1
 228 600 l 1,9,-1
 228 610 l 1,10,-1
 238 610 l 1,11,-1
 276 610 l 2,12,13
 312.214437015 610 312.214437015 610 335.107218508 630.251306705 c 128,-1,14
 358 650.502613409 358 650.502613409 358 684 c 128,-1,15
 358 717.61941097 358 717.61941097 335.548829356 738.309705485 c 128,-1,16
 313.097658712 759 313.097658712 759 267 759 c 0,17,18
 240.678082575 759 240.678082575 759 217.454898975 745.602009462 c 128,-1,19
 194.231715375 732.204018923 194.231715375 732.204018923 186.452744078 709.731435175 c 2,20,-1
 183.490308517 701.173288001 l 1,21,-1
 174.678544476 703.271327058 l 1,22,-1
 153.678544476 708.271327058 l 1,23,-1
 142.170770278 711.011273296 l 1,24,-1
 146.789576208 721.898458702 l 2,25,26
 162.03639271 757.837383313 162.03639271 757.837383313 194.60067651 777.918691657 c 128,-1,27
 227.16496031 798 227.16496031 798 270 798 c 0,28,29
 330.907037244 798 330.907037244 798 366.453518622 765.187863343 c 128,-1,30
 402 732.375726687 402 732.375726687 402 686 c 0,31,32
 402 657.489014142 402 657.489014142 385.820974136 627.288165863 c 0,33,34
 374.003615954 605.229097255 374.003615954 605.229097255 351.570717857 591.439166282 c 1,35,36
 377.96661854 576.613887268 377.96661854 576.613887268 391.394033615 550.572839852 c 0,37,38
 409 516.427935347 409 516.427935347 409 485 c 0,39,40
 409 428.659885189 409 428.659885189 367.970765674 390.329942594 c 128,-1,41
 326.941531347 352 326.941531347 352 271 352 c 0,42,43
 170.267064279 352 170.267064279 352 141.731098003 422.242378526 c 2,44,-1
 137.949158311 431.551768537 l 1,45,-1
 147.291910891 435.288869569 l 1,46,-1
 167.291910891 443.288869569 l 1,47,-1
 176.641909342 447.028868949 l 1,48,-1
 180.316340884 437.638655011 l 2,49,50
 187.990241807 418.027574874 187.990241807 418.027574874 211.774060226 405.013787437 c 128,-1,51
 235.557878645 392 235.557878645 392 270 392 c 0,0,1
EndSplineSet
Validated: 1
EndChar

StartChar: acute
Encoding: 180 180 117
Width: 550
GlyphClass: 2
Flags: W
HStem: 566.113 176.043
VStem: 204.167 142.943
LayerCount: 2
Fore
SplineSet
228.304464635 570.170313791 m 1,0,-1
 213.304464635 578.170313791 l 1,1,-1
 204.167447091 583.043389815 l 1,2,-1
 296.049657015 742.156485049 l 1,3,-1
 304.46242045 737.950103332 l 1,4,-1
 336.46242045 721.950103332 l 1,5,-1
 347.110621504 716.626002805 l 1,6,-1
 235.911058897 566.113463518 l 1,7,-1
 228.304464635 570.170313791 l 1,0,-1
EndSplineSet
Validated: 1
EndChar

StartChar: mu
Encoding: 181 181 118
AltUni2: 0003bc.ffffffff.0
Width: 550
GlyphClass: 2
Flags: W
HStem: -25 62<190.47 353.48>
VStem: 68 65<-220 21.4461 91.9102 516> 418 63<-20 30.0844 103.238 516>
LayerCount: 2
Fore
SplineSet
113 -220 m 1,0,-1
 88 -220 l 1,1,-1
 78 -220 l 1,2,-1
 68 -220 l 1,3,-1
 68 516 l 1,4,-1
 78 516 l 1,5,-1
 88 516 l 1,6,-1
 113 516 l 1,7,-1
 123 516 l 1,8,-1
 133 516 l 1,9,-1
 133 169 l 2,10,11
 133 106.107898281 133 106.107898281 172.737041512 71.5539491407 c 128,-1,12
 212.474083024 37 212.474083024 37 274.972425035 37 c 128,-1,13
 337.470767045 37 337.470767045 37 377.735383523 79.0152519763 c 128,-1,14
 418 121.030503953 418 121.030503953 418 190 c 2,15,-1
 418 516 l 1,16,-1
 428 516 l 1,17,-1
 438 516 l 1,18,-1
 461 516 l 1,19,-1
 471 516 l 1,20,-1
 481 516 l 1,21,-1
 481 -20 l 1,22,-1
 471 -20 l 1,23,-1
 461 -20 l 1,24,-1
 438 -20 l 1,25,-1
 428 -20 l 1,26,-1
 418 -20 l 1,27,-1
 418 -10 l 1,28,-1
 418 30.084435779 l 1,29,30
 399.978006895 11.8816459683 399.978006895 11.8816459683 377.082297651 0.179394577029 c 0,31,32
 327.818264783 -25 327.818264783 -25 272.035924971 -25 c 128,-1,33
 216.325435102 -25 216.325435102 -25 170.661382878 -2.44305853993 c 0,34,35
 149.938441379 7.79357521272 149.938441379 7.79357521272 133 21.4461209054 c 1,36,-1
 133 -220 l 1,37,-1
 123 -220 l 1,38,-1
 113 -220 l 1,0,-1
EndSplineSet
Validated: 1
EndChar

StartChar: paragraph
Encoding: 182 182 119
Width: 550
GlyphClass: 2
Flags: W
HStem: 693 51<286 373 425 497>
VStem: 53 233<461.255 654.594> 234 52<-91 367.205> 373 52<-91 693>
LayerCount: 2
Fore
SplineSet
425 693 m 1,0,-1
 425 -91 l 1,1,-1
 415 -91 l 1,2,-1
 383 -91 l 1,3,-1
 373 -91 l 1,4,-1
 373 693 l 1,5,-1
 286 693 l 1,6,-1
 286 -91 l 1,7,-1
 276 -91 l 1,8,-1
 244 -91 l 1,9,-1
 234 -91 l 1,10,-1
 234 367.205223301 l 1,11,12
 160.569710387 370.246354715 160.569710387 370.246354715 108.75608031 417.618816499 c 0,13,14
 53 468.595804211 53 468.595804211 53 558 c 0,15,16
 53 639.924097563 53 639.924097563 101.320954703 691.962048781 c 128,-1,17
 149.641909406 744 149.641909406 744 244 744 c 2,18,-1
 497 744 l 1,19,-1
 497 734 l 1,20,-1
 497 703 l 1,21,-1
 497 693 l 1,22,-1
 425 693 l 1,0,-1
EndSplineSet
Validated: 1
EndChar

StartChar: periodcentered
Encoding: 183 183 120
Width: 550
GlyphClass: 2
Flags: W
HStem: 228 67<244 305>
VStem: 244 61<228 295>
LayerCount: 2
Fore
SplineSet
295 228 m 1,0,-1
 254 228 l 1,1,-1
 244 228 l 1,2,-1
 244 238 l 1,3,-1
 244 285 l 1,4,-1
 244 295 l 1,5,-1
 254 295 l 1,6,-1
 295 295 l 1,7,-1
 305 295 l 1,8,-1
 305 285 l 1,9,-1
 305 238 l 1,10,-1
 305 228 l 1,11,-1
 295 228 l 1,0,-1
EndSplineSet
Validated: 1
EndChar

StartChar: cedilla
Encoding: 184 184 121
Width: 550
GlyphClass: 2
Flags: W
HStem: -196 41<192.982 306.628>
VStem: 316 46<-146.816 -87.2486>
LayerCount: 2
Fore
SplineSet
362 -119 m 0,0,1
 362 -148.276323521 362 -148.276323521 336.902132687 -172.233378683 c 128,-1,2
 312.003767498 -196 312.003767498 -196 260 -196 c 0,3,4
 225.008656939 -196 225.008656939 -196 194.18301605 -183.244562391 c 2,5,-1
 185.290725581 -179.564993921 l 1,6,-1
 188.613170938 -170.546927952 l 1,7,-1
 195.613170938 -151.546927952 l 1,8,-1
 199.000952724 -142.351520246 l 1,9,-1
 208.257455146 -145.543417633 l 2,10,11
 235.681544011 -155 235.681544011 -155 260 -155 c 128,-1,12
 284.373430251 -155 284.373430251 -155 301.597443765 -145.283889813 c 0,13,14
 316 -137.159370911 316 -137.159370911 316 -118.010484119 c 128,-1,15
 316 -98.8615973268 316 -98.8615973268 296.1245952 -87.7313706386 c 0,16,17
 273.390004774 -75 273.390004774 -75 240 -75 c 2,18,-1
 236.494604956 -75 l 1,19,-1
 233.760126874 -72.8124175343 l 1,20,-1
 228.760126874 -68.8124175343 l 1,21,-1
 223.360577434 -64.4927779828 l 1,22,-1
 248.719782629 14 l 1,23,-1
 256 14 l 1,24,-1
 278 14 l 1,25,-1
 291.96421493 14 l 1,26,-1
 287.470467937 0.783097077273 l 1,27,-1
 274.467843969 -37.4599145909 l 1,28,29
 308.481261646 -42.2178872516 308.481261646 -42.2178872516 329.407958283 -56.0157092104 c 0,30,31
 362 -77.5049674852 362 -77.5049674852 362 -119 c 0,0,1
EndSplineSet
Validated: 1
EndChar

StartChar: onesuperior
Encoding: 185 185 122
Width: 550
GlyphClass: 2
Flags: W
HStem: 698.595 21G<168 212.889>
VStem: 269 45<356 743.595>
LayerCount: 2
Fore
SplineSet
269 356 m 1,0,-1
 269 743.595447237 l 1,1,-1
 168 698.595447237 l 1,2,-1
 168 714 l 1,3,-1
 168 739 l 1,4,-1
 168 745.461494393 l 1,5,-1
 277.846251564 795 l 1,6,-1
 280 795 l 1,7,-1
 302 795 l 1,8,-1
 312 795 l 1,9,-1
 312 399 l 1,10,-1
 314 399 l 1,11,-1
 314 389 l 1,12,-1
 314 366 l 1,13,-1
 314 356 l 1,14,-1
 304 356 l 1,15,-1
 279 356 l 1,16,-1
 269 356 l 1,0,-1
EndSplineSet
Validated: 1
EndChar

StartChar: ordmasculine
Encoding: 186 186 123
Width: 570
GlyphClass: 2
Flags: W
HStem: 259 41<217.107 355.625> 565 39<219.416 350.393>
VStem: 136 42<340.873 522.578> 392 41<336.675 521.397>
LayerCount: 2
Fore
SplineSet
176.8359375 560.4765625 m 0,0,1
 217.672851562 604 217.672851562 604 286 604 c 0,2,3
 367.526367188 604 367.526367188 604 404.319335938 547.6015625 c 0,4,5
 433 505.111328125 433 505.111328125 433 430.271484375 c 128,-1,6
 433 355.430664062 433 355.430664062 404.088867188 313.162109375 c 0,7,8
 367.04296875 259 367.04296875 259 284.698242188 259 c 128,-1,9
 202.352539062 259 202.352539062 259 165.067382812 314.49609375 c 0,10,11
 136 357.759765625 136 357.759765625 136 434.189453125 c 0,12,13
 136 518.3515625 136 518.3515625 176.8359375 560.4765625 c 0,0,1
392 430.181640625 m 0,14,15
 392 490.833984375 392 490.833984375 370.591796875 523.736328125 c 0,16,17
 344.891601562 565 344.891601562 565 285.399414062 565 c 128,-1,18
 225.90625 565 225.90625 565 199.729492188 524.236328125 c 0,19,20
 178 491.844726562 178 491.844726562 178 431.877929688 c 128,-1,21
 178 371.911132812 178 371.911132812 199.569335938 339.262695312 c 0,22,23
 225.506835938 300 225.506835938 300 285 300 c 0,24,25
 335.813476562 300 335.813476562 300 363.874023438 327.29296875 c 128,-1,26
 392 354.650390625 392 354.650390625 392 430.181640625 c 0,14,15
EndSplineSet
EndChar

StartChar: guillemotright
Encoding: 187 187 124
Width: 550
GlyphClass: 2
Flags: W
VStem: 127.378 287.696
LayerCount: 2
Fore
SplineSet
292 36 m 1,0,-1
 263 36 l 1,1,-1
 244.377947996 36 l 1,2,-1
 360.993392598 211.983307309 l 1,3,-1
 244.315597471 387 l 1,4,-1
 263 387 l 1,5,-1
 290 387 l 1,6,-1
 295.270868712 387 l 1,7,-1
 415.073569026 212.066853523 l 1,8,-1
 297.342118779 36 l 1,9,-1
 292 36 l 1,0,-1
175 36 m 1,10,-1
 146 36 l 1,11,-1
 127.377947996 36 l 1,12,-1
 243.993392598 211.983307309 l 1,13,-1
 127.315597471 387 l 1,14,-1
 146 387 l 1,15,-1
 173 387 l 1,16,-1
 178.270868712 387 l 1,17,-1
 298.073569026 212.066853523 l 1,18,-1
 180.342118779 36 l 1,19,-1
 175 36 l 1,10,-1
EndSplineSet
Validated: 1
EndChar

StartChar: onequarter
Encoding: 188 188 125
Width: 550
GlyphClass: 2
Flags: W
HStem: 48 42<324.26 445 488 524>
VStem: 135 43<328 650.59> 445 43<-10 48 90 198>
LayerCount: 2
Fore
SplineSet
75 633 m 1,0,-1
 75 659 l 1,1,-1
 75 664.710000268 l 1,2,-1
 143.269166212 705 l 1,3,-1
 146 705 l 1,4,-1
 168 705 l 1,5,-1
 178 705 l 1,6,-1
 178 328 l 1,7,-1
 168 328 l 1,8,-1
 145 328 l 1,9,-1
 135 328 l 1,10,-1
 135 650.589521099 l 1,11,-1
 75 615.589521099 l 1,12,-1
 75 633 l 1,0,-1
488 90 m 1,13,-1
 514 90 l 1,14,-1
 524 90 l 1,15,-1
 524 80 l 1,16,-1
 524 58 l 1,17,-1
 524 48 l 1,18,-1
 514 48 l 1,19,-1
 488 48 l 1,20,-1
 488 0 l 1,21,-1
 488 -10 l 1,22,-1
 478 -10 l 1,23,-1
 455 -10 l 1,24,-1
 445 -10 l 1,25,-1
 445 0 l 1,26,-1
 445 48 l 1,27,-1
 271 48 l 1,28,-1
 271 58 l 1,29,-1
 271 76 l 1,30,-1
 271 78.3551505269 l 1,31,-1
 414.808821802 367 l 1,32,-1
 421 367 l 1,33,-1
 448 367 l 1,34,-1
 464.259734257 367 l 1,35,-1
 324.259734257 90 l 1,36,-1
 445 90 l 1,37,-1
 445 198 l 1,38,-1
 455 198 l 1,39,-1
 478 198 l 1,40,-1
 488 198 l 1,41,-1
 488 90 l 1,13,-1
48 -27 m 1,42,-1
 23 -27 l 1,43,-1
 4.51349753964 -27 l 1,44,-1
 495.591472916 724 l 1,45,-1
 501 724 l 1,46,-1
 528 724 l 1,47,-1
 546.52882954 724 l 1,48,-1
 53.3961346021 -27 l 1,49,-1
 48 -27 l 1,42,-1
EndSplineSet
Validated: 1
EndChar

StartChar: onehalf
Encoding: 189 189 126
Width: 550
GlyphClass: 2
Flags: W
HStem: -10 42<363.622 530> 327 40<366.085 470.725>
VStem: 135 43<328 650.59> 487 44.0014<219.45 310.747>
LayerCount: 2
Fore
SplineSet
419 367 m 0,0,1
 470.85798293 367 470.85798293 367 500.928991465 339.713344107 c 128,-1,2
 531 312.426688214 531 312.426688214 531.000942688 271.438581987 c 128,-1,3
 531.001885376 230.45047576 531.001885376 230.45047576 502.766472244 195.699198059 c 2,4,-1
 363.622153894 32 l 1,5,-1
 530 32 l 1,6,-1
 530 22 l 1,7,-1
 530 0 l 1,8,-1
 530 -10 l 1,9,-1
 302 -10 l 1,10,-1
 302 0 l 1,11,-1
 302 20 l 1,12,-1
 302 23.6461698183 l 1,13,-1
 469.450899347 222.557541164 l 2,14,15
 486.999013271 242.737872176 486.999013271 242.737872176 486.999506636 269.111426708 c 128,-1,16
 487 295.48498124 487 295.48498124 469.113097461 311.24249062 c 128,-1,17
 451.226194921 327 451.226194921 327 418 327 c 0,18,19
 393.998002141 327 393.998002141 327 374.69671067 314.278694258 c 128,-1,20
 355.395419199 301.557388515 355.395419199 301.557388515 348.489418962 280.839387807 c 2,21,-1
 345.786191228 272.729704604 l 1,22,-1
 337.34663938 274.136296579 l 1,23,-1
 313.34663938 278.136296579 l 1,24,-1
 301.922878467 280.040256731 l 1,25,-1
 305.480575631 291.06911794 l 2,26,27
 316.577440382 325.469398667 316.577440382 325.469398667 348.818301943 346.234699333 c 128,-1,28
 381.059163504 367 381.059163504 367 419 367 c 0,0,1
75 633 m 1,29,-1
 75 659 l 1,30,-1
 75 664.710000268 l 1,31,-1
 143.269166212 705 l 1,32,-1
 146 705 l 1,33,-1
 168 705 l 1,34,-1
 178 705 l 1,35,-1
 178 328 l 1,36,-1
 168 328 l 1,37,-1
 145 328 l 1,38,-1
 135 328 l 1,39,-1
 135 650.589521099 l 1,40,-1
 75 615.589521099 l 1,41,-1
 75 633 l 1,29,-1
38 -27 m 1,42,-1
 13 -27 l 1,43,-1
 -5.48650246036 -27 l 1,44,-1
 485.591472916 724 l 1,45,-1
 491 724 l 1,46,-1
 518 724 l 1,47,-1
 536.52882954 724 l 1,48,-1
 43.3961346021 -27 l 1,49,-1
 38 -27 l 1,42,-1
EndSplineSet
Validated: 1
EndChar

StartChar: threequarters
Encoding: 190 190 127
Width: 550
GlyphClass: 2
Flags: W
HStem: 48 42<324.26 445 488 524> 329 40<85.649 201.481> 512 41<107 198.512> 673 39<95.2632 200.802>
VStem: 217 44<568.178 657.738> 224 43<389.919 493.867> 445 43<-10 48 90 198>
LayerCount: 2
Fore
SplineSet
150 712 m 0,0,1
 203.1393625 712 203.1393625 712 232.06968125 683.06968125 c 128,-1,2
 261 654.1393625 261 654.1393625 261 613 c 0,3,4
 261 587.50464159 261 587.50464159 247.334869819 561.81419685 c 0,5,6
 237.996730281 544.258494519 237.996730281 544.258494519 219.72082114 533.623227181 c 1,7,8
 240.396250907 521.809971148 240.396250907 521.809971148 251.385967828 500.588448818 c 0,9,10
 267 470.43721428 267 470.43721428 267 444 c 0,11,12
 267 394.764227596 267 394.764227596 232.951956246 361.814507835 c 128,-1,13
 199.043631484 329 199.043631484 329 147 329 c 0,14,15
 59.2948534355 329 59.2948534355 329 33.7454717085 391.207190292 c 2,16,-1
 30.0058546304 400.312344917 l 1,17,-1
 39.0680468085 404.196141564 l 1,18,-1
 60.0680468085 413.196141564 l 1,19,-1
 69.4801458874 417.229898312 l 1,20,-1
 73.2888695687 407.708089109 l 2,21,22
 88.7721052123 369 88.7721052123 369 146 369 c 0,23,24
 181.044411426 369 181.044411426 369 202.522205713 389.16282729 c 128,-1,25
 224 409.32565458 224 409.32565458 224 442 c 128,-1,26
 224 474.793108883 224 474.793108883 205.012667184 493.348911407 c 128,-1,27
 185.927832345 512 185.927832345 512 156 512 c 2,28,-1
 117 512 l 1,29,-1
 107 512 l 1,30,-1
 107 522 l 1,31,-1
 107 543 l 1,32,-1
 107 553 l 1,33,-1
 117 553 l 1,34,-1
 152 553 l 2,35,36
 181.150357791 553 181.150357791 553 199.075178896 569.217695285 c 128,-1,37
 217 585.43539057 217 585.43539057 217 612.610821476 c 128,-1,38
 217 639.786252383 217 639.786252383 200.021057346 656.340721471 c 128,-1,39
 182.934617828 673 182.934617828 673 145 673 c 0,40,41
 123.878678022 673 123.878678022 673 105.053100348 661.179288437 c 128,-1,42
 86.2275226728 649.358576874 86.2275226728 649.358576874 79.4012222469 630.586250702 c 2,43,-1
 76.3851381283 622.292019376 l 1,44,-1
 67.7777946245 624.248233809 l 1,45,-1
 45.7777946245 629.248233809 l 1,46,-1
 34.2380067509 631.870912871 l 1,47,-1
 38.7518892634 642.808397421 l 2,48,49
 67.30715382 712 67.30715382 712 150 712 c 0,0,1
488 90 m 1,50,-1
 514 90 l 1,51,-1
 524 90 l 1,52,-1
 524 80 l 1,53,-1
 524 58 l 1,54,-1
 524 48 l 1,55,-1
 514 48 l 1,56,-1
 488 48 l 1,57,-1
 488 0 l 1,58,-1
 488 -10 l 1,59,-1
 478 -10 l 1,60,-1
 455 -10 l 1,61,-1
 445 -10 l 1,62,-1
 445 0 l 1,63,-1
 445 48 l 1,64,-1
 271 48 l 1,65,-1
 271 58 l 1,66,-1
 271 76 l 1,67,-1
 271 78.3551505269 l 1,68,-1
 414.808821802 367 l 1,69,-1
 421 367 l 1,70,-1
 448 367 l 1,71,-1
 464.259734257 367 l 1,72,-1
 324.259734257 90 l 1,73,-1
 445 90 l 1,74,-1
 445 198 l 1,75,-1
 455 198 l 1,76,-1
 478 198 l 1,77,-1
 488 198 l 1,78,-1
 488 90 l 1,50,-1
68 -27 m 1,79,-1
 43 -27 l 1,80,-1
 24.5134975396 -27 l 1,81,-1
 515.591472916 724 l 1,82,-1
 521 724 l 1,83,-1
 548 724 l 1,84,-1
 566.52882954 724 l 1,85,-1
 73.3961346021 -27 l 1,86,-1
 68 -27 l 1,79,-1
EndSplineSet
Validated: 1
EndChar

StartChar: questiondown
Encoding: 191 191 128
Width: 550
GlyphClass: 2
Flags: W
HStem: -222 42<188.375 343.63> 437 63<240 298>
VStem: 84 44<-116.572 28.5906> 240 58<437 500> 249 45<200.656 351>
LayerCount: 2
Fore
SplineSet
268 -222 m 0,0,1
 186.921547316 -222 186.921547316 -222 135.504908003 -171.64349758 c 128,-1,2
 84 -121.200546443 84 -121.200546443 84 -44 c 0,3,4
 84 -7.89649275748 84 -7.89649275748 99.1756535735 26.6412015823 c 128,-1,5
 114.351307147 61.178895922 114.351307147 61.178895922 127.85234518 78.3148288098 c 128,-1,6
 141.353383213 95.4507616976 141.353383213 95.4507616976 168.368249121 125.465874011 c 128,-1,7
 195.38311503 155.480986324 195.38311503 155.480986324 207.950758661 170.948855408 c 128,-1,8
 220.518402292 186.416724492 220.518402292 186.416724492 233.797307518 213.44878156 c 128,-1,9
 247.076212744 240.480838627 247.076212744 240.480838627 249 267.356029543 c 1,10,-1
 249 351 l 1,11,-1
 259 351 l 1,12,-1
 284 351 l 1,13,-1
 294 351 l 1,14,-1
 294 265 l 2,15,16
 294 221.177965215 294 221.177965215 269.987217845 182.026689962 c 128,-1,17
 245.97443569 142.87541471 245.97443569 142.87541471 204.28474438 99.1520799212 c 0,18,19
 128 18.0391871623 128 18.0391871623 128 -39 c 0,20,21
 128 -92.5018832972 128 -92.5018832972 162.906163578 -136.250941649 c 128,-1,22
 197.812327157 -180 197.812327157 -180 272 -180 c 0,23,24
 329.795365092 -180 329.795365092 -180 371.678406592 -137.175766556 c 128,-1,25
 413.561448092 -94.3515331123 413.561448092 -94.3515331123 420.100856712 -48.5756727724 c 2,26,-1
 421.594627947 -38.1192741228 l 1,27,-1
 431.968877628 -40.1941240588 l 1,28,-1
 456.968877628 -45.1941240588 l 1,29,-1
 467.214059836 -47.2431605004 l 1,30,-1
 464.709954407 -57.3986991812 l 2,31,32
 445.912329265 -133.63351226 445.912329265 -133.63351226 391.813437433 -177.752996861 c 128,-1,33
 337.558183583 -222 337.558183583 -222 268 -222 c 0,0,1
250 500 m 1,34,-1
 288 500 l 1,35,-1
 298 500 l 1,36,-1
 298 490 l 1,37,-1
 298 447 l 1,38,-1
 298 437 l 1,39,-1
 288 437 l 1,40,-1
 250 437 l 1,41,-1
 240 437 l 1,42,-1
 240 447 l 1,43,-1
 240 490 l 1,44,-1
 240 500 l 1,45,-1
 250 500 l 1,34,-1
EndSplineSet
Validated: 1
EndChar

StartChar: Agrave
Encoding: 192 192 129
Width: 590
GlyphClass: 2
Flags: W
HStem: 0 21G<14 78.4414 517.94 584.171> 175 35<139.46 456.63> 676 20G<205.838 392.332>
LayerCount: 2
Fore
SplineSet
63.19140625 -0 m 1,0,1
 59.638671875 10 59.638671875 10 56.0849609375 0 c 1,2,-1
 28.0849609375 0 l 1,3,-1
 14 0 l 1,4,5
 139.313047123 348 139.313047123 348 272.363764066 696 c 1,6,-1
 279.92427898 696 l 1,7,-1
 318.245579926 696 l 1,8,-1
 325.80609484 696 l 1,9,10
 458.857851315 348 458.857851315 348 584.170898438 0 c 1,11,12
 577.127929688 10 577.127929688 10 570.084960938 0 c 1,13,-1
 540.084960938 0 l 1,14,15
 536.512695312 10 536.512695312 10 532.940429688 0 c 1,16,17
 502.940429688 97.5 502.940429688 97.5 472.940429688 175 c 1,18,-1
 124.19140625 175 l 1,19,20
 93.69140625 97.5 93.69140625 97.5 63.19140625 -0 c 1,0,1
139.459621109 210 m 1,21,-1
 456.630134628 210 l 1,22,-1
 299.013201757 642.252929688 l 1,23,-1
 241.014603025 485.715820312 l 1,24,-1
 139.459621109 210 l 1,21,-1
338.834547117 758.469726562 m 1,25,26
 335.265834385 744.5078125 335.265834385 744.5078125 331.697121653 750.545898438 c 1,27,28
 325.842478453 734.045898438 325.842478453 734.045898438 319.987835253 737.545898438 c 1,29,30
 317.021011444 724.251953125 317.021011444 724.251953125 314.054187635 730.958007812 c 1,31,32
 229.095331197 770.418945312 229.095331197 770.418945312 144.136474759 829.880859375 c 1,33,34
 148.508745587 824.330078125 148.508745587 824.330078125 152.879976882 838.779296875 c 1,35,36
 165.653743864 841.779296875 165.653743864 841.779296875 178.427510846 864.779296875 c 1,37,38
 181.75713126 858.166992188 181.75713126 858.166992188 185.085712142 871.5546875 c 1,39,40
 261.960129629 805.012695312 261.960129629 805.012695312 338.834547117 758.469726562 c 1,25,26
EndSplineSet
EndChar

StartChar: Aacute
Encoding: 193 193 130
Width: 590
GlyphClass: 2
Flags: W
HStem: 0 21G<14 78.4414 517.94 584.171> 175 35<139.46 456.63> 676 20G<205.838 392.332>
LayerCount: 2
Fore
SplineSet
63.19140625 -0 m 1,0,1
 59.638671875 10 59.638671875 10 56.0849609375 0 c 1,2,-1
 28.0849609375 0 l 1,3,-1
 14 0 l 1,4,5
 139.313047123 348 139.313047123 348 272.363764066 696 c 1,6,-1
 279.92427898 696 l 1,7,-1
 318.245579926 696 l 1,8,-1
 325.80609484 696 l 1,9,10
 458.857851315 348 458.857851315 348 584.170898438 0 c 1,11,12
 577.127929688 10 577.127929688 10 570.084960938 0 c 1,13,-1
 540.084960938 0 l 1,14,15
 536.512695312 10 536.512695312 10 532.940429688 0 c 1,16,17
 502.940429688 97.5 502.940429688 97.5 472.940429688 175 c 1,18,-1
 124.19140625 175 l 1,19,20
 93.69140625 97.5 93.69140625 97.5 63.19140625 -0 c 1,0,1
139.459621109 210 m 1,21,-1
 456.630134628 210 l 1,22,-1
 299.013201757 642.252929688 l 1,23,-1
 241.014603025 485.715820312 l 1,24,-1
 139.459621109 210 l 1,21,-1
293.697036039 730.958007812 m 1,25,26
 290.73021223 724.251953125 290.73021223 724.251953125 287.763388421 737.545898438 c 1,27,28
 281.908745221 734.045898438 281.908745221 734.045898438 276.054102021 750.545898438 c 1,29,30
 272.485389289 744.5078125 272.485389289 744.5078125 268.916676557 758.469726562 c 1,31,32
 345.791094045 805.012695312 345.791094045 805.012695312 422.665511532 871.5546875 c 1,33,34
 425.994092414 858.166992188 425.994092414 858.166992188 429.322673296 864.779296875 c 1,35,36
 442.096440278 841.779296875 442.096440278 841.779296875 454.87020726 838.779296875 c 1,37,38
 459.242478087 824.330078125 459.242478087 824.330078125 463.614748915 829.880859375 c 1,39,40
 378.655892477 770.418945312 378.655892477 770.418945312 293.697036039 730.958007812 c 1,25,26
EndSplineSet
EndChar

StartChar: Acircumflex
Encoding: 194 194 131
Width: 590
GlyphClass: 2
Flags: W
HStem: 0 21G<14 78.4414 517.94 584.171> 175 35<139.46 456.63> 676 20G<205.838 392.332>
LayerCount: 2
Fore
SplineSet
63.19140625 -0 m 1,0,1
 59.638671875 10 59.638671875 10 56.0849609375 0 c 1,2,-1
 28.0849609375 0 l 1,3,-1
 14 0 l 1,4,5
 139.313047123 348 139.313047123 348 272.363764066 696 c 1,6,-1
 279.92427898 696 l 1,7,-1
 318.245579926 696 l 1,8,-1
 325.80609484 696 l 1,9,10
 458.857851315 348 458.857851315 348 584.170898438 0 c 1,11,12
 577.127929688 10 577.127929688 10 570.084960938 0 c 1,13,-1
 540.084960938 0 l 1,14,15
 536.512695312 10 536.512695312 10 532.940429688 0 c 1,16,17
 502.940429688 97.5 502.940429688 97.5 472.940429688 175 c 1,18,-1
 124.19140625 175 l 1,19,20
 93.69140625 97.5 93.69140625 97.5 63.19140625 -0 c 1,0,1
139.459621109 210 m 1,21,-1
 456.630134628 210 l 1,22,-1
 299.013201757 642.252929688 l 1,23,-1
 241.014603025 485.715820312 l 1,24,-1
 139.459621109 210 l 1,21,-1
281.44511403 858 m 1,25,26
 283.345378193 848 283.345378193 848 285.246681889 858 c 1,27,-1
 316.116618762 858 l 1,28,29
 318.067819985 848 318.067819985 848 320.017981676 858 c 1,30,31
 388.720639541 793.303710938 388.720639541 793.303710938 457.424336937 748.608398438 c 1,32,33
 453.33793736 734.76953125 453.33793736 734.76953125 449.251537783 740.930664062 c 1,34,35
 442.864654292 724.930664062 442.864654292 724.930664062 436.477770801 728.930664062 c 1,36,37
 433.379965982 716.020507812 433.379965982 716.020507812 430.283200696 723.111328125 c 1,38,39
 364.689782499 754.528320312 364.689782499 754.528320312 299.097403835 805.944335938 c 1,40,41
 232.814776043 753.926757812 232.814776043 753.926757812 166.533187782 721.909179688 c 1,42,43
 163.432264369 715.065429688 163.432264369 715.065429688 160.331340955 728.220703125 c 1,44,45
 153.944457464 724.720703125 153.944457464 724.720703125 147.557573973 741.220703125 c 1,46,47
 143.73105735 735.115234375 143.73105735 735.115234375 139.903501196 749.010742188 c 1,48,49
 210.673787847 793.504882812 210.673787847 793.504882812 281.44511403 858 c 1,25,26
EndSplineSet
EndChar

StartChar: Atilde
Encoding: 195 195 132
Width: 590
GlyphClass: 2
Flags: W
HStem: 0 21G<14 78.4414 517.94 584.171> 175 35<139.46 456.63> 676 20G<205.838 392.332> 748 47<308.663 409.401> 788 47<193.783 308.663>
LayerCount: 2
Fore
SplineSet
63.19140625 -0 m 1,0,1
 59.638671875 10 59.638671875 10 56.0849609375 0 c 1,2,-1
 28.0849609375 0 l 1,3,-1
 14 0 l 1,4,5
 139.313047123 348 139.313047123 348 272.363764066 696 c 1,6,-1
 279.92427898 696 l 1,7,-1
 318.245579926 696 l 1,8,-1
 325.80609484 696 l 1,9,10
 458.857851315 348 458.857851315 348 584.170898438 0 c 1,11,12
 577.127929688 10 577.127929688 10 570.084960938 0 c 1,13,-1
 540.084960938 0 l 1,14,15
 536.512695312 10 536.512695312 10 532.940429688 0 c 1,16,17
 502.940429688 97.5 502.940429688 97.5 472.940429688 175 c 1,18,-1
 124.19140625 175 l 1,19,20
 93.69140625 97.5 93.69140625 97.5 63.19140625 -0 c 1,0,1
139.459621109 210 m 1,21,-1
 456.630134628 210 l 1,22,-1
 299.013201757 642.252929688 l 1,23,-1
 241.014603025 485.715820312 l 1,24,-1
 139.459621109 210 l 1,21,-1
144.516943405 777.71484375 m 2,25,26
 187.087850424 835 187.087850424 835 243.731939197 835 c 0,27,28
 267.404157761 835 267.404157761 835 312.644582489 815 c 128,-1,29
 357.885007217 795 357.885007217 795 372.5340896 795 c 0,30,31
 394.634536054 795 394.634536054 795 420.193504869 829.682617188 c 2,32,33
 423.03558486 823.5390625 423.03558486 823.5390625 425.87766485 837.39453125 c 1,34,35
 430.147022028 824.98828125 430.147022028 824.98828125 434.417418737 832.581054688 c 1,36,37
 445.062224555 816.581054688 445.062224555 816.581054688 455.707030374 820.581054688 c 1,38,39
 460.189491574 808.0546875 460.189491574 808.0546875 464.641601562 815.528320312 c 1,40,41
 462.076241824 801.280273438 462.076241824 801.280273438 459.480530874 807.032226562 c 2,42,43
 423.405658187 748 423.405658187 748 371.469609018 748 c 0,44,45
 349.927391149 748 349.927391149 748 304.686966421 768 c 128,-1,46
 259.446541693 788 259.446541693 788 241.602978034 788 c 0,47,48
 211.52724347 788 211.52724347 788 181.728024369 753.685546875 c 2,49,50
 178.745607583 740.250976562 178.745607583 740.250976562 175.763190796 746.81640625 c 1,51,52
 171.783862996 739.177734375 171.783862996 739.177734375 167.803495664 751.5390625 c 1,53,54
 157.690930137 747.5390625 157.690930137 747.5390625 147.578364609 763.5390625 c 1,55,56
 142.860969218 756.337890625 142.860969218 756.337890625 138.142534296 769.13671875 c 1,57,58
 141.32973885 763.42578125 141.32973885 763.42578125 144.516943405 777.71484375 c 2,25,26
EndSplineSet
EndChar

StartChar: Adieresis
Encoding: 196 196 133
Width: 590
GlyphClass: 2
Flags: W
HStem: 0 21G<14 78.4414 517.94 584.171> 175 35<139.46 456.63> 676 20G<205.838 392.332> 763 56<183.057 244.796 346.987 408.726>
VStem: 183.057 61.7399<762.849 819> 346.987 61.7399<762.849 819>
LayerCount: 2
Fore
SplineSet
63.19140625 -0 m 1,0,1
 59.638671875 10 59.638671875 10 56.0849609375 0 c 1,2,-1
 28.0849609375 0 l 1,3,-1
 14 0 l 1,4,5
 139.313047123 348 139.313047123 348 272.363764066 696 c 1,6,-1
 279.92427898 696 l 1,7,-1
 318.245579926 696 l 1,8,-1
 325.80609484 696 l 1,9,10
 458.857851315 348 458.857851315 348 584.170898438 0 c 1,11,12
 577.127929688 10 577.127929688 10 570.084960938 0 c 1,13,-1
 540.084960938 0 l 1,14,15
 536.512695312 10 536.512695312 10 532.940429688 0 c 1,16,17
 502.940429688 97.5 502.940429688 97.5 472.940429688 175 c 1,18,-1
 124.19140625 175 l 1,19,20
 93.69140625 97.5 93.69140625 97.5 63.19140625 -0 c 1,0,1
139.459621109 210 m 1,21,-1
 456.630134628 210 l 1,22,-1
 299.013201757 642.252929688 l 1,23,-1
 241.014603025 485.715820312 l 1,24,-1
 139.459621109 210 l 1,21,-1
346.986555635 763 m 1,25,26
 346.986555635 758 346.986555635 758 346.986555635 773 c 1,27,28
 346.986555635 781 346.986555635 781 346.986555635 809 c 1,29,30
 346.986555635 804 346.986555635 804 346.986555635 819 c 1,31,-1
 357.631361454 819 l 1,32,-1
 398.081623564 819 l 1,33,-1
 408.726429382 819 l 1,34,35
 408.726429382 804 408.726429382 804 408.726429382 809 c 1,36,37
 408.726429382 781 408.726429382 781 408.726429382 773 c 1,38,39
 408.726429382 758 408.726429382 758 408.726429382 763 c 1,40,-1
 398.081623564 763 l 1,41,-1
 357.631361454 763 l 1,42,-1
 346.986555635 763 l 1,25,26
183.056546033 763 m 1,43,44
 183.056546033 758 183.056546033 758 183.056546033 773 c 1,45,46
 183.056546033 781 183.056546033 781 183.056546033 809 c 1,47,48
 183.056546033 804 183.056546033 804 183.056546033 819 c 1,49,-1
 193.701351851 819 l 1,50,-1
 234.151613961 819 l 1,51,-1
 244.796419779 819 l 1,52,53
 244.796419779 804 244.796419779 804 244.796419779 809 c 1,54,55
 244.796419779 781 244.796419779 781 244.796419779 773 c 1,56,57
 244.796419779 758 244.796419779 758 244.796419779 763 c 1,58,-1
 234.151613961 763 l 1,59,-1
 193.701351851 763 l 1,60,-1
 183.056546033 763 l 1,43,44
EndSplineSet
EndChar

StartChar: Aring
Encoding: 197 197 134
Width: 590
GlyphClass: 2
Flags: W
HStem: 0 21G<14 78.4414 517.94 584.171> 175 35<139.46 456.63> 676 20G<205.838 392.332> 705 39<254.951 341.929> 858 38<255.135 341.826>
VStem: 195.83 42.5792<759.177 842.665> 358.696 42.5792<759.739 842.647>
LayerCount: 2
Fore
SplineSet
63.19140625 -0 m 1,0,1
 59.638671875 10 59.638671875 10 56.0849609375 0 c 1,2,-1
 28.0849609375 0 l 1,3,-1
 14 0 l 1,4,5
 139.313047123 348 139.313047123 348 272.363764066 696 c 1,6,-1
 279.92427898 696 l 1,7,-1
 318.245579926 696 l 1,8,-1
 325.80609484 696 l 1,9,10
 458.857851315 348 458.857851315 348 584.170898438 0 c 1,11,12
 577.127929688 10 577.127929688 10 570.084960938 0 c 1,13,-1
 540.084960938 0 l 1,14,15
 536.512695312 10 536.512695312 10 532.940429688 0 c 1,16,17
 502.940429688 97.5 502.940429688 97.5 472.940429688 175 c 1,18,-1
 124.19140625 175 l 1,19,20
 93.69140625 97.5 93.69140625 97.5 63.19140625 -0 c 1,0,1
139.459621109 210 m 1,21,-1
 456.630134628 210 l 1,22,-1
 299.013201757 642.252929688 l 1,23,-1
 241.014603025 485.715820312 l 1,24,-1
 139.459621109 210 l 1,21,-1
401.275065309 801.55859375 m 128,-1,26
 401.275065309 761.860351562 401.275065309 761.860351562 371.012215018 733.430664062 c 128,-1,27
 340.748325194 705 340.748325194 705 298.552689162 705 c 128,-1,28
 256.358092661 705 256.358092661 705 226.094202838 733.430664062 c 128,-1,29
 195.830313015 761.860351562 195.830313015 761.860351562 195.830313015 801.529296875 c 128,-1,30
 195.830313015 841.198242188 195.830313015 841.198242188 225.638887902 868.641601562 c 128,-1,31
 255.355983988 896 255.355983988 896 298.020448871 896 c 128,-1,32
 340.624620908 896 340.624620908 896 370.858364309 868.7109375 c 128,-1,25
 401.275065309 841.256835938 401.275065309 841.256835938 401.275065309 801.55859375 c 128,-1,26
341.058105676 841.430664062 m 128,-1,34
 323.420369317 858 323.420369317 858 298.020448871 858 c 128,-1,35
 272.702651439 858 272.702651439 858 255.613787879 841.5234375 c 128,-1,36
 238.409536288 824.936523438 238.409536288 824.936523438 238.409536288 801 c 128,-1,37
 238.409536288 777.063476562 238.409536288 777.063476562 255.613787879 760.4765625 c 128,-1,38
 272.702651439 744 272.702651439 744 298.020448871 744 c 128,-1,39
 323.420369317 744 323.420369317 744 341.058105676 760.569335938 c 128,-1,40
 358.695842036 777.139648438 358.695842036 777.139648438 358.695842036 801 c 128,-1,33
 358.695842036 824.860351562 358.695842036 824.860351562 341.058105676 841.430664062 c 128,-1,34
EndSplineSet
EndChar

StartChar: AE
Encoding: 198 198 135
Width: 590
GlyphClass: 2
Flags: W
HStem: 0 44<365.627 590.627> 176 34<143.927 318.627> 346 44<365.627 560.627> 652 44<365.627 576.627>
VStem: 318.627 47<44 176 210 346 390 619.087>
LayerCount: 2
Fore
SplineSet
365.626953125 346 m 1,0,-1
 365.626953125 44 l 1,1,-1
 590.626953125 44 l 1,2,3
 590.626953125 49 590.626953125 49 590.626953125 34 c 1,4,5
 590.626953125 32 590.626953125 32 590.626953125 10 c 1,6,7
 590.626953125 15 590.626953125 15 590.626953125 0 c 1,8,-1
 318.626953125 0 l 1,9,10
 318.626953125 98 318.626953125 98 318.626953125 176 c 1,11,-1
 125.485351562 176 l 1,12,13
 91.4853515625 98 91.4853515625 98 57.4853515625 -0 c 1,14,15
 54.0556640625 10 54.0556640625 10 50.626953125 0 c 1,16,-1
 21.626953125 0 l 1,17,18
 14.3134765625 10 14.3134765625 10 7 -0 c 1,19,20
 148.653520775 348 148.653520775 348 305.787109375 696 c 1,21,-1
 576.626953125 696 l 1,22,23
 576.626953125 681 576.626953125 681 576.626953125 686 c 1,24,25
 576.626953125 664 576.626953125 664 576.626953125 662 c 1,26,27
 576.626953125 647 576.626953125 647 576.626953125 652 c 1,28,-1
 365.626953125 652 l 1,29,-1
 365.626953125 390 l 1,30,-1
 560.626953125 390 l 1,31,-1
 560.626953125 380 l 1,32,-1
 560.626953125 356 l 1,33,-1
 560.626953125 346 l 1,34,-1
 365.626953125 346 l 1,0,-1
143.926796743 210 m 1,35,-1
 318.626953125 210 l 1,36,-1
 318.626953125 619.086914062 l 1,37,-1
 143.926796743 210 l 1,35,-1
EndSplineSet
EndChar

StartChar: Ccedilla
Encoding: 199 199 136
Width: 590
GlyphClass: 2
Flags: W
HStem: -186 41<246.201 359.366> -6.81738 42.8174<324.574 421.163> 658 43<208.106 419.95>
VStem: 60 46<139.09 553.966> 269.271 5.76795<-54.5508 -54.3098> 369.515 49.8154<-136.402 -77.6414>
LayerCount: 2
Fore
SplineSet
384.035633141 -46.015625 m 0,0,1
 419.330741317 -67.5048828125 419.330741317 -67.5048828125 419.330741317 -109 c 0,2,3
 419.330741317 -138.276367188 419.330741317 -138.276367188 392.151371744 -162.233398438 c 0,4,5
 365.187745027 -186 365.187745027 -186 308.870399171 -186 c 0,6,7
 270.976858658 -186 270.976858658 -186 237.593824419 -173.244140625 c 2,8,9
 232.779797559 -161.404296875 232.779797559 -161.404296875 227.964713137 -169.565429688 c 1,10,11
 229.763627831 -155.055664062 229.763627831 -155.055664062 231.562542525 -160.546875 c 1,12,13
 235.352848383 -141.046875 235.352848383 -141.046875 239.143154241 -141.546875 c 1,14,15
 240.976968515 -126.94921875 240.976968515 -126.94921875 242.811840352 -132.3515625 c 1,16,17
 247.823631496 -123.947265625 247.823631496 -123.947265625 252.836480203 -135.54296875 c 2,18,19
 282.534964886 -145 282.534964886 -145 308.870399171 -145 c 128,-1,20
 335.265056984 -145 335.265056984 -145 353.918353502 -135.284179688 c 0,21,22
 369.515292898 -127.159179688 369.515292898 -127.159179688 369.515292898 -108.010742188 c 128,-1,23
 369.515292898 -88.861328125 369.515292898 -88.861328125 347.991770347 -77.7314453125 c 0,24,25
 323.370645716 -65 323.370645716 -65 287.211508554 -65 c 2,26,-1
 283.414857318 -65 l 1,27,28
 281.934269092 -53.90625 281.934269092 -53.90625 280.453680866 -62.8125 c 1,29,30
 277.746319539 -50.8125 277.746319539 -50.8125 275.038958212 -58.8125 c 1,31,32
 272.154983861 -46.681640625 272.154983861 -46.681640625 269.271009509 -54.55078125 c 1,33,34
 270.359241855 -41.298828125 270.359241855 -41.298828125 271.448531764 -48.046875 c 1,35,36
 278.637845163 -16.5673828125 278.637845163 -16.5673828125 285.828216126 -5.0869140625 c 1,37,38
 170.743164062 4.0634765625 170.743164062 4.0634765625 116.6484375 70.6630859375 c 0,39,40
 60 140.408203125 60 140.408203125 60 245.890625 c 2,41,42
 60 350.361328125 60 350.361328125 60 454.96875 c 2,43,44
 60 559.786132812 60 559.786132812 124.249023438 630.393554688 c 0,45,46
 189.202913386 701 189.202913386 701 317.533955417 701 c 0,47,48
 399.635745225 701 399.635745225 701 459.204101562 666.5390625 c 0,49,50
 515.73046875 631.995117188 515.73046875 631.995117188 544.013671875 573.333984375 c 2,51,52
 545.965820312 559.28515625 545.965820312 559.28515625 547.91796875 565.236328125 c 1,53,54
 544.084960938 552.86328125 544.084960938 552.86328125 540.252929688 560.491210938 c 1,55,56
 529.752929688 543.991210938 529.752929688 543.991210938 519.252929688 547.491210938 c 1,57,58
 514.447265625 534.516601562 514.447265625 534.516601562 509.642578125 541.541992188 c 1,59,60
 507.276367188 536.685546875 507.276367188 536.685546875 504.91015625 551.829101562 c 2,61,62
 483.150390625 599.133789062 483.150390625 599.133789062 436.294052132 628.54296875 c 0,63,64
 385.870504977 658 385.870504977 658 318.616899948 658 c 0,65,66
 211.996569122 658 211.996569122 658 157.772460938 600.477539062 c 0,67,68
 106 542.954101562 106 542.954101562 106 452.604492188 c 2,69,70
 106 347 106 347 106 241.395507812 c 2,71,72
 106 151.020507812 106 151.020507812 157.286132812 93.5107421875 c 0,73,74
 210.943236355 36 210.943236355 36 321.865733541 36 c 0,75,76
 390.075375539 36 390.075375539 36 442.084960938 67.9072265625 c 0,77,78
 490.184570312 99.8154296875 490.184570312 99.8154296875 516.989257812 155.337890625 c 2,79,80
 519.036132812 169.578125 519.036132812 169.578125 521.08203125 163.817382812 c 1,81,82
 525.431640625 172.0390625 525.431640625 172.0390625 529.780273438 160.259765625 c 1,83,84
 540.780273438 165.759765625 540.780273438 165.759765625 551.780273438 151.259765625 c 1,85,86
 556.453125 159.348632812 556.453125 159.348632812 561.125 147.436523438 c 1,87,88
 559.17578125 152.788085938 559.17578125 152.788085938 557.2265625 138.139648438 c 2,89,90
 530.049804688 73.333984375 530.049804688 73.333984375 471.46484375 34.6171875 c 0,91,92
 410.536047256 -4.1005859375 410.536047256 -4.1005859375 331.905179274 -6.8173828125 c 1,93,94
 328.181499887 -7.1337890625 328.181499887 -7.1337890625 324.457820499 -27.44921875 c 1,95,96
 361.34879127 -32.203125 361.34879127 -32.203125 384.035633141 -46.015625 c 0,0,1
EndSplineSet
EndChar

StartChar: Egrave
Encoding: 200 200 137
Width: 590
GlyphClass: 2
Flags: W
HStem: 0 44<131 549> 344 44<131 485> 652 44<131 521>
VStem: 84 47<44 344 388 652>
LayerCount: 2
Fore
SplineSet
549 0 m 1,0,-1
 84 0 l 1,1,2
 84 348 84 348 84 696 c 1,3,-1
 521 696 l 1,4,5
 521 681 521 681 521 686 c 1,6,7
 521 664 521 664 521 662 c 1,8,9
 521 647 521 647 521 652 c 1,10,-1
 131 652 l 1,11,-1
 131 388 l 1,12,-1
 485 388 l 1,13,-1
 485 378 l 1,14,-1
 485 354 l 1,15,-1
 485 344 l 1,16,-1
 131 344 l 1,17,-1
 131 44 l 1,18,-1
 549 44 l 1,19,20
 549 49 549 49 549 34 c 1,21,22
 549 32 549 32 549 10 c 1,23,24
 549 15 549 15 549 0 c 1,0,-1
384.374071075 758.469726562 m 1,25,26
 380.695526867 744.5078125 380.695526867 744.5078125 377.015910823 750.545898438 c 1,27,28
 370.979325457 734.045898438 370.979325457 734.045898438 364.942740091 737.545898438 c 1,29,30
 361.883717607 724.251953125 361.883717607 724.251953125 358.823623285 730.958007812 c 1,31,32
 271.224537919 770.418945312 271.224537919 770.418945312 185.436523438 829.880859375 c 1,33,34
 189.543945312 824.330078125 189.543945312 824.330078125 193.651367188 838.779296875 c 1,35,36
 205.812476181 841.779296875 205.812476181 841.779296875 218.983207889 864.779296875 c 1,37,38
 222.415229611 858.166992188 222.415229611 858.166992188 225.848323171 871.5546875 c 1,39,40
 305.111733041 805.012695312 305.111733041 805.012695312 384.374071075 758.469726562 c 1,25,26
EndSplineSet
EndChar

StartChar: Eacute
Encoding: 201 201 138
Width: 590
GlyphClass: 2
Flags: W
HStem: 0 44<131 549> 344 44<131 485> 652 44<131 521>
VStem: 84 47<44 344 388 652>
LayerCount: 2
Fore
SplineSet
271.981254764 730.958007812 m 1,0,1
 268.921160442 724.251953125 268.921160442 724.251953125 265.862137957 737.545898438 c 1,2,3
 259.825552591 734.045898438 259.825552591 734.045898438 253.788967226 750.545898438 c 1,4,5
 250.109351181 744.5078125 250.109351181 744.5078125 246.430806974 758.469726562 c 1,6,7
 325.693145008 805.012695312 325.693145008 805.012695312 404.956554878 871.5546875 c 1,8,9
 408.389648438 858.166992188 408.389648438 858.166992188 411.82167016 864.779296875 c 1,10,11
 424.992401867 841.779296875 424.992401867 841.779296875 437.348632812 838.779296875 c 1,12,13
 441.456054688 824.330078125 441.456054688 824.330078125 445.563476562 829.880859375 c 1,14,15
 359.58034013 770.418945312 359.58034013 770.418945312 271.981254764 730.958007812 c 1,0,1
549 0 m 1,16,-1
 84 0 l 1,17,18
 84 348 84 348 84 696 c 1,19,-1
 521 696 l 1,20,21
 521 681 521 681 521 686 c 1,22,23
 521 664 521 664 521 662 c 1,24,25
 521 647 521 647 521 652 c 1,26,-1
 131 652 l 1,27,-1
 131 388 l 1,28,-1
 485 388 l 1,29,-1
 485 378 l 1,30,-1
 485 354 l 1,31,-1
 485 344 l 1,32,-1
 131 344 l 1,33,-1
 131 44 l 1,34,-1
 549 44 l 1,35,36
 549 49 549 49 549 34 c 1,37,38
 549 32 549 32 549 10 c 1,39,40
 549 15 549 15 549 0 c 1,16,-1
EndSplineSet
EndChar

StartChar: Ecircumflex
Encoding: 202 202 139
Width: 590
GlyphClass: 2
Flags: W
HStem: 0 44<131 549> 344 44<131 485> 652 44<131 521>
VStem: 84 47<44 344 388 652>
LayerCount: 2
Fore
SplineSet
549 0 m 1,0,-1
 84 0 l 1,1,2
 84 348 84 348 84 696 c 1,3,-1
 521 696 l 1,4,5
 521 681 521 681 521 686 c 1,6,7
 521 664 521 664 521 662 c 1,8,9
 521 647 521 647 521 652 c 1,10,-1
 131 652 l 1,11,-1
 131 388 l 1,12,-1
 485 388 l 1,13,-1
 485 378 l 1,14,-1
 485 354 l 1,15,-1
 485 344 l 1,16,-1
 131 344 l 1,17,-1
 131 44 l 1,18,-1
 549 44 l 1,19,20
 549 49 549 49 549 34 c 1,21,22
 549 32 549 32 549 10 c 1,23,24
 549 15 549 15 549 0 c 1,0,-1
282.396293826 858 m 1,25,26
 284.356683498 848 284.356683498 848 286.317073171 858 c 1,27,-1
 318.146341463 858 l 1,28,29
 320.15710747 848 320.15710747 848 322.168945312 858 c 1,30,31
 393.006645389 793.303710938 393.006645389 793.303710938 460.747070312 748.608398438 c 1,32,33
 456.908203125 734.76953125 456.908203125 734.76953125 453.069335938 740.930664062 c 1,34,35
 447.069335938 724.930664062 447.069335938 724.930664062 441.069335938 728.930664062 c 1,36,37
 438.16015625 716.020507812 438.16015625 716.020507812 435.250976562 723.111328125 c 1,38,39
 368.228991997 754.528320312 368.228991997 754.528320312 300.597156059 805.944335938 c 1,40,41
 232.255764101 753.926757812 232.255764101 753.926757812 167.477539062 721.909179688 c 1,42,43
 164.564453125 715.065429688 164.564453125 715.065429688 161.651367188 728.220703125 c 1,44,45
 155.651367188 724.720703125 155.651367188 724.720703125 149.651367188 741.220703125 c 1,46,47
 146.055664062 735.115234375 146.055664062 735.115234375 142.4609375 749.010742188 c 1,48,49
 209.426710175 793.504882812 209.426710175 793.504882812 282.396293826 858 c 1,25,26
EndSplineSet
EndChar

StartChar: Edieresis
Encoding: 203 203 140
Width: 590
GlyphClass: 2
Flags: W
HStem: 0 44<131 549> 344 44<131 485> 652 44<131 521> 763 56<175 235.829 341.195 404.854>
VStem: 84 47<44 344 388 652> 175 60.8293<762.849 819> 341.195 63.6585<762.849 819>
LayerCount: 2
Fore
SplineSet
549 0 m 1,0,-1
 84 0 l 1,1,2
 84 348 84 348 84 696 c 1,3,-1
 521 696 l 1,4,5
 521 681 521 681 521 686 c 1,6,7
 521 664 521 664 521 662 c 1,8,9
 521 647 521 647 521 652 c 1,10,-1
 131 652 l 1,11,-1
 131 388 l 1,12,-1
 485 388 l 1,13,-1
 485 378 l 1,14,-1
 485 354 l 1,15,-1
 485 344 l 1,16,-1
 131 344 l 1,17,-1
 131 44 l 1,18,-1
 549 44 l 1,19,20
 549 49 549 49 549 34 c 1,21,22
 549 32 549 32 549 10 c 1,23,24
 549 15 549 15 549 0 c 1,0,-1
341.195121951 763 m 1,25,26
 341.195121951 758 341.195121951 758 341.195121951 773 c 1,27,28
 341.195121951 781 341.195121951 781 341.195121951 809 c 1,29,30
 341.195121951 804 341.195121951 804 341.195121951 819 c 1,31,-1
 352.170731707 819 l 1,32,-1
 393.87804878 819 l 1,33,-1
 404.853658537 819 l 1,34,35
 404.853658537 804 404.853658537 804 404.853658537 809 c 1,36,37
 404.853658537 781 404.853658537 781 404.853658537 773 c 1,38,39
 404.853658537 758 404.853658537 758 404.853658537 763 c 1,40,-1
 393.87804878 763 l 1,41,-1
 352.170731707 763 l 1,42,-1
 341.195121951 763 l 1,25,26
175 763 m 1,43,44
 175 758 175 758 175 773 c 1,45,46
 175 781 175 781 175 809 c 1,47,48
 175 804 175 804 175 819 c 1,49,-1
 185 819 l 1,50,-1
 224.853658537 819 l 1,51,-1
 235.829268293 819 l 1,52,53
 235.829268293 804 235.829268293 804 235.829268293 809 c 1,54,55
 235.829268293 781 235.829268293 781 235.829268293 773 c 1,56,57
 235.829268293 758 235.829268293 758 235.829268293 763 c 1,58,-1
 224.853658537 763 l 1,59,-1
 185 763 l 1,60,-1
 175 763 l 1,43,44
EndSplineSet
EndChar

StartChar: Igrave
Encoding: 204 204 141
Width: 570
GlyphClass: 2
Flags: W
HStem: 0 21G<267.563 313.563> 676 20G<267.563 313.563>
VStem: 267.563 46<0 696>
LayerCount: 2
Fore
SplineSet
267.563476562 0 m 1,0,1
 267.563476562 348 267.563476562 348 267.563476562 696 c 1,2,-1
 277.563476562 696 l 1,3,-1
 303.563476562 696 l 1,4,-1
 313.563476562 696 l 1,5,6
 313.563476562 348 313.563476562 348 313.563476562 0 c 1,7,-1
 303.563476562 0 l 1,8,-1
 277.563476562 0 l 1,9,-1
 267.563476562 0 l 1,0,1
320.904296875 758.469726562 m 1,10,11
 317.551757812 744.5078125 317.551757812 744.5078125 314.19921875 750.545898438 c 1,12,13
 308.69921875 734.045898438 308.69921875 734.045898438 303.19921875 737.545898438 c 1,14,15
 300.412109375 724.251953125 300.412109375 724.251953125 297.625 730.958007812 c 1,16,17
 217.8125 770.418945312 217.8125 770.418945312 138 829.880859375 c 1,18,19
 142.107421875 824.330078125 142.107421875 824.330078125 146.213867188 838.779296875 c 1,20,21
 158.213867188 841.779296875 158.213867188 841.779296875 170.213867188 864.779296875 c 1,22,23
 173.341796875 858.166992188 173.341796875 858.166992188 176.46875 871.5546875 c 1,24,25
 248.686523438 805.012695312 248.686523438 805.012695312 320.904296875 758.469726562 c 1,10,11
EndSplineSet
EndChar

StartChar: Iacute
Encoding: 205 205 142
Width: 570
GlyphClass: 2
Flags: W
HStem: 0 21G<266.341 312.341> 676 20G<266.341 312.341>
VStem: 266.341 46<0 696>
LayerCount: 2
Fore
SplineSet
266.340820312 0 m 1,0,1
 266.340820312 348 266.340820312 348 266.340820312 696 c 1,2,-1
 276.340820312 696 l 1,3,-1
 302.340820312 696 l 1,4,-1
 312.340820312 696 l 1,5,6
 312.340820312 348 312.340820312 348 312.340820312 0 c 1,7,-1
 302.340820312 0 l 1,8,-1
 276.340820312 0 l 1,9,-1
 266.340820312 0 l 1,0,1
283.279296875 730.958007812 m 1,10,11
 280.4921875 724.251953125 280.4921875 724.251953125 277.705078125 737.545898438 c 1,12,13
 272.205078125 734.045898438 272.205078125 734.045898438 266.705078125 750.545898438 c 1,14,15
 263.352539062 744.5078125 263.352539062 744.5078125 260 758.469726562 c 1,16,17
 332.217773438 805.012695312 332.217773438 805.012695312 404.435546875 871.5546875 c 1,18,19
 407.5625 858.166992188 407.5625 858.166992188 410.690429688 864.779296875 c 1,20,21
 422.690429688 841.779296875 422.690429688 841.779296875 434.690429688 838.779296875 c 1,22,23
 438.796875 824.330078125 438.796875 824.330078125 442.904296875 829.880859375 c 1,24,25
 363.091796875 770.418945312 363.091796875 770.418945312 283.279296875 730.958007812 c 1,10,11
EndSplineSet
EndChar

StartChar: Icircumflex
Encoding: 206 206 143
Width: 570
GlyphClass: 2
Flags: W
HStem: 0 21G<266.539 312.539> 676 20G<266.539 312.539>
VStem: 266.539 46<0 696>
LayerCount: 2
Fore
SplineSet
266.5390625 0 m 1,0,1
 266.5390625 348 266.5390625 348 266.5390625 696 c 1,2,-1
 276.5390625 696 l 1,3,-1
 302.5390625 696 l 1,4,-1
 312.5390625 696 l 1,5,6
 312.5390625 348 312.5390625 348 312.5390625 0 c 1,7,-1
 302.5390625 0 l 1,8,-1
 276.5390625 0 l 1,9,-1
 266.5390625 0 l 1,0,1
274.966796875 861 m 1,10,11
 276.752929688 851 276.752929688 851 278.5390625 861 c 1,12,-1
 307.5390625 861 l 1,13,14
 309.372070312 851 309.372070312 851 311.204101562 861 c 1,15,16
 375.745117188 796.303710938 375.745117188 796.303710938 440.287109375 751.608398438 c 1,17,18
 436.448242188 737.76953125 436.448242188 737.76953125 432.609375 743.930664062 c 1,19,20
 426.609375 727.930664062 426.609375 727.930664062 420.609375 731.930664062 c 1,21,22
 417.69921875 719.020507812 417.69921875 719.020507812 414.790039062 726.111328125 c 1,23,24
 353.169921875 757.528320312 353.169921875 757.528320312 291.55078125 808.944335938 c 1,25,26
 229.283203125 756.926757812 229.283203125 756.926757812 167.016601562 724.909179688 c 1,27,28
 164.103515625 718.065429688 164.103515625 718.065429688 161.190429688 731.220703125 c 1,29,30
 155.190429688 727.720703125 155.190429688 727.720703125 149.190429688 744.220703125 c 1,31,32
 145.595703125 738.115234375 145.595703125 738.115234375 142 752.010742188 c 1,33,34
 208.483398438 796.504882812 208.483398438 796.504882812 274.966796875 861 c 1,10,11
EndSplineSet
EndChar

StartChar: Idieresis
Encoding: 207 207 144
Width: 570
GlyphClass: 2
Flags: W
HStem: 0 21G<262 308> 676 20G<262 308> 763 56<179 237 333 391>
VStem: 179 58<762.849 819> 262 46<0 696> 333 58<762.849 819>
CounterMasks: 1 1c
LayerCount: 2
Fore
SplineSet
262 0 m 1,0,1
 262 348 262 348 262 696 c 1,2,-1
 272 696 l 1,3,-1
 298 696 l 1,4,-1
 308 696 l 1,5,6
 308 348 308 348 308 0 c 1,7,-1
 298 0 l 1,8,-1
 272 0 l 1,9,-1
 262 0 l 1,0,1
333 763 m 1,10,11
 333 758 333 758 333 773 c 1,12,13
 333 781 333 781 333 809 c 1,14,15
 333 804 333 804 333 819 c 1,16,-1
 343 819 l 1,17,-1
 381 819 l 1,18,-1
 391 819 l 1,19,20
 391 804 391 804 391 809 c 1,21,22
 391 781 391 781 391 773 c 1,23,24
 391 758 391 758 391 763 c 1,25,-1
 381 763 l 1,26,-1
 343 763 l 1,27,-1
 333 763 l 1,10,11
179 763 m 1,28,29
 179 758 179 758 179 773 c 1,30,31
 179 781 179 781 179 809 c 1,32,33
 179 804 179 804 179 819 c 1,34,-1
 189 819 l 1,35,-1
 227 819 l 1,36,-1
 237 819 l 1,37,38
 237 804 237 804 237 809 c 1,39,40
 237 781 237 781 237 773 c 1,41,42
 237 758 237 758 237 763 c 1,43,-1
 227 763 l 1,44,-1
 189 763 l 1,45,-1
 179 763 l 1,28,29
EndSplineSet
EndChar

StartChar: Eth
Encoding: 208 208 145
Width: 590
GlyphClass: 2
Flags: W
HStem: -0 44<104 395.828> 355 43<15 57 104 296.273> 652 44<104 396.718>
VStem: 57 47<44 355 398 652> 505 46<149.783 548.153>
LayerCount: 2
Fore
SplineSet
15 355 m 1,0,-1
 15 365 l 1,1,-1
 15 388 l 1,2,-1
 15 398 l 1,3,-1
 25 398 l 1,4,-1
 57 398 l 1,5,-1
 57 696 l 1,6,-1
 279 696 l 2,7,8
 465.36328125 696 465.36328125 696 526.053710938 569.873046875 c 0,9,10
 551 518.342773438 551 518.342773438 551 353.943359375 c 128,-1,11
 551 189.54296875 551 189.54296875 527.215820312 134.256835938 c 0,12,13
 495.844726562 62.0859375 495.844726562 62.0859375 436.686523438 31.04296875 c 0,14,15
 369.426550663 -0 369.426550663 -0 267 -0 c 2,16,-1
 57 -0 l 1,17,-1
 57 355 l 1,18,-1
 25 355 l 1,19,-1
 15 355 l 1,0,-1
462.653320312 113.801757812 m 0,20,21
 505 170.310546875 505 170.310546875 505 273.452148438 c 2,22,23
 505 345.188476562 505 345.188476562 505 416.739257812 c 2,24,25
 505 545.41796875 505 545.41796875 450.868164062 598.744140625 c 0,26,27
 391.629202178 652 391.629202178 652 271 652 c 2,28,-1
 104 652 l 1,29,-1
 104 398 l 1,30,-1
 296.272727273 398 l 1,31,-1
 296.272727273 388 l 1,32,-1
 296.272727273 365 l 1,33,-1
 296.272727273 355 l 1,34,-1
 104 355 l 1,35,-1
 104 44 l 1,36,-1
 271 44 l 2,37,38
 407.217388731 44 407.217388731 44 462.653320312 113.801757812 c 0,20,21
EndSplineSet
EndChar

StartChar: Ntilde
Encoding: 209 209 146
Width: 590
GlyphClass: 2
Flags: W
HStem: 0 21G<68 114 387.047 523> 676 20G<68 213.456 477 523> 732 47<305.972 408.886> 772 47<188.096 305.972>
VStem: 68 46<0 624.147> 477 46<90.9043 696>
LayerCount: 2
Fore
SplineSet
477 90.904296875 m 5,0,1
 477 383 477 383 477 696 c 5,2,-1
 487 696 l 5,3,-1
 513 696 l 5,4,-1
 523 696 l 5,5,6
 523 348 523 348 523 0 c 5,7,-1
 513 0 l 5,8,-1
 484 0 l 5,9,10
 482 0 482 0 478.09375 0 c 5,11,12
 296 322 296 322 114 624.147460938 c 5,13,14
 114 322 114 322 114 0 c 5,15,-1
 104 0 l 5,16,-1
 78 0 l 5,17,-1
 68 0 l 5,18,19
 68 348 68 348 68 696 c 5,20,-1
 78 696 l 5,21,-1
 120 696 l 5,22,23
 123 686 123 686 125.911132812 696 c 5,24,25
 301 393 301 393 477 90.904296875 c 5,0,1
140.794921875 761.71484375 m 2,26,27
 180.786132812 819 180.786132812 819 238.717948718 819 c 0,28,29
 263.237079327 819 263.237079327 819 310.096053686 799 c 128,-1,30
 356.955028045 779 356.955028045 779 372.128205128 779 c 0,31,32
 395.019330929 779 395.019330929 779 419.772460938 813.682617188 c 2,33,34
 422.442382812 807.5390625 422.442382812 807.5390625 425.111328125 821.39453125 c 1,35,36
 429.123046875 808.98828125 429.123046875 808.98828125 433.133789062 816.581054688 c 1,37,38
 443.133789062 800.581054688 443.133789062 800.581054688 453.133789062 804.581054688 c 1,39,40
 457.345703125 792.0546875 457.345703125 792.0546875 461.556640625 799.528320312 c 1,41,42
 459.1171875 785.280273438 459.1171875 785.280273438 456.678710938 791.032226562 c 2,43,44
 422.790039062 732 422.790039062 732 371.025641026 732 c 0,45,46
 348.711638622 732 348.711638622 732 301.852664263 752 c 128,-1,47
 254.993689904 772 254.993689904 772 236.512820513 772 c 0,48,49
 205.360001002 772 205.360001002 772 175.751953125 737.685546875 c 2,50,51
 172.950195312 724.250976562 172.950195312 724.250976562 170.1484375 730.81640625 c 1,52,53
 166.409179688 723.177734375 166.409179688 723.177734375 162.670898438 735.5390625 c 1,54,55
 153.170898438 731.5390625 153.170898438 731.5390625 143.670898438 747.5390625 c 1,56,57
 139.23828125 740.337890625 139.23828125 740.337890625 134.806640625 753.13671875 c 1,58,59
 137.80078125 747.42578125 137.80078125 747.42578125 140.794921875 761.71484375 c 2,26,27
EndSplineSet
EndChar

StartChar: Ograve
Encoding: 210 210 147
Width: 590
GlyphClass: 2
Flags: W
HStem: -7 38<198.758 394.186> 656 45<188.058 400.103>
VStem: 40 47<135.549 550.374> 503 47<139.102 551.563>
LayerCount: 2
Fore
SplineSet
104.249023438 630.387695312 m 4,0,1
 169.177890625 701 169.177890625 701 297.16 701 c 4,2,3
 418.492304687 701 418.492304687 701 484.671875 632.892578125 c 4,4,5
 550 564.78515625 550 564.78515625 550 454.950195312 c 6,6,7
 550 350.310546875 550 350.310546875 550 245.857421875 c 6,8,9
 550 130.208007812 550 130.208007812 484.68359375 61.6044921875 c 4,10,11
 418.515507813 -7 418.515507813 -7 297.16 -7 c 4,12,13
 165.812382813 -7 165.812382813 -7 102.690429688 64.6376953125 c 4,14,15
 40 136.276367188 40 136.276367188 40 245.857421875 c 6,16,17
 40 350.310546875 40 350.310546875 40 454.950195312 c 134,-1,18
 40 559.775390625 40 559.775390625 104.249023438 630.387695312 c 4,0,1
450.752929688 597.103515625 m 4,19,20
 396 656 396 656 298.24 656 c 4,21,22
 191 656 191 656 139.247070312 597.103515625 c 4,23,24
 87 538 87 538 87 446 c 6,25,26
 87 327 87 327 87 228 c 6,27,28
 87 149 87 149 139.283203125 91.36328125 c 4,29,30
 194 31 194 31 298.240234375 31 c 4,31,32
 398 31 398 31 450.728515625 90.8740234375 c 4,33,34
 503 151 503 151 503 240.5 c 134,-1,35
 503 330 503 330 503 446 c 6,36,37
 503 541 503 541 450.752929688 597.103515625 c 4,19,20
328.848085938 758.469726562 m 1,38,39
 325.228398438 744.5078125 325.228398438 744.5078125 321.60765625 750.545898438 c 1,40,41
 315.66765625 734.045898438 315.66765625 734.045898438 309.72765625 737.545898438 c 1,42,43
 306.717578125 724.251953125 306.717578125 724.251953125 303.706445313 730.958007812 c 1,44,45
 217.508945313 770.418945312 217.508945313 770.418945312 133.436523438 829.880859375 c 1,46,47
 137.543945312 824.330078125 137.543945312 824.330078125 141.651367188 838.779296875 c 1,48,49
 153.651367188 841.779296875 153.651367188 841.779296875 166.103476562 864.779296875 c 1,50,51
 169.480585937 858.166992188 169.480585937 858.166992188 172.85875 871.5546875 c 1,52,53
 250.853945313 805.012695312 250.853945313 805.012695312 328.848085938 758.469726562 c 1,38,39
EndSplineSet
EndChar

StartChar: Oacute
Encoding: 211 211 148
Width: 590
GlyphClass: 2
Flags: W
HStem: -7 38<198.758 394.186> 656 45<188.058 400.103>
VStem: 40 47<135.549 550.374> 503 47<139.102 551.563>
LayerCount: 2
Fore
SplineSet
104.249023438 630.387695312 m 4,0,1
 169.177890625 701 169.177890625 701 297.16 701 c 4,2,3
 418.492304687 701 418.492304687 701 484.671875 632.892578125 c 4,4,5
 550 564.78515625 550 564.78515625 550 454.950195312 c 6,6,7
 550 350.310546875 550 350.310546875 550 245.857421875 c 6,8,9
 550 130.208007812 550 130.208007812 484.68359375 61.6044921875 c 4,10,11
 418.515507813 -7 418.515507813 -7 297.16 -7 c 4,12,13
 165.812382813 -7 165.812382813 -7 102.690429688 64.6376953125 c 4,14,15
 40 136.276367188 40 136.276367188 40 245.857421875 c 6,16,17
 40 350.310546875 40 350.310546875 40 454.950195312 c 134,-1,18
 40 559.775390625 40 559.775390625 104.249023438 630.387695312 c 4,0,1
450.752929688 597.103515625 m 4,19,20
 396 656 396 656 298.24 656 c 4,21,22
 191 656 191 656 139.247070312 597.103515625 c 4,23,24
 87 538 87 538 87 446 c 6,25,26
 87 327 87 327 87 228 c 6,27,28
 87 149 87 149 139.283203125 91.36328125 c 4,29,30
 194 31 194 31 298.240234375 31 c 4,31,32
 398 31 398 31 450.728515625 90.8740234375 c 4,33,34
 503 151 503 151 503 240.5 c 134,-1,35
 503 330 503 330 503 446 c 6,36,37
 503 541 503 541 450.752929688 597.103515625 c 4,19,20
292.773554687 730.958007812 m 1,38,39
 289.762421875 724.251953125 289.762421875 724.251953125 286.75234375 737.545898438 c 1,40,41
 280.81234375 734.045898438 280.81234375 734.045898438 274.87234375 750.545898438 c 1,42,43
 271.251601563 744.5078125 271.251601563 744.5078125 267.631914063 758.469726562 c 1,44,45
 345.626054688 805.012695312 345.626054688 805.012695312 423.62125 871.5546875 c 1,46,47
 426.999414063 858.166992188 426.999414063 858.166992188 430.348632812 864.779296875 c 1,48,49
 442.348632812 841.779296875 442.348632812 841.779296875 454.348632812 838.779296875 c 1,50,51
 458.456054688 824.330078125 458.456054688 824.330078125 462.563476562 829.880859375 c 1,52,53
 378.971054687 770.418945312 378.971054687 770.418945312 292.773554687 730.958007812 c 1,38,39
EndSplineSet
EndChar

StartChar: Ocircumflex
Encoding: 212 212 149
Width: 590
GlyphClass: 2
Flags: W
HStem: -7 38<198.758 394.186> 656 45<188.058 400.103>
VStem: 40 47<135.549 550.374> 503 47<139.102 551.563>
LayerCount: 2
Fore
SplineSet
104.249023438 630.387695312 m 4,0,1
 169.177890625 701 169.177890625 701 297.16 701 c 4,2,3
 418.492304687 701 418.492304687 701 484.671875 632.892578125 c 4,4,5
 550 564.78515625 550 564.78515625 550 454.950195312 c 6,6,7
 550 350.310546875 550 350.310546875 550 245.857421875 c 6,8,9
 550 130.208007812 550 130.208007812 484.68359375 61.6044921875 c 4,10,11
 418.515507813 -7 418.515507813 -7 297.16 -7 c 4,12,13
 165.812382813 -7 165.812382813 -7 102.690429688 64.6376953125 c 4,14,15
 40 136.276367188 40 136.276367188 40 245.857421875 c 6,16,17
 40 350.310546875 40 350.310546875 40 454.950195312 c 134,-1,18
 40 559.775390625 40 559.775390625 104.249023438 630.387695312 c 4,0,1
450.752929688 597.103515625 m 4,19,20
 396 656 396 656 298.24 656 c 4,21,22
 191 656 191 656 139.247070312 597.103515625 c 4,23,24
 87 538 87 538 87 446 c 6,25,26
 87 327 87 327 87 228 c 6,27,28
 87 149 87 149 139.283203125 91.36328125 c 4,29,30
 194 31 194 31 298.240234375 31 c 4,31,32
 398 31 398 31 450.728515625 90.8740234375 c 4,33,34
 503 151 503 151 503 240.5 c 134,-1,35
 503 330 503 330 503 446 c 6,36,37
 503 541 503 541 450.752929688 597.103515625 c 4,19,20
284.661953125 858 m 1,38,39
 286.590976562 848 286.590976562 848 288.52 858 c 1,40,-1
 319.84 858 l 1,41,42
 321.81859375 848 321.81859375 848 323.798242188 858 c 1,43,44
 393.502539062 793.303710938 393.502539062 793.303710938 460.747070312 748.608398438 c 1,45,46
 456.908203125 734.76953125 456.908203125 734.76953125 453.069335938 740.930664062 c 1,47,48
 447.069335938 724.930664062 447.069335938 724.930664062 441.069335938 728.930664062 c 1,49,50
 438.16015625 716.020507812 438.16015625 716.020507812 435.250976562 723.111328125 c 1,51,52
 369.121328125 754.528320312 369.121328125 754.528320312 302.571601563 805.944335938 c 1,53,54
 235.323671875 753.926757812 235.323671875 753.926757812 168.075742187 721.909179688 c 1,55,56
 164.929609375 715.065429688 164.929609375 715.065429688 161.783476562 728.220703125 c 1,57,58
 155.651367188 724.720703125 155.651367188 724.720703125 149.651367188 741.220703125 c 1,59,60
 146.055664062 735.115234375 146.055664062 735.115234375 142.4609375 749.010742188 c 1,61,62
 212.859882812 793.504882812 212.859882812 793.504882812 284.661953125 858 c 1,38,39
EndSplineSet
EndChar

StartChar: Otilde
Encoding: 213 213 150
Width: 590
GlyphClass: 2
Flags: W
HStem: -7 38<198.758 394.186> 656 45<188.058 400.103> 752 47<306.878 408.915> 792 47<190.482 306.878>
VStem: 40 47<135.549 550.374> 503 47<139.102 551.563>
LayerCount: 2
Fore
SplineSet
104.249023438 630.387695312 m 4,0,1
 169.177890625 701 169.177890625 701 297.16 701 c 4,2,3
 418.492304687 701 418.492304687 701 484.671875 632.892578125 c 4,4,5
 550 564.78515625 550 564.78515625 550 454.950195312 c 6,6,7
 550 350.310546875 550 350.310546875 550 245.857421875 c 6,8,9
 550 130.208007812 550 130.208007812 484.68359375 61.6044921875 c 4,10,11
 418.515507813 -7 418.515507813 -7 297.16 -7 c 4,12,13
 165.812382813 -7 165.812382813 -7 102.690429688 64.6376953125 c 4,14,15
 40 136.276367188 40 136.276367188 40 245.857421875 c 6,16,17
 40 350.310546875 40 350.310546875 40 454.950195312 c 134,-1,18
 40 559.775390625 40 559.775390625 104.249023438 630.387695312 c 4,0,1
450.752929688 597.103515625 m 4,19,20
 396 656 396 656 298.24 656 c 4,21,22
 191 656 191 656 139.247070312 597.103515625 c 4,23,24
 87 538 87 538 87 446 c 6,25,26
 87 327 87 327 87 228 c 6,27,28
 87 149 87 149 139.283203125 91.36328125 c 4,29,30
 194 31 194 31 298.240234375 31 c 4,31,32
 398 31 398 31 450.728515625 90.8740234375 c 4,33,34
 503 151 503 151 503 240.5 c 134,-1,35
 503 330 503 330 503 446 c 6,36,37
 503 541 503 541 450.752929688 597.103515625 c 4,19,20
141.794921875 781.71484375 m 2,38,39
 183.529023438 839 183.529023438 839 241 839 c 0,40,41
 265.01734375 839 265.01734375 839 310.91734375 819 c 128,-1,42
 356.81734375 799 356.81734375 799 371.68 799 c 0,43,44
 394.10265625 799 394.10265625 799 420.034257813 833.682617188 c 2,45,46
 422.917773437 827.5390625 422.917773437 827.5390625 425.800234375 841.39453125 c 1,47,48
 430.123046875 828.98828125 430.123046875 828.98828125 434.133789062 836.581054688 c 1,49,50
 444.133789062 820.581054688 444.133789062 820.581054688 454.133789062 824.581054688 c 1,51,52
 458.345703125 812.0546875 458.345703125 812.0546875 462.556640625 819.528320312 c 1,53,54
 460.1171875 805.280273438 460.1171875 805.280273438 457.678710938 811.032226562 c 2,55,56
 423.293242188 752 423.293242188 752 370.6 752 c 0,57,58
 348.74265625 752 348.74265625 752 302.84265625 772 c 128,-1,59
 256.94265625 792 256.94265625 792 238.84 792 c 0,60,61
 208.324726562 792 208.324726562 792 178.092109375 757.685546875 c 2,62,63
 175.066210937 744.250976562 175.066210937 744.250976562 172.0403125 750.81640625 c 1,64,65
 168.001914062 743.177734375 168.001914062 743.177734375 163.964570313 755.5390625 c 1,66,67
 154.170898438 751.5390625 154.170898438 751.5390625 144.670898438 767.5390625 c 1,68,69
 140.23828125 760.337890625 140.23828125 760.337890625 135.806640625 773.13671875 c 1,70,71
 138.80078125 767.42578125 138.80078125 767.42578125 141.794921875 781.71484375 c 2,38,39
EndSplineSet
EndChar

StartChar: Odieresis
Encoding: 214 214 151
Width: 590
GlyphClass: 2
Flags: W
HStem: -7 38<198.758 394.186> 656 45<188.058 400.103> 763 56<183.76 246.4 350.08 412.72>
VStem: 40 47<135.549 550.374> 183.76 62.64<762.849 819> 350.08 62.64<762.849 819> 503 47<139.102 551.563>
LayerCount: 2
Fore
SplineSet
104.249023438 630.387695312 m 4,0,1
 169.177890625 701 169.177890625 701 297.16 701 c 4,2,3
 418.492304687 701 418.492304687 701 484.671875 632.892578125 c 4,4,5
 550 564.78515625 550 564.78515625 550 454.950195312 c 6,6,7
 550 350.310546875 550 350.310546875 550 245.857421875 c 6,8,9
 550 130.208007812 550 130.208007812 484.68359375 61.6044921875 c 4,10,11
 418.515507813 -7 418.515507813 -7 297.16 -7 c 4,12,13
 165.812382813 -7 165.812382813 -7 102.690429688 64.6376953125 c 4,14,15
 40 136.276367188 40 136.276367188 40 245.857421875 c 6,16,17
 40 350.310546875 40 350.310546875 40 454.950195312 c 134,-1,18
 40 559.775390625 40 559.775390625 104.249023438 630.387695312 c 4,0,1
450.752929688 597.103515625 m 4,19,20
 396 656 396 656 298.24 656 c 4,21,22
 191 656 191 656 139.247070312 597.103515625 c 4,23,24
 87 538 87 538 87 446 c 6,25,26
 87 327 87 327 87 228 c 6,27,28
 87 149 87 149 139.283203125 91.36328125 c 4,29,30
 194 31 194 31 298.240234375 31 c 4,31,32
 398 31 398 31 450.728515625 90.8740234375 c 4,33,34
 503 151 503 151 503 240.5 c 134,-1,35
 503 330 503 330 503 446 c 6,36,37
 503 541 503 541 450.752929688 597.103515625 c 4,19,20
350.08 763 m 1,38,39
 350.08 758 350.08 758 350.08 773 c 1,40,41
 350.08 781 350.08 781 350.08 809 c 1,42,43
 350.08 804 350.08 804 350.08 819 c 1,44,-1
 360.88 819 l 1,45,-1
 401.92 819 l 1,46,-1
 412.72 819 l 1,47,48
 412.72 804 412.72 804 412.72 809 c 1,49,50
 412.72 781 412.72 781 412.72 773 c 1,51,52
 412.72 758 412.72 758 412.72 763 c 1,53,-1
 401.92 763 l 1,54,-1
 360.88 763 l 1,55,-1
 350.08 763 l 1,38,39
183.76 763 m 1,56,57
 183.76 758 183.76 758 183.76 773 c 1,58,59
 183.76 781 183.76 781 183.76 809 c 1,60,61
 183.76 804 183.76 804 183.76 819 c 1,62,-1
 194.56 819 l 1,63,-1
 235.6 819 l 1,64,-1
 246.4 819 l 1,65,66
 246.4 804 246.4 804 246.4 809 c 1,67,68
 246.4 781 246.4 781 246.4 773 c 1,69,70
 246.4 758 246.4 758 246.4 763 c 1,71,-1
 235.6 763 l 1,72,-1
 194.56 763 l 1,73,-1
 183.76 763 l 1,56,57
EndSplineSet
EndChar

StartChar: multiply
Encoding: 215 215 152
Width: 550
GlyphClass: 2
Flags: W
LayerCount: 2
Fore
SplineSet
306.162279033 272.022916533 m 1,0,-1
 461.162279033 118.022916533 l 1,1,-1
 454.06968125 110.93031875 l 1,2,-1
 437.06968125 93.93031875 l 1,3,-1
 430.022841922 86.8834794222 l 1,4,-1
 275.022841922 240.883479422 l 1,5,-1
 116.210962744 82.0716002439 l 1,6,-1
 109.149354531 88.7178197384 l 1,7,-1
 92.1493545309 104.717819738 l 1,8,-1
 84.6431347136 111.782497214 l 1,9,-1
 244.8606375 272 l 1,10,-1
 90.8606375 426 l 1,11,-1
 97.93031875 433.06968125 l 1,12,-1
 114.93031875 450.06968125 l 1,13,-1
 122 457.1393625 l 1,14,-1
 276.022407535 303.116954965 l 1,15,-1
 434.022407535 460.116954965 l 1,16,-1
 441.06968125 453.06968125 l 1,17,-1
 457.06968125 437.06968125 l 1,18,-1
 464.1393625 430 l 1,19,-1
 306.162279033 272.022916533 l 1,0,-1
EndSplineSet
Validated: 1
EndChar

StartChar: Oslash
Encoding: 216 216 153
Width: 590
GlyphClass: 2
Flags: W
HStem: -7 44<196.717 402.818> 656 45<194.115 404.387>
VStem: 43.6943 47<128.339 550.469> 506.694 47<144.772 565.457>
LayerCount: 2
Fore
SplineSet
87.6767578125 87.2958984375 m 1,0,1
 43.6943359375 151.624023438 43.6943359375 151.624023438 43.6943359375 245.94140625 c 2,2,3
 43.6943359375 350.438476562 43.6943359375 350.438476562 43.6943359375 454.99609375 c 2,4,5
 43.6943359375 559.801757812 43.6943359375 559.801757812 107.943359375 630.401367188 c 0,6,7
 173.139134208 701 173.139134208 701 300.84288908 701 c 0,8,9
 413.777352044 701 413.777352044 701 480.046875 638.946289062 c 1,10,11
 500.84375 661.350585938 500.84375 661.350585938 521.640625 703.755859375 c 1,12,13
 525.83203125 691.108398438 525.83203125 691.108398438 530.0234375 698.4609375 c 1,14,15
 539.5234375 682.4609375 539.5234375 682.4609375 549.0234375 686.4609375 c 1,16,17
 553.29296875 674.194335938 553.29296875 674.194335938 557.5625 681.219726562 c 1,18,19
 533.165039062 635.84765625 533.165039062 635.84765625 508.768554688 607.557617188 c 1,20,21
 553.694335938 544.321289062 553.694335938 544.321289062 553.694335938 454.684570312 c 2,22,23
 553.694335938 349.904296875 553.694335938 349.904296875 553.694335938 245.711914062 c 2,24,25
 553.694335938 130.12890625 553.694335938 130.12890625 488.376953125 61.564453125 c 0,26,27
 421.934454907 -7 421.934454907 -7 302.850856086 -7 c 128,-1,28
 183.766204871 -7 183.766204871 -7 117.234375 56.0458984375 c 1,29,30
 96.361328125 34.0087890625 96.361328125 34.0087890625 75.4892578125 -8.0283203125 c 1,31,32
 71.2734375 4.8564453125 71.2734375 4.8564453125 67.056640625 -2.2587890625 c 1,33,34
 57.556640625 13.6103515625 57.556640625 13.6103515625 48.056640625 10.3818359375 c 1,35,36
 44.0283203125 22.361328125 44.0283203125 22.361328125 40 15.7421875 c 1,37,38
 63.8388671875 59.7548828125 63.8388671875 59.7548828125 87.6767578125 87.2958984375 c 1,0,1
454.422851562 96.8740234375 m 0,39,40
 506.694335938 156.748046875 506.694335938 156.748046875 506.694335938 254 c 2,41,42
 506.694335938 370 506.694335938 370 506.694335938 466 c 2,43,44
 506.694335938 531.1640625 506.694335938 531.1640625 479.322265625 581.137695312 c 1,45,46
 312.214002025 348.977539062 312.214002025 348.977539062 143.169921875 96.818359375 c 1,47,48
 199.467917517 37 199.467917517 37 301.920540136 37 c 0,49,50
 399.402707739 37 399.402707739 37 454.422851562 96.8740234375 c 0,39,40
453.194335938 598.145507812 m 1,51,52
 398.083006154 656 398.083006154 656 301.920540136 656 c 0,53,54
 197.920898911 656 197.920898911 656 142.94140625 597.103515625 c 0,55,56
 90.6943359375 538.206054688 90.6943359375 538.206054688 90.6943359375 446 c 2,57,58
 90.6943359375 327 90.6943359375 327 90.6943359375 228 c 2,59,60
 90.6943359375 163.848632812 90.6943359375 163.848632812 117.1875 114.048828125 c 1,61,62
 284.135088144 346.096679688 284.135088144 346.096679688 453.194335938 598.145507812 c 1,51,52
EndSplineSet
EndChar

StartChar: Ugrave
Encoding: 217 217 154
Width: 590
GlyphClass: 2
Flags: W
HStem: -7 44<188.947 401.697> 676 20G<51 97 492 539>
VStem: 51 46<131.993 696> 492 47<125.674 696>
LayerCount: 2
Fore
SplineSet
539 217.610351562 m 2,0,1
 539 114.359375 539 114.359375 475.509765625 53.6455078125 c 0,2,3
 411.484751919 -7 411.484751919 -7 295.530050713 -7 c 128,-1,4
 179.576411732 -7 179.576411732 -7 114.959960938 54.6474609375 c 0,5,6
 51 116.487304688 51 116.487304688 51 227.333007812 c 2,7,8
 51 458.42578125 51 458.42578125 51 696 c 1,9,-1
 61 696 l 1,10,-1
 87 696 l 1,11,-1
 97 696 l 1,12,13
 97 464.934570312 97 464.934570312 97 239.84375 c 2,14,15
 97 143.5625 97 143.5625 145.74609375 90.28125 c 0,16,17
 196.551843476 37 196.551843476 37 294.042934485 37 c 128,-1,18
 391.535087719 37 391.535087719 37 442.796875 86.43359375 c 0,19,20
 492 136.024414062 492 136.024414062 492 229.16796875 c 2,21,22
 492 459.75390625 492 459.75390625 492 696 c 1,23,-1
 502 696 l 1,24,-1
 529 696 l 1,25,-1
 539 696 l 1,26,27
 539 453.698242188 539 453.698242188 539 217.610351562 c 2,0,1
337.791769463 758.469726562 m 1,28,29
 334.146210252 744.5078125 334.146210252 744.5078125 330.499588816 750.545898438 c 1,30,31
 324.517132675 734.045898438 324.517132675 734.045898438 318.534676535 737.545898438 c 1,32,33
 315.503083882 724.251953125 315.503083882 724.251953125 312.470429002 730.958007812 c 1,34,35
 225.656832511 770.418945312 225.656832511 770.418945312 141.436523438 829.880859375 c 1,36,37
 145.543945312 824.330078125 145.543945312 824.330078125 149.651367188 838.779296875 c 1,38,39
 161.651367188 841.779296875 161.651367188 841.779296875 173.883943257 864.779296875 c 1,40,41
 177.285190515 858.166992188 177.285190515 858.166992188 180.6875 871.5546875 c 1,42,43
 259.240165844 805.012695312 259.240165844 805.012695312 337.791769463 758.469726562 c 1,28,29
EndSplineSet
EndChar

StartChar: Uacute
Encoding: 218 218 155
Width: 590
GlyphClass: 2
Flags: W
HStem: -7 44<188.947 401.697> 676 20G<51 97 492 539>
VStem: 51 46<131.993 696> 492 47<125.674 696>
LayerCount: 2
Fore
SplineSet
539 217.610351562 m 2,0,1
 539 114.359375 539 114.359375 475.509765625 53.6455078125 c 0,2,3
 411.484751919 -7 411.484751919 -7 295.530050713 -7 c 128,-1,4
 179.576411732 -7 179.576411732 -7 114.959960938 54.6474609375 c 0,5,6
 51 116.487304688 51 116.487304688 51 227.333007812 c 2,7,8
 51 458.42578125 51 458.42578125 51 696 c 1,9,-1
 61 696 l 1,10,-1
 87 696 l 1,11,-1
 97 696 l 1,12,13
 97 464.934570312 97 464.934570312 97 239.84375 c 2,14,15
 97 143.5625 97 143.5625 145.74609375 90.28125 c 0,16,17
 196.551843476 37 196.551843476 37 294.042934485 37 c 128,-1,18
 391.535087719 37 391.535087719 37 442.796875 86.43359375 c 0,19,20
 492 136.024414062 492 136.024414062 492 229.16796875 c 2,21,22
 492 459.75390625 492 459.75390625 492 696 c 1,23,-1
 502 696 l 1,24,-1
 529 696 l 1,25,-1
 539 696 l 1,26,27
 539 453.698242188 539 453.698242188 539 217.610351562 c 2,0,1
264.476939419 730.958007812 m 1,28,29
 261.444284539 724.251953125 261.444284539 724.251953125 258.412691886 737.545898438 c 1,30,31
 252.430235746 734.045898438 252.430235746 734.045898438 246.447779605 750.545898438 c 1,32,33
 242.801158169 744.5078125 242.801158169 744.5078125 239.155598958 758.469726562 c 1,34,35
 317.707202577 805.012695312 317.707202577 805.012695312 396.259868421 871.5546875 c 1,36,37
 399.662177906 858.166992188 399.662177906 858.166992188 403.063425164 864.779296875 c 1,38,39
 416.116056743 841.779296875 416.116056743 841.779296875 428.348632812 838.779296875 c 1,40,41
 432.456054688 824.330078125 432.456054688 824.330078125 436.563476562 829.880859375 c 1,42,43
 351.29053591 770.418945312 351.29053591 770.418945312 264.476939419 730.958007812 c 1,28,29
EndSplineSet
EndChar

StartChar: Ucircumflex
Encoding: 219 219 156
Width: 590
GlyphClass: 2
Flags: W
HStem: -7 44<188.947 401.697> 676 20G<51 97 492 539>
VStem: 51 46<131.993 696> 492 47<125.674 696>
LayerCount: 2
Fore
SplineSet
539 217.610351562 m 2,0,1
 539 114.359375 539 114.359375 475.509765625 53.6455078125 c 0,2,3
 411.484751919 -7 411.484751919 -7 295.530050713 -7 c 128,-1,4
 179.576411732 -7 179.576411732 -7 114.959960938 54.6474609375 c 0,5,6
 51 116.487304688 51 116.487304688 51 227.333007812 c 2,7,8
 51 458.42578125 51 458.42578125 51 696 c 1,9,-1
 61 696 l 1,10,-1
 87 696 l 1,11,-1
 97 696 l 1,12,13
 97 464.934570312 97 464.934570312 97 239.84375 c 2,14,15
 97 143.5625 97 143.5625 145.74609375 90.28125 c 0,16,17
 196.551843476 37 196.551843476 37 294.042934485 37 c 128,-1,18
 391.535087719 37 391.535087719 37 442.796875 86.43359375 c 0,19,20
 492 136.024414062 492 136.024414062 492 229.16796875 c 2,21,22
 492 459.75390625 492 459.75390625 492 696 c 1,23,-1
 502 696 l 1,24,-1
 529 696 l 1,25,-1
 539 696 l 1,26,27
 539 453.698242188 539 453.698242188 539 217.610351562 c 2,0,1
276.974026864 858 m 1,28,29
 278.916837993 848 278.916837993 848 280.859649123 858 c 1,30,-1
 312.403508772 858 l 1,31,32
 314.396244518 848 314.396244518 848 316.390042489 858 c 1,33,34
 386.592550713 793.303710938 386.592550713 793.303710938 453.747070312 748.608398438 c 1,35,36
 449.908203125 734.76953125 449.908203125 734.76953125 446.069335938 740.930664062 c 1,37,38
 440.069335938 724.930664062 440.069335938 724.930664062 434.069335938 728.930664062 c 1,39,40
 431.16015625 716.020507812 431.16015625 716.020507812 428.250976562 723.111328125 c 1,41,42
 362.03707511 754.528320312 362.03707511 754.528320312 295.011684485 805.944335938 c 1,43,44
 227.283100329 753.926757812 227.283100329 753.926757812 160.477539062 721.909179688 c 1,45,46
 157.564453125 715.065429688 157.564453125 715.065429688 154.651367188 728.220703125 c 1,47,48
 148.651367188 724.720703125 148.651367188 724.720703125 142.651367188 741.220703125 c 1,49,50
 139.055664062 735.115234375 139.055664062 735.115234375 135.4609375 749.010742188 c 1,51,52
 204.658751371 793.504882812 204.658751371 793.504882812 276.974026864 858 c 1,28,29
EndSplineSet
EndChar

StartChar: Udieresis
Encoding: 220 220 157
Width: 590
GlyphClass: 2
Flags: W
HStem: -7 44<188.947 401.697> 676 20G<51 97 492 539> 763 56<178.614 241.702 346.123 409.211>
VStem: 51 46<131.993 696> 178.614 63.0877<762.849 819> 346.123 63.0877<762.849 819> 492 47<125.674 696>
LayerCount: 2
Fore
SplineSet
539 217.610351562 m 2,0,1
 539 114.359375 539 114.359375 475.509765625 53.6455078125 c 0,2,3
 411.484751919 -7 411.484751919 -7 295.530050713 -7 c 128,-1,4
 179.576411732 -7 179.576411732 -7 114.959960938 54.6474609375 c 0,5,6
 51 116.487304688 51 116.487304688 51 227.333007812 c 2,7,8
 51 458.42578125 51 458.42578125 51 696 c 1,9,-1
 61 696 l 1,10,-1
 87 696 l 1,11,-1
 97 696 l 1,12,13
 97 464.934570312 97 464.934570312 97 239.84375 c 2,14,15
 97 143.5625 97 143.5625 145.74609375 90.28125 c 0,16,17
 196.551843476 37 196.551843476 37 294.042934485 37 c 128,-1,18
 391.535087719 37 391.535087719 37 442.796875 86.43359375 c 0,19,20
 492 136.024414062 492 136.024414062 492 229.16796875 c 2,21,22
 492 459.75390625 492 459.75390625 492 696 c 1,23,-1
 502 696 l 1,24,-1
 529 696 l 1,25,-1
 539 696 l 1,26,27
 539 453.698242188 539 453.698242188 539 217.610351562 c 2,0,1
346.122807018 763 m 1,28,29
 346.122807018 758 346.122807018 758 346.122807018 773 c 1,30,31
 346.122807018 781 346.122807018 781 346.122807018 809 c 1,32,33
 346.122807018 804 346.122807018 804 346.122807018 819 c 1,34,-1
 357 819 l 1,35,-1
 398.333333333 819 l 1,36,-1
 409.210526316 819 l 1,37,38
 409.210526316 804 409.210526316 804 409.210526316 809 c 1,39,40
 409.210526316 781 409.210526316 781 409.210526316 773 c 1,41,42
 409.210526316 758 409.210526316 758 409.210526316 763 c 1,43,-1
 398.333333333 763 l 1,44,-1
 357 763 l 1,45,-1
 346.122807018 763 l 1,28,29
178.614035088 763 m 1,46,47
 178.614035088 758 178.614035088 758 178.614035088 773 c 1,48,49
 178.614035088 781 178.614035088 781 178.614035088 809 c 1,50,51
 178.614035088 804 178.614035088 804 178.614035088 819 c 1,52,-1
 189.49122807 819 l 1,53,-1
 230.824561404 819 l 1,54,-1
 241.701754386 819 l 1,55,56
 241.701754386 804 241.701754386 804 241.701754386 809 c 1,57,58
 241.701754386 781 241.701754386 781 241.701754386 773 c 1,59,60
 241.701754386 758 241.701754386 758 241.701754386 763 c 1,61,-1
 230.824561404 763 l 1,62,-1
 189.49122807 763 l 1,63,-1
 178.614035088 763 l 1,46,47
EndSplineSet
EndChar

StartChar: Yacute
Encoding: 221 221 158
Width: 590
GlyphClass: 2
Flags: W
HStem: 0 21G<277.452 326.321> 676 20G<55 152.44 451.536 547.647>
VStem: 277.452 48.8685<0 325.844>
LayerCount: 2
Fore
SplineSet
499.196289062 696 m 1,0,1
 502.26953125 686 502.26953125 686 505.341796875 696 c 1,2,-1
 531.341796875 696 l 1,3,4
 539.494140625 686 539.494140625 686 547.647460938 696 c 1,5,6
 440.994140625 488.131835938 440.994140625 488.131835938 326.320590567 288.31640625 c 1,7,8
 326.320590567 149.852539062 326.320590567 149.852539062 326.320590567 0 c 1,9,-1
 315.460920751 0 l 1,10,-1
 288.31174621 0 l 1,11,-1
 277.452076394 0 l 1,12,13
 277.452076394 149.84765625 277.452076394 149.84765625 277.452076394 288.306640625 c 1,14,15
 162.170898438 488.126953125 162.170898438 488.126953125 55 696 c 1,16,-1
 71.341796875 696 l 1,17,-1
 98.341796875 696 l 1,18,-1
 104.47265625 696 l 1,19,20
 200.406749003 501.54296875 200.406749003 501.54296875 302.40386462 327.0859375 c 1,21,22
 403.876025495 501.54296875 403.876025495 501.54296875 499.196289062 696 c 1,0,1
287.158966807 730.958007812 m 1,23,24
 284.131197536 724.251953125 284.131197536 724.251953125 281.104488781 737.545898438 c 1,25,26
 275.131670382 734.045898438 275.131670382 734.045898438 269.158851983 750.545898438 c 1,27,28
 265.518105257 744.5078125 265.518105257 744.5078125 261.87735853 758.469726562 c 1,29,30
 340.30347597 805.012695312 340.30347597 805.012695312 418.72959341 871.5546875 c 1,31,32
 422.126421771 858.166992188 422.126421771 858.166992188 425.522189618 864.779296875 c 1,33,34
 437.690429688 841.779296875 437.690429688 841.779296875 449.690429688 838.779296875 c 1,35,36
 453.797851562 824.330078125 453.797851562 824.330078125 457.904296875 829.880859375 c 1,37,38
 373.832706528 770.418945312 373.832706528 770.418945312 287.158966807 730.958007812 c 1,23,24
EndSplineSet
EndChar

